<?xml version="1.0" encoding="UTF-8"?>
<svg xmlns="http://www.w3.org/2000/svg" width="200" height="200" viewBox="0 0 200 200" fill="none">
  <path d="M168.398 115.007C168.34 120.679 165.023 124.464 159.369 125.819C157.584 126.247 155.597 126.401 153.7 126.401H142.082C141.329 126.401 140.948 125.963 140.948 125.267V104.746C140.948 104.051 141.329 103.613 142.082 103.613H154.037C155.614 103.613 157.838 103.774 159.186 104.085C164.851 105.391 168.34 109.335 168.398 115.007Z" fill="#1E1E23"></path>
  <path d="M142.137 100.703C141.347 100.703 140.948 100.251 140.948 99.5339V80.7709C140.948 80.0539 141.347 79.6019 142.137 79.6019H152.525C154.022 79.6019 156.132 79.7529 157.411 80.0419C162.788 81.2599 166.097 84.8639 166.153 90.1529C166.097 95.4409 162.889 98.9619 157.523 100.225C156.358 100.5 154.204 100.703 152.252 100.703H142.137Z" fill="#808080"></path>
  <path d="M48.9601 90.2425C48.9601 86.2275 46.0161 83.5135 42.5361 83.5135C39.0571 83.5135 36.1131 86.2275 36.1131 90.2425C36.1131 94.2575 39.0571 96.9715 42.5361 96.9715C46.0161 96.9715 48.9601 94.2575 48.9601 90.2425ZM53.3951 79.6895V100.719H48.6161V99.0365C46.9941 100.335 44.9201 101.102 42.4991 101.102C36.4961 101.102 31.6021 96.2075 31.6021 90.2045C31.6021 84.2015 36.4961 79.3075 42.4991 79.3075C44.9201 79.3075 46.9941 80.0735 48.6161 81.3725V79.6895H53.3951Z" fill="#1E1E23"></path>
  <path d="M72.2775 90.2431C72.2775 86.2281 69.3335 83.5141 65.8535 83.5141C62.3745 83.5141 59.4305 86.2281 59.4305 90.2431C59.4305 94.2581 62.3745 96.9721 65.8535 96.9721C69.3335 96.9721 72.2775 94.2581 72.2775 90.2431ZM76.7125 73.5731V100.719H71.8185V99.1181C70.1865 100.367 68.1425 101.101 65.8165 101.101C59.8135 101.101 54.9195 96.2071 54.9195 90.2041C54.9195 84.2021 59.8135 79.3071 65.8165 79.3071C68.1425 79.3071 70.1865 80.0421 71.8185 81.2911V73.5721L76.7125 73.5731Z" fill="#1E1E23"></path>
  <path d="M95.595 90.2425C95.595 86.2275 92.651 83.5135 89.171 83.5135C85.692 83.5135 82.748 86.2275 82.748 90.2425C82.748 94.2575 85.692 96.9715 89.171 96.9715C92.651 96.9715 95.595 94.2575 95.595 90.2425ZM100.03 79.6895V100.719H95.251V99.0365C93.629 100.335 91.555 101.102 89.134 101.102C83.131 101.102 78.237 96.2075 78.237 90.2045C78.237 84.2015 83.131 79.3075 89.134 79.3075C91.555 79.3075 93.629 80.0735 95.251 81.3725V79.6895H100.03Z" fill="#1E1E23"></path>
  <path d="M130.043 88.1774C130.047 87.2454 129.944 86.6214 129.745 86.0794C129.119 84.3734 127.582 83.4754 125.613 83.4754C123.693 83.4754 122.221 84.5494 121.56 86.0714C121.312 86.6454 121.174 87.2794 121.178 88.1774L121.216 100.719H116.054L116.088 88.1774C116.092 87.2454 115.989 86.6224 115.79 86.0794C115.164 84.3744 113.627 83.4754 111.658 83.4754C109.739 83.4754 108.266 84.5464 107.606 86.0714C107.357 86.6454 107.223 87.2794 107.223 88.1784V100.719H102.176V79.6904H106.841V81.6014C107.842 80.3674 109.616 79.3124 112.308 79.3124C115.32 79.3124 117.698 80.6074 119.19 82.6344C120.528 80.6464 122.898 79.3074 126.148 79.3074C131.122 79.3074 135.087 82.7604 135.087 87.5274V100.719H130.04L130.044 88.1774H130.043Z" fill="#1E1E23"></path>
  <path d="M64.0457 121.687L58.1197 115.225C56.6667 116.181 56.2077 117.252 56.2077 118.399C56.2077 120.769 57.9277 122.452 61.1017 122.452C62.0957 122.452 63.0897 122.146 64.0457 121.687ZM61.0257 126.428C55.5957 126.428 51.8107 123.178 51.8107 118.399C51.8107 115.761 53.1867 113.505 55.7867 111.708C55.5197 110.943 55.3287 110.102 55.3287 109.222C55.3287 106.125 57.9277 103.602 62.2027 103.602C64.7867 103.602 66.6337 104.485 68.0367 105.938L64.9397 108.683C64.0987 107.861 63.2457 107.502 62.1337 107.502C60.7567 107.502 59.7247 108.343 59.7247 109.414C59.7247 110.331 60.2797 111.149 61.2157 112.166L67.4097 118.895C68.2167 118.139 68.8397 117.282 69.3097 116.369L72.0627 119.37C71.5397 120.311 70.9157 121.182 70.2017 121.954L73.9487 126.046H68.0607L66.9517 124.822C65.2307 125.854 63.2427 126.428 61.0257 126.428Z" fill="#1E1E23"></path>
  <path d="M84.7822 108.802C81.6852 108.802 79.2842 110.855 78.6072 113.504H90.9382C90.3762 110.718 87.6462 108.802 84.7832 108.802H84.7822ZM84.7832 104.634C90.9012 104.634 95.6802 109.528 95.6802 115.895C95.6802 116.231 95.6422 116.697 95.5772 117.099L78.6092 117.175C79.3542 120.31 81.9352 122.299 84.9752 122.299C87.5822 122.299 89.6732 121.263 90.4262 118.869L94.8842 119.603C93.5692 123.01 89.9452 126.428 84.9742 126.428C78.6272 126.428 73.8092 121.61 73.8092 115.492C73.8092 109.336 78.8952 104.633 84.7832 104.633V104.634Z" fill="#1E1E23"></path>
  <path d="M115.621 105.016L107.133 126.007H102.43L93.942 105.016H99.142L104.762 120.004L110.421 105.016H115.621Z" fill="#1E1E23"></path>
  <path d="M124.853 108.802C121.756 108.802 119.355 110.855 118.679 113.504H131.009C130.447 110.718 127.718 108.802 124.854 108.802H124.853ZM124.854 104.634C130.972 104.634 135.751 109.528 135.751 115.895C135.751 116.231 135.713 116.697 135.648 117.099L118.68 117.175C119.425 120.31 122.006 122.299 125.046 122.299C127.653 122.299 129.744 121.263 130.497 118.869L134.955 119.603C133.64 123.01 130.016 126.428 125.045 126.428C118.698 126.428 113.881 121.61 113.881 115.492C113.881 109.336 118.966 104.633 124.854 104.633V104.634Z" fill="#1E1E23"></path>
</svg>
