<?xml version="1.0" encoding="UTF-8"?>
<svg xmlns="http://www.w3.org/2000/svg" width="200" height="200" viewBox="0 0 200 200" fill="none">
  <path d="M104.577 86.8574C104.577 88.7614 103.043 90.2951 101.139 90.2951C99.2354 90.2951 97.7017 88.7614 97.7017 86.8574C97.7017 84.9534 99.1825 83.4197 101.139 83.4197C103.096 83.4726 104.577 85.0063 104.577 86.8574ZM90.4032 93.7857C90.4032 94.103 90.4032 94.6319 90.4032 94.6319C90.4032 94.6319 88.7636 92.5164 85.2731 92.5164C79.5083 92.5164 75.0128 96.9061 75.0128 102.988C75.0128 109.017 79.4554 113.46 85.2731 113.46C88.8165 113.46 90.4032 111.292 90.4032 111.292V112.191C90.4032 112.614 90.7205 112.931 91.1436 112.931H95.4275V93.0453C95.4275 93.0453 91.5138 93.0453 91.1436 93.0453C90.7205 93.0453 90.4032 93.4155 90.4032 93.7857ZM90.4032 106.532C89.6098 107.695 88.0232 108.7 86.1193 108.7C82.7344 108.7 80.1429 106.585 80.1429 102.988C80.1429 99.3918 82.7344 97.2763 86.1193 97.2763C87.9703 97.2763 89.6627 98.334 90.4032 99.4447V106.532ZM98.6008 93.0453H103.678V112.931H98.6008V93.0453ZM174.442 92.5164C170.951 92.5164 169.312 94.6319 169.312 94.6319V83.4726H164.234V112.931C164.234 112.931 168.148 112.931 168.518 112.931C168.941 112.931 169.259 112.561 169.259 112.191V111.292C169.259 111.292 170.898 113.46 174.389 113.46C180.154 113.46 184.649 109.017 184.649 102.988C184.649 96.959 180.154 92.5164 174.442 92.5164ZM173.596 108.647C171.639 108.647 170.105 107.642 169.312 106.479V99.3918C170.105 98.334 171.797 97.2234 173.596 97.2234C176.98 97.2234 179.572 99.3389 179.572 102.935C179.572 106.532 176.98 108.647 173.596 108.647ZM161.59 101.137V112.984H156.513V101.719C156.513 98.4398 155.455 97.1176 152.599 97.1176C151.065 97.1176 149.479 97.9109 148.474 99.0745V112.931H143.397V93.0453H147.416C147.839 93.0453 148.157 93.4155 148.157 93.7857V94.6319C149.637 93.0982 151.594 92.5164 153.551 92.5164C155.772 92.5164 157.623 93.151 159.104 94.4203C160.902 95.9012 161.59 97.8052 161.59 101.137ZM131.074 92.5164C127.583 92.5164 125.944 94.6319 125.944 94.6319V83.4726H120.866V112.931C120.866 112.931 124.78 112.931 125.15 112.931C125.574 112.931 125.891 112.561 125.891 112.191V111.292C125.891 111.292 127.53 113.46 131.021 113.46C136.786 113.46 141.281 109.017 141.281 102.988C141.334 96.959 136.839 92.5164 131.074 92.5164ZM130.228 108.647C128.271 108.647 126.737 107.642 125.944 106.479V99.3918C126.737 98.334 128.429 97.2234 130.228 97.2234C133.612 97.2234 136.204 99.3389 136.204 102.935C136.204 106.532 133.612 108.647 130.228 108.647ZM116.477 92.5164C118.011 92.5164 118.804 92.7808 118.804 92.7808V97.4878C118.804 97.4878 114.573 96.0599 111.928 99.0745V112.984H106.851V93.0453C106.851 93.0453 110.765 93.0453 111.135 93.0453C111.558 93.0453 111.876 93.4155 111.876 93.7857V94.6319C112.828 93.5213 114.89 92.5164 116.477 92.5164ZM63.7477 111.133C63.4833 110.498 63.2189 109.811 62.9544 109.229C62.5313 108.277 62.1082 107.378 61.738 106.532L61.6851 106.479C58.0359 98.5456 54.1222 90.5067 49.9969 82.5735L49.8383 82.2562C49.4152 81.4629 48.9921 80.6166 48.569 79.7704C48.0401 78.8185 47.5112 77.8136 46.665 76.8616C44.9726 74.7461 42.5398 73.5826 39.9483 73.5826C37.3039 73.5826 34.9239 74.7461 33.1786 76.7558C32.3853 77.7078 31.8036 78.7127 31.2747 79.6647C30.8516 80.5109 30.4285 81.3571 30.0054 82.1504L29.8467 82.4677C25.7744 90.4009 21.8078 98.4398 18.1585 106.373L18.1056 106.479C17.7354 107.325 17.3123 108.224 16.8892 109.176C16.6248 109.758 16.3603 110.392 16.0959 111.08C15.4084 113.037 15.1968 114.888 15.4613 116.792C16.043 120.758 18.6874 124.09 22.3367 125.571C23.7117 126.153 25.1397 126.417 26.6206 126.417C27.0437 126.417 27.5725 126.365 27.9956 126.312C29.7409 126.1 31.5391 125.518 33.2844 124.513C35.4528 123.297 37.5154 121.552 39.8425 119.013C42.1696 121.552 44.2851 123.297 46.4006 124.513C48.1459 125.518 49.9441 126.1 51.6893 126.312C52.1124 126.365 52.6413 126.417 53.0644 126.417C54.5453 126.417 56.0261 126.153 57.3483 125.571C61.0505 124.09 63.642 120.706 64.2237 116.792C64.6468 114.941 64.4353 113.09 63.7477 111.133ZM39.8954 113.883C37.0395 110.287 35.1884 106.902 34.5537 104.046C34.2893 102.829 34.2364 101.772 34.3951 100.82C34.5008 99.9736 34.8182 99.2331 35.2413 98.5985C36.2461 97.1705 37.9385 96.2714 39.8954 96.2714C41.8522 96.2714 43.5975 97.1176 44.5495 98.5985C44.9726 99.2331 45.2899 99.9736 45.3957 100.82C45.5544 101.772 45.5015 102.882 45.237 104.046C44.6024 106.849 42.7513 110.234 39.8954 113.883ZM60.9976 116.369C60.6274 119.119 58.7763 121.499 56.1848 122.557C54.9155 123.085 53.5404 123.244 52.1653 123.085C50.8431 122.927 49.521 122.504 48.1459 121.71C46.2419 120.653 44.338 119.013 42.1167 116.58C45.6073 112.296 47.7228 108.383 48.5161 104.892C48.8863 103.253 48.9392 101.772 48.7805 100.397C48.569 99.0745 48.093 97.858 47.3526 96.8003C45.713 94.4203 42.9629 93.0453 39.8954 93.0453C36.8279 93.0453 34.0777 94.4732 32.4382 96.8003C31.6978 97.858 31.2218 99.0745 31.0102 100.397C30.7987 101.772 30.8516 103.305 31.2747 104.892C32.068 108.383 34.2364 112.349 37.6741 116.633C35.5057 119.066 33.5489 120.706 31.6449 121.763C30.2698 122.557 28.9476 122.98 27.6254 123.138C26.1975 123.297 24.8224 123.085 23.606 122.61C21.0145 121.552 19.1634 119.172 18.7932 116.422C18.6345 115.099 18.7403 113.777 19.2692 112.296C19.4278 111.768 19.6923 111.239 19.9567 110.604C20.3269 109.758 20.75 108.859 21.1731 107.96L21.226 107.854C24.8753 99.9736 28.789 91.9346 32.8613 84.1072L33.02 83.7899C33.4431 82.9966 33.8662 82.1504 34.2893 81.3571C34.7124 80.5109 35.1884 79.7176 35.7701 79.03C36.8808 77.7607 38.3616 77.0732 40.0012 77.0732C41.6407 77.0732 43.1215 77.7607 44.2322 79.03C44.8139 79.7176 45.2899 80.5109 45.713 81.3571C46.1361 82.1504 46.5592 82.9966 46.9823 83.7899L47.141 84.1072C51.1605 91.9875 55.0742 100.026 58.7234 107.907V107.96C59.1465 108.806 59.5167 109.758 59.9398 110.604C60.2043 111.239 60.4687 111.768 60.6274 112.296C61.0505 113.671 61.2091 114.994 60.9976 116.369Z" fill="#1E1E23"></path>
</svg>
