<?xml version="1.0" encoding="UTF-8"?>
<svg xmlns="http://www.w3.org/2000/svg" width="200" height="200" viewBox="0 0 200 200" fill="none">
  <path d="M135.864 127.688C135.676 127.711 135.412 127.843 135.075 128.081C133.91 128.896 132.537 129.302 130.959 129.302C129.922 129.302 128.578 128.609 126.921 127.226L125.208 125.773L124.782 125.41L122.157 123.145C121.401 122.551 120.078 121.624 118.179 120.362C119.477 120.029 120.688 119.603 121.817 119.085L92.5154 119.088C92.9478 119.587 93.443 119.838 94.0108 119.838C94.3113 119.838 94.7437 119.811 95.3049 119.762C95.81 119.712 96.6287 119.686 97.7545 119.686C98.7845 119.686 99.5074 119.705 99.9366 119.748L99.8574 119.91C98.9759 121.746 98.4973 123.611 98.4213 125.499C98.418 125.595 98.4147 125.691 98.4213 125.773H99.0783H98.4213C98.4477 126.374 98.6788 126.671 99.1179 126.671C99.4018 126.671 99.6098 126.377 99.7385 125.773H99.7418C99.7649 125.644 99.7881 125.506 99.8112 125.347C100.019 123.631 100.6 122.168 101.558 120.967C102.515 119.765 103.571 119.161 104.714 119.161C106.031 119.161 108.101 120.128 110.917 122.063L115.654 125.331C115.779 125.42 115.981 125.565 116.258 125.773C117.054 126.361 118.467 127.424 120.503 128.969C123.564 131.296 126.225 132.458 128.483 132.458C130.156 132.458 131.896 131.976 133.712 131.006C135.521 130.038 136.412 129.111 136.373 128.226C136.353 127.843 136.188 127.662 135.864 127.688Z" fill="#1E1E23"></path>
  <path d="M166.897 118.184C165.111 117.768 163.93 117.2 163.345 116.477C162.764 115.758 162.028 113.915 161.15 110.958L160.526 108.973L156.518 95.6793L148.364 68.6057C148.156 67.8992 147.909 67.5426 147.608 67.5426C147.311 67.5426 147.04 67.9091 146.799 68.6453L137.424 95.6793H139.778C139.807 95.4317 139.926 95.0157 140.141 94.4347L145.644 78.6085C145.812 78.1199 145.964 77.8888 146.096 77.9152C146.36 77.9383 146.608 78.3411 146.832 79.1169L147.057 79.8861L151.49 94.3588L151.632 95.0157C151.698 95.2897 151.741 95.5142 151.761 95.6793H153.923L151.761 95.6826C151.771 95.7486 151.774 95.808 151.774 95.8575C151.774 96.4683 151.302 96.772 150.361 96.772H141.831L141.072 96.7357C140.203 96.7357 139.771 96.4155 139.771 95.7849C139.771 95.7519 139.771 95.7156 139.778 95.6793H137.424L132.29 110.485L131.472 112.905C131.056 114.031 130.527 115.114 129.89 116.154C129.25 117.19 128.741 117.785 128.365 117.93L127.322 118.336C127.018 118.455 126.856 118.706 126.843 119.082C126.84 119.102 126.84 119.122 126.84 119.145C126.84 119.607 127.094 119.838 127.602 119.838C127.695 119.838 128.22 119.759 129.174 119.597C129.474 119.557 129.897 119.537 130.442 119.537C131.62 119.537 132.663 119.561 133.561 119.613L136.265 119.798C136.697 119.825 137.011 119.838 137.219 119.838C137.764 119.838 138.025 119.63 138.008 119.214C138.005 119.171 137.998 119.125 137.992 119.082H136.598H137.992C137.929 118.715 137.638 118.465 137.127 118.336C135.826 117.969 134.951 117.53 134.505 117.015C134.063 116.504 133.842 115.675 133.842 114.533C133.842 113.334 134.261 111.509 135.106 109.043L136.978 103.668C137.539 102.011 137.992 101.034 138.332 100.743C138.672 100.45 139.537 100.301 140.93 100.301H151.15C152.207 100.301 152.844 100.407 153.072 100.615C153.299 100.823 153.61 101.598 154.006 102.942L155.422 107.778C156.578 111.641 157.155 114.216 157.155 115.51C157.155 116.926 156.683 117.758 155.736 118.002L154.858 118.257C154.386 118.385 154.148 118.649 154.148 119.049V119.082C154.161 119.587 154.405 119.838 154.881 119.838C155.069 119.838 155.359 119.785 155.756 119.686C156.413 119.537 158.05 119.462 160.661 119.462C163.164 119.462 164.903 119.514 165.881 119.623C166.425 119.663 166.785 119.686 166.954 119.686C167.459 119.686 167.719 119.488 167.742 119.085V119.079C167.762 118.626 167.482 118.329 166.897 118.184Z" fill="#1E1E23"></path>
  <path d="M116.508 118.484C112.464 118.484 108.813 116.566 105.544 112.726C101.883 108.395 99.7574 102.714 99.1697 95.6785C99.0575 94.3349 99.0014 92.9385 99.0014 91.4925C99.0014 85.2796 100.286 80.2386 102.851 76.3629C105.422 72.4872 108.763 70.5494 112.88 70.5494C117.753 70.5494 121.892 73.2069 125.303 78.5252C128.373 83.3186 130.06 89.0331 130.363 95.6785C130.396 96.4114 130.416 97.1542 130.416 97.9102C130.416 104.047 129.135 109.009 126.577 112.799C124.015 116.589 120.661 118.484 116.508 118.484ZM131.895 107.887C133.453 104.173 134.302 100.106 134.444 95.6818C134.46 95.2395 134.463 94.7938 134.463 94.3481C134.463 86.6661 132.615 80.4168 128.917 75.6003C125.22 70.7804 120.433 68.3705 114.56 68.3705C107.935 68.3705 102.801 71.2558 99.1466 77.0297C96.0798 81.9024 94.548 87.8116 94.548 94.7575C94.548 95.0678 94.5513 95.3748 94.5579 95.6785C94.7461 103.975 97.5323 110.828 102.91 116.229C102.144 116.635 101.441 117.315 100.794 118.262L99.83 118.002C97.9879 117.513 96.2844 116.202 94.7196 114.07L81.1944 95.6785H70.5973V109.815C70.5973 112.891 70.363 115.08 69.9008 116.381C69.7984 116.665 69.6796 116.919 69.5442 117.15C69.2174 116.942 68.9566 116.721 68.7585 116.48C68.1742 115.757 67.4446 113.915 66.5599 110.957L65.9393 108.973L61.9348 95.6785L53.7774 68.6082C53.5728 67.8985 53.3186 67.5419 53.0247 67.5419C52.7276 67.5419 52.4569 67.9117 52.2126 68.6445L42.8404 95.6785H45.1909C45.2206 95.4343 45.3394 95.0183 45.554 94.434L51.0605 78.6077C51.2289 78.1191 51.3774 77.8881 51.5128 77.9145C51.7736 77.9376 52.0179 78.3403 52.2424 79.1161L52.4734 79.8886L56.9037 94.358L57.0457 95.0183C57.1117 95.2923 57.1546 95.5135 57.1744 95.6785H59.3401L57.1744 95.6818C57.181 95.7479 57.1876 95.8073 57.1876 95.8568C57.1876 96.4675 56.7189 96.7713 55.7747 96.7713H47.2475L46.485 96.7349C45.6167 96.7349 45.1843 96.4147 45.1843 95.7842C45.1843 95.7512 45.1876 95.7182 45.1909 95.6785H42.8404L37.7036 110.485L36.8849 112.908C36.4689 114.03 35.944 115.113 35.3003 116.153C34.6631 117.19 34.1548 117.784 33.7784 117.929L32.7352 118.335C32.4315 118.454 32.2697 118.705 32.2565 119.084V119.144C32.2565 119.606 32.5074 119.837 33.0158 119.837C33.1083 119.837 33.6332 119.758 34.5905 119.596C34.8876 119.557 35.3102 119.537 35.8549 119.537C37.0368 119.537 38.0766 119.56 38.9779 119.613L41.675 119.798C42.1075 119.824 42.4277 119.837 42.6324 119.837C43.1771 119.837 43.4379 119.629 43.4181 119.213C43.4181 119.17 43.4115 119.124 43.4049 119.084H42.015H43.4049C43.3389 118.715 43.0516 118.464 42.5432 118.335C41.236 117.969 40.3677 117.53 39.9221 117.018C39.4764 116.503 39.2552 115.674 39.2552 114.532C39.2552 113.334 39.6778 111.508 40.5196 109.045L42.3914 103.668C42.9559 102.01 43.4049 101.033 43.7449 100.743C44.0849 100.449 44.9499 100.3 46.343 100.3H56.567C57.6201 100.3 58.2572 100.406 58.485 100.614C58.7095 100.822 59.0231 101.598 59.416 102.941L60.8388 107.778C61.991 111.64 62.5687 114.215 62.5687 115.513C62.5687 116.925 62.0966 117.757 61.1491 118.002L60.271 118.259C59.7956 118.385 59.5612 118.649 59.5612 119.048V119.084C59.5744 119.586 59.8154 119.837 60.2941 119.837C60.4823 119.837 60.7728 119.788 61.169 119.685C61.8292 119.537 63.4633 119.461 66.0779 119.461C67.4314 119.461 68.6628 119.444 69.6664 119.448C70.4026 119.481 77.8601 119.788 78.4543 119.873C79.207 119.969 79.7187 120.032 79.9861 120.065C80.4549 120.085 80.6827 119.85 80.6662 119.349C80.6596 119.253 80.6398 119.164 80.6068 119.084C80.4945 118.827 80.2337 118.655 79.8178 118.56C77.7314 118.121 76.3944 117.447 75.81 116.543C75.229 115.638 74.9352 113.779 74.9352 110.967V97.5372C74.9352 96.9759 75.1102 96.692 75.4568 96.692C75.6879 96.692 75.919 96.8274 76.1501 97.0981L76.7146 97.9069L91.8707 118.193L92.3526 118.88C92.4022 118.952 92.4583 119.022 92.5144 119.084H121.816C122.912 118.579 123.929 117.995 124.867 117.315C127.841 115.113 130.185 111.97 131.895 107.887Z" fill="#1E1E23"></path>
  <path d="M79.3335 92.5282C79.3533 92.2311 79.5679 91.8415 79.9805 91.3497L89.6301 79.9735C94.4367 74.3548 97.6885 71.2648 99.382 70.7003C100.306 70.4131 100.759 70.0763 100.739 69.6901C100.703 69.2114 100.429 68.9704 99.9168 68.9704C99.765 68.9704 99.4777 69.0232 99.042 69.1223C98.6623 69.1982 97.8799 69.2345 96.6915 69.2345L94.5688 69.2708L91.9641 69.1718C90.9836 69.1718 90.0989 69.1289 89.3066 69.0398C88.9665 68.9935 88.7123 68.9704 88.5407 68.9704C87.9564 68.9704 87.6625 69.218 87.6625 69.7099C87.6625 70.1556 88.0917 70.4593 88.9467 70.6244C90.3035 70.9446 90.9803 71.6676 90.9803 72.79C90.9803 74.0907 90.0494 75.8139 88.1874 77.973L76.0652 92.1156L75.6427 92.5579L75.1904 92.9607C75.0187 92.9607 74.9362 92.7032 74.9362 92.1849V77.7848C74.9362 75.2725 75.0946 73.5955 75.4083 72.7471C75.7186 71.8953 76.4746 71.1394 77.6663 70.4725C78.1219 70.2414 78.3497 69.9608 78.3497 69.634C78.3497 69.1685 78.1252 68.944 77.6696 68.9704C77.5178 68.9704 77.0622 69.0365 76.3062 69.1586C75.8936 69.1916 75.4017 69.2081 74.8338 69.2081L72.7078 69.3006L71.658 69.3501C69.5981 69.3501 68.0861 69.2642 67.1188 69.0959C66.7227 69.0133 66.3826 68.9704 66.0987 68.9704C65.5903 68.9704 65.3328 69.2213 65.3328 69.7231C65.3328 70.0797 65.5771 70.3305 66.069 70.4725L67.4555 70.8455C68.6803 71.1856 69.5122 71.8821 69.9447 72.9253C70.3805 73.9751 70.5983 75.8139 70.5983 78.445V95.6776H81.1921L80.0102 94.0732C79.5414 93.4096 79.3137 92.8947 79.3335 92.5282Z" fill="#1E1E23"></path>
</svg>
