<?xml version="1.0" encoding="UTF-8"?>
<svg xmlns="http://www.w3.org/2000/svg" xmlns:xlink="http://www.w3.org/1999/xlink" version="1.1" id="Layer_1" x="0px" y="0px" viewBox="0 0 50 50" style="enable-background:new 0 0 50 50;" xml:space="preserve">
<style type="text/css">
	.st0{fill:#1E1E23;}
</style>
<path class="st0" d="M33.26,19.52c-0.13,0.1-2.39,1.37-2.39,4.2c0,3.27,2.88,4.43,2.96,4.46c-0.01,0.07-0.46,1.59-1.52,3.13  c-0.94,1.36-1.93,2.72-3.43,2.72c-1.5,0-1.89-0.87-3.62-0.87c-1.69,0-2.29,0.9-3.66,0.9c-1.37,0-2.33-1.26-3.43-2.8  c-1.28-1.81-2.31-4.63-2.31-7.31c0-4.29,2.79-6.57,5.53-6.57c1.46,0,2.67,0.96,3.59,0.96c0.87,0,2.23-1.02,3.89-1.02  C29.51,17.33,31.77,17.39,33.26,19.52L33.26,19.52z M28.09,15.52c0.69-0.81,1.17-1.94,1.17-3.07c0-0.16-0.01-0.32-0.04-0.44  c-1.12,0.04-2.45,0.74-3.25,1.67c-0.63,0.72-1.22,1.84-1.22,2.99c0,0.17,0.03,0.34,0.04,0.4c0.07,0.01,0.19,0.03,0.3,0.03  C26.11,17.09,27.37,16.42,28.09,15.52L28.09,15.52z"></path>
</svg>
