<?xml version="1.0" encoding="UTF-8"?>
<svg xmlns="http://www.w3.org/2000/svg" width="200" height="200" viewBox="0 0 200 200" fill="none">
  <path d="M31 80.2857V119.714H70.4286V80.2857H31ZM42.0521 89.1301H50.444C52.9169 89.1301 54.8326 89.6166 56.1907 90.5896C57.5488 91.5423 58.2278 92.9204 58.2278 94.7245C58.2278 95.7583 57.9844 96.6603 57.4979 97.4306C57.0114 98.1806 56.2919 98.7786 55.3392 99.2246C56.6568 99.6503 57.6601 100.329 58.3493 101.262C59.0588 102.174 59.4134 103.289 59.4134 104.606C59.4134 105.904 59.069 107.019 58.3798 107.951C57.7109 108.883 56.748 109.603 55.4912 110.11C54.2345 110.616 52.7245 110.87 50.9609 110.87H42.0521V89.1301ZM46.5824 92.6569V98.0691H50.0184C51.1941 98.0691 52.0859 97.826 52.694 97.3395C53.3224 96.8327 53.6366 96.1333 53.6366 95.2415C53.6366 93.5185 52.4305 92.6569 50.0184 92.6569H46.5824ZM46.5824 101.475V107.343H50.5351C51.8932 107.343 52.9373 107.099 53.667 106.613C54.3968 106.106 54.7616 105.387 54.7616 104.454C54.7616 102.468 53.373 101.475 50.596 101.475H46.5824ZM129.571 80.2857V119.714H169V80.2857H129.571ZM150.905 88.6738C152.101 88.6738 153.226 88.8057 154.28 89.0692C155.354 89.3124 156.348 89.6773 157.26 90.1638V94.4814C156.429 93.9138 155.527 93.4881 154.554 93.2043C153.581 92.9003 152.557 92.7483 151.483 92.7483C150.003 92.7483 148.736 93.0319 147.682 93.5995C146.648 94.167 145.848 94.9881 145.28 96.0624C144.733 97.1368 144.459 98.4441 144.459 99.9847C144.459 101.525 144.723 102.843 145.25 103.937C145.797 105.012 146.577 105.832 147.591 106.4C148.625 106.968 149.871 107.251 151.331 107.251C153.56 107.251 155.618 106.653 157.503 105.457V109.684C156.611 110.191 155.577 110.586 154.402 110.87C153.226 111.174 151.99 111.326 150.692 111.326C148.969 111.326 147.419 111.072 146.04 110.566C144.662 110.039 143.496 109.289 142.544 108.316C141.591 107.343 140.861 106.157 140.354 104.758C139.848 103.339 139.594 101.748 139.594 99.9847C139.594 98.2617 139.858 96.7109 140.385 95.3326C140.912 93.9339 141.672 92.7381 142.665 91.7448C143.658 90.7516 144.844 89.9913 146.223 89.4643C147.621 88.9373 149.182 88.6738 150.905 88.6738V88.6738ZM80.2857 80.2857V119.714H119.714V80.2857H80.2857ZM91.3378 89.1301H99.7297C102.203 89.1301 104.118 89.6166 105.476 90.5896C106.834 91.5423 107.513 92.9204 107.513 94.7245C107.513 95.7583 107.27 96.6603 106.784 97.4306C106.297 98.1806 105.578 98.7786 104.625 99.2246C105.942 99.6503 106.946 100.329 107.635 101.262C108.344 102.174 108.699 103.289 108.699 104.606C108.699 105.904 108.355 107.019 107.665 107.951C106.997 108.883 106.034 109.603 104.777 110.11C103.52 110.616 102.01 110.87 100.247 110.87H91.3378V89.1301ZM95.8681 92.6569V98.0691H99.3041C100.48 98.0691 101.372 97.826 101.98 97.3395C102.608 96.8327 102.922 96.1333 102.922 95.2415C102.922 93.5185 101.716 92.6569 99.3041 92.6569H95.8681ZM95.8681 101.475V107.343H99.8208C101.179 107.343 102.223 107.099 102.953 106.613C103.682 106.106 104.047 105.387 104.047 104.454C104.047 102.468 102.659 101.475 99.8817 101.475H95.8681Z" fill="#1E1E23"></path>
</svg>
