<?xml version="1.0" encoding="UTF-8"?>
<svg xmlns="http://www.w3.org/2000/svg" width="200" height="200" viewBox="0 0 200 200" fill="none">
  <path d="M27.4418 100.018C27.4418 104.495 30.8696 107.922 35.3119 107.922C38.3196 107.922 40.4882 106.488 41.8522 104.739L44.93 107.468C42.9015 110.056 39.4738 111.874 35.2415 111.874C28.0367 111.874 23 106.628 23 99.9824C23 93.3372 27.9665 88.0905 35.1718 88.0905C38.5993 88.0905 41.537 89.3846 43.601 91.3784L40.7329 94.4213C39.334 93.0223 37.4103 92.0429 35.1366 92.0429C30.7647 92.0781 27.4418 95.6105 27.4418 100.017V100.018ZM60.6345 88.1257C67.7696 88.1257 72.7011 93.4419 72.7011 100.018C72.7011 106.593 67.7696 111.909 60.6694 111.909C53.5343 111.909 48.6374 106.593 48.6374 100.018C48.6022 93.4416 53.5345 88.1257 60.6345 88.1257ZM60.6345 107.922C65.0064 107.922 68.2243 104.355 68.2243 100.017C68.2243 95.6801 65.0064 92.1123 60.6345 92.1123C56.2623 92.1123 53.0446 95.6799 53.0446 100.017C53.0446 104.354 56.2972 107.921 60.6345 107.921V107.922ZM100.158 88.4401H104.599V107.572H116.142V111.56H100.122V88.4401H100.158ZM78.5072 88.4401H82.9491V107.572H94.4913V111.56H78.472V88.4401H78.5072V88.4401ZM122.542 88.4401H126.984V111.525H122.542V88.4401ZM134.889 88.4401H138.037L150.908 103.48V88.4401H155.35V111.525H152.202L139.331 96.4847V111.525H134.889V88.4401H134.889ZM163.674 105.369C165.004 106.838 166.997 107.922 169.131 107.922C171.125 107.922 172.489 106.698 172.489 105.019C172.489 102.046 168.186 101.696 165.109 99.8775C163.29 98.8282 161.856 97.2541 161.856 94.6308C161.855 90.5041 165.633 88.1257 169.48 88.1257C171.824 88.1257 173.993 88.6851 176.196 90.2938L173.887 93.582C172.978 92.7074 171.404 92.0779 169.9 92.0779C168.221 92.0779 166.332 92.8123 166.332 94.5961C166.332 98.3387 177 97.1842 177 104.949C177 109.041 173.328 111.875 169.165 111.875C166.053 111.875 163.185 110.58 160.806 108.412L163.674 105.369L163.674 105.369Z" fill="#1E1E23"></path>
</svg>
