<?xml version="1.0" encoding="UTF-8"?>
<svg xmlns="http://www.w3.org/2000/svg" width="200" height="200" viewBox="0 0 200 200" fill="none">
  <path d="M89.4915 109.823C85.272 110.545 82.8771 108.112 82.345 104.995C81.8128 101.878 83.2193 98.7985 87.4388 98.0382C91.6583 97.316 94.0152 99.7489 94.5854 102.828C95.1176 105.945 93.7111 109.062 89.4915 109.823ZM87.971 101.155C86.3364 101.421 86.4124 103.056 86.6025 104.234C86.7926 105.413 87.2868 106.971 88.9213 106.705C90.5559 106.439 90.4799 104.805 90.2518 103.588C90.0998 102.41 89.6056 100.851 87.971 101.155Z" fill="#1E1E23"></path>
  <path fill-rule="evenodd" clip-rule="evenodd" d="M87.4942 98.3533C85.4568 98.7207 84.1349 99.6388 83.3785 100.807C82.6185 101.98 82.4046 103.443 82.6603 104.941C82.9156 106.437 83.6136 107.745 84.7292 108.594C85.8398 109.439 87.3996 109.856 89.4362 109.507C91.4722 109.14 92.7943 108.214 93.5513 107.036C94.3116 105.853 94.5255 104.381 94.2705 102.884C93.9963 101.406 93.298 100.107 92.187 99.2623C91.081 98.4217 89.5307 98.005 87.4942 98.3533ZM92.5742 98.7529C93.8385 99.7138 94.6036 101.17 94.8999 102.77L94.9008 102.774L94.9007 102.774C95.1773 104.394 94.9539 106.037 94.0895 107.382C93.2215 108.732 91.731 109.744 89.5483 110.137L89.5455 110.138L89.5455 110.138C87.3633 110.511 85.6163 110.073 84.3418 109.103C83.0721 108.137 82.3065 106.67 82.0296 105.049C81.7531 103.429 81.9763 101.794 82.8415 100.459C83.71 99.1179 85.2006 98.1165 87.3821 97.7234L87.3848 97.7229L87.3848 97.7229C89.5672 97.3494 91.3046 97.788 92.5742 98.7529ZM90.5679 103.538C90.6825 104.152 90.7696 104.921 90.5944 105.585C90.5047 105.925 90.3433 106.249 90.072 106.508C89.7993 106.769 89.4352 106.946 88.9727 107.021C88.5104 107.096 88.1079 107.045 87.7636 106.888C87.4212 106.732 87.1587 106.482 86.9579 106.195C86.5631 105.629 86.3834 104.885 86.2867 104.285C86.1909 103.692 86.1129 102.929 86.294 102.268C86.3863 101.932 86.5489 101.609 86.8204 101.351C87.0926 101.092 87.4552 100.916 87.916 100.84C88.3764 100.755 88.7789 100.798 89.1237 100.948C89.4678 101.099 89.7307 101.347 89.93 101.633C90.3198 102.194 90.4895 102.936 90.5679 103.538ZM88.8675 101.535C88.656 101.442 88.3849 101.404 88.0295 101.47L88.026 101.471L88.0224 101.471C87.6677 101.529 87.4279 101.656 87.2613 101.815C87.0933 101.975 86.9803 102.185 86.911 102.437C86.769 102.955 86.824 103.599 86.9183 104.184C87.0117 104.763 87.1741 105.387 87.4825 105.829C87.6334 106.045 87.8128 106.208 88.0287 106.306C88.2428 106.404 88.515 106.447 88.87 106.39C89.2248 106.332 89.4641 106.204 89.6298 106.046C89.7969 105.886 89.9087 105.676 89.9758 105.422C90.1133 104.901 90.0501 104.248 89.9374 103.647L89.9357 103.638L89.9346 103.629C89.8604 103.054 89.7067 102.433 89.4047 101.998C89.2572 101.786 89.0805 101.628 88.8675 101.535Z" fill="#1E1E23"></path>
  <path d="M95.0035 97.0118L99.109 96.2896L99.3371 97.506H99.3751C99.7933 96.7077 100.287 95.7954 102.378 95.4153C105.533 94.8451 107.624 97.7341 108.118 100.547C108.574 103.17 108.118 106.553 104.355 107.2C103.062 107.428 101.846 107.047 101.01 106.211H100.972L101.808 111.077L97.5505 111.837L95.0035 97.0118ZM102.492 104.349C104.013 104.082 104.127 102.562 103.899 101.269C103.671 99.9389 103.062 98.5324 101.542 98.7985C100.021 99.0646 99.9073 100.585 100.135 101.916C100.363 103.208 100.934 104.615 102.492 104.349Z" fill="#1E1E23"></path>
  <path fill-rule="evenodd" clip-rule="evenodd" d="M106.017 96.936C105.099 95.9956 103.891 95.4671 102.435 95.73C101.431 95.9127 100.841 96.2171 100.458 96.5465C100.072 96.8781 99.8674 97.2556 99.6584 97.6545L99.5686 97.8259H99.0716L98.8529 96.6595L95.3727 97.2717L97.8112 111.466L101.439 110.818L100.592 105.891H101.142L101.236 105.985C101.994 106.743 103.103 107.096 104.299 106.885L104.301 106.884C106.075 106.58 107.039 105.645 107.524 104.491C108.019 103.314 108.026 101.882 107.803 100.602C107.565 99.2468 106.943 97.8841 106.017 96.936ZM106.475 96.489C107.507 97.546 108.177 99.0343 108.433 100.492L108.433 100.492C108.667 101.836 108.674 103.406 108.114 104.739C107.544 106.093 106.399 107.173 104.41 107.515C103.319 107.707 102.268 107.497 101.424 106.954L102.177 111.336L97.2897 112.209L94.6343 96.752L99.3651 95.9197L99.5033 96.6567C99.6458 96.4547 99.8189 96.2518 100.041 96.0612C100.532 95.6398 101.235 95.298 102.321 95.1006C104.021 94.7934 105.435 95.4242 106.475 96.489ZM103.459 99.2409C103.876 99.7867 104.097 100.532 104.214 101.215C104.331 101.881 104.369 102.646 104.155 103.294C104.046 103.623 103.87 103.93 103.6 104.174C103.33 104.419 102.98 104.588 102.547 104.664L102.546 104.664C102.105 104.739 101.715 104.699 101.376 104.558C101.038 104.417 100.77 104.186 100.56 103.91C100.147 103.369 99.937 102.632 99.8203 101.971L99.8201 101.97C99.7028 101.286 99.6647 100.512 99.8789 99.8583C99.9876 99.5268 100.164 99.2191 100.433 98.974C100.704 98.7278 101.054 98.5591 101.487 98.4834C101.92 98.4076 102.306 98.4486 102.643 98.5903C102.979 98.7313 103.247 98.9638 103.459 99.2409ZM102.396 99.1802C102.184 99.0914 101.924 99.0563 101.597 99.1136C101.269 99.171 101.035 99.2921 100.864 99.4475C100.691 99.6039 100.568 99.8093 100.487 100.058C100.321 100.564 100.34 101.215 100.451 101.861C100.562 102.492 100.751 103.105 101.069 103.523C101.225 103.727 101.407 103.878 101.621 103.967C101.834 104.055 102.1 104.091 102.438 104.033C102.765 103.976 103 103.855 103.171 103.7C103.343 103.544 103.466 103.339 103.547 103.093C103.713 102.592 103.694 101.951 103.584 101.325L103.583 101.323C103.472 100.676 103.275 100.053 102.951 99.6296C102.792 99.422 102.609 99.2696 102.396 99.1802Z" fill="#1E1E23"></path>
  <path d="M108.574 94.655L112.68 93.9327L112.908 95.1492H112.946C113.364 94.3509 113.858 93.4386 115.949 93.0584C119.104 92.4882 121.195 95.3773 121.689 98.1903C122.145 100.813 121.689 104.196 117.926 104.843C116.633 105.071 115.417 104.691 114.581 103.854H114.543L115.379 108.72L111.121 109.48L108.574 94.655ZM116.025 101.954C117.546 101.688 117.66 100.167 117.432 98.8745C117.203 97.544 116.595 96.1375 115.075 96.4036C113.554 96.6697 113.44 98.1903 113.668 99.5208C113.896 100.851 114.504 102.22 116.025 101.954Z" fill="#1E1E23"></path>
  <path fill-rule="evenodd" clip-rule="evenodd" d="M119.588 94.5791C118.67 93.6388 117.462 93.1102 116.006 93.3732C115.002 93.5559 114.412 93.8603 114.029 94.1897C113.643 94.5213 113.438 94.8987 113.229 95.2976L113.14 95.4691H112.643L112.424 94.3026L108.944 94.9149L111.382 109.109L115.01 108.461L114.163 103.534H114.713L114.807 103.628C115.565 104.386 116.674 104.739 117.87 104.528L117.872 104.527C119.646 104.223 120.61 103.288 121.095 102.134C121.589 100.958 121.597 99.525 121.374 98.2454C121.136 96.8899 120.514 95.5273 119.588 94.5791ZM120.046 94.1322C121.078 95.1892 121.748 96.6775 122.004 98.135L122.004 98.1355C122.238 99.4787 122.245 101.049 121.685 102.382C121.115 103.737 119.97 104.816 117.981 105.158C116.89 105.35 115.839 105.14 114.995 104.597L115.748 108.979L110.861 109.852L108.205 94.3952L112.936 93.5629L113.074 94.2999C113.217 94.0978 113.39 93.895 113.612 93.7043C114.103 93.283 114.806 92.9412 115.892 92.7437C117.592 92.4365 119.006 93.0673 120.046 94.1322ZM116.992 96.8461C117.409 97.3919 117.63 98.1367 117.747 98.8197C117.864 99.4861 117.902 100.251 117.688 100.899C117.579 101.229 117.403 101.535 117.133 101.779C116.862 102.024 116.513 102.193 116.08 102.269C115.649 102.344 115.264 102.306 114.927 102.169C114.591 102.033 114.323 101.805 114.11 101.533C113.691 100.995 113.47 100.259 113.353 99.5748C113.236 98.8908 113.198 98.1167 113.412 97.4634C113.52 97.132 113.697 96.8242 113.966 96.5791C114.237 96.3329 114.587 96.1643 115.02 96.0886C115.453 96.0128 115.839 96.0537 116.176 96.1954C116.512 96.3365 116.78 96.569 116.992 96.8461ZM115.929 96.7853C115.717 96.6966 115.457 96.6615 115.13 96.7188C114.802 96.7761 114.568 96.8973 114.397 97.0526C114.224 97.209 114.101 97.4145 114.02 97.6627C113.854 98.1689 113.873 98.8203 113.984 99.4667C114.094 100.114 114.292 100.726 114.614 101.139C114.772 101.342 114.955 101.49 115.168 101.577C115.38 101.663 115.641 101.696 115.97 101.639C116.298 101.581 116.533 101.46 116.704 101.305C116.876 101.149 116.999 100.944 117.08 100.699C117.246 100.198 117.227 99.556 117.117 98.9301L117.116 98.9286C117.005 98.2814 116.808 97.6581 116.484 97.2347C116.325 97.0271 116.141 96.8747 115.929 96.7853Z" fill="#1E1E23"></path>
  <path d="M134.576 99.0646C134.728 99.9009 134.918 100.851 135.526 101.497L131.155 102.258C131.003 101.992 130.851 101.535 130.813 101.231H130.775C130.052 102.41 128.798 102.942 127.391 103.208C125.225 103.588 123.248 102.866 122.83 100.509C122.221 96.9738 126.365 96.3656 128.494 95.5673C129.064 95.3392 129.596 95.0732 129.482 94.3889C129.368 93.6286 128.57 93.4766 127.885 93.5906C126.555 93.8187 126.441 94.541 126.479 94.9971L122.488 95.6814C122.259 94.0848 122.906 93.0204 123.894 92.3362C124.882 91.6139 126.289 91.2338 127.619 91.0057C132.979 90.0553 133.321 92.2981 133.702 94.4649L134.576 99.0646ZM130.014 97.2399C129.558 97.5821 128.988 97.8482 128.418 98.0762C127.505 98.4564 127.049 98.7985 127.201 99.5208C127.277 100.053 127.962 100.471 128.722 100.319C129.71 100.167 130.356 99.4447 130.204 98.2663L130.014 97.2399Z" fill="#1E1E23"></path>
  <path fill-rule="evenodd" clip-rule="evenodd" d="M132.316 91.8056C131.627 91.1945 130.331 90.8497 127.675 91.3206L127.673 91.321C126.352 91.5475 125.008 91.9182 124.083 92.5944L124.079 92.5968L124.076 92.5992C123.619 92.9156 123.253 93.3116 123.025 93.8016C122.831 94.2164 122.731 94.7126 122.77 95.3084L126.158 94.7275C126.176 94.5088 126.24 94.259 126.409 94.0224C126.663 93.6658 127.114 93.3983 127.831 93.2753L127.833 93.2751C128.21 93.2123 128.644 93.2171 129.016 93.3646C129.404 93.5188 129.721 93.8315 129.798 94.3388C129.872 94.788 129.729 95.1303 129.465 95.3811C129.225 95.6093 128.894 95.7518 128.612 95.8643L128.609 95.8656L128.606 95.8668C128.265 95.9948 127.865 96.1205 127.451 96.2508C127.211 96.3262 126.966 96.403 126.726 96.4828C126.053 96.7056 125.378 96.9591 124.793 97.2903C124.208 97.6214 123.731 98.0193 123.434 98.521C123.141 99.0153 123.004 99.6374 123.145 100.454C123.338 101.542 123.881 102.224 124.603 102.602C125.338 102.986 126.296 103.075 127.334 102.893C128.706 102.633 129.85 102.128 130.502 101.064L130.595 100.911H131.095L131.13 101.192C131.155 101.39 131.24 101.675 131.336 101.901L134.954 101.272C134.536 100.601 134.382 99.7873 134.261 99.1231C134.261 99.1227 134.261 99.1223 134.261 99.1218L133.386 94.5202C133.191 93.4058 133.019 92.4302 132.316 91.8056ZM134.016 94.4074C134.01 94.3744 134.005 94.3412 133.999 94.3079C133.819 93.2789 133.614 92.1024 132.74 91.3271C131.823 90.5128 130.268 90.2114 127.564 90.6905C126.226 90.92 124.759 91.3089 123.709 92.0755C123.179 92.443 122.729 92.9206 122.445 93.5316C122.159 94.1455 122.049 94.8744 122.171 95.7266L122.217 96.0522L126.822 95.2629L126.798 94.9706C126.782 94.779 126.802 94.573 126.929 94.3943C127.055 94.2188 127.326 94.0112 127.939 93.906C128.246 93.8549 128.553 93.8691 128.78 93.9592C128.989 94.0423 129.128 94.1849 129.166 94.4364L129.166 94.4415C129.205 94.6754 129.14 94.8074 129.024 94.9173C128.885 95.0497 128.665 95.154 128.378 95.269C128.051 95.3914 127.684 95.5067 127.286 95.6319C127.043 95.7082 126.788 95.7881 126.525 95.8754C125.841 96.1017 125.118 96.3708 124.478 96.7335C123.837 97.0961 123.258 97.5629 122.884 98.1946C122.504 98.8334 122.351 99.6128 122.514 100.563L122.515 100.565C122.74 101.833 123.394 102.691 124.306 103.168C125.205 103.639 126.318 103.721 127.447 103.523L127.451 103.522C128.678 103.29 129.85 102.85 130.66 101.925C130.724 102.107 130.8 102.281 130.877 102.416L130.988 102.611L136.166 101.711L135.759 101.278C135.226 100.712 135.046 99.86 134.891 99.0074L134.016 94.4074ZM130.235 96.6746L130.52 98.2167L130.522 98.2254C130.606 98.8816 130.471 99.446 130.144 99.8723C129.82 100.295 129.333 100.547 128.777 100.634C128.327 100.723 127.891 100.645 127.55 100.457C127.215 100.271 126.945 99.9622 126.886 99.5769C126.842 99.3632 126.839 99.1588 126.889 98.9647C126.94 98.7659 127.041 98.597 127.177 98.4516C127.437 98.1734 127.838 97.9713 128.295 97.781L128.299 97.7792C128.862 97.5539 129.401 97.3003 129.822 96.984L130.235 96.6746ZM128.539 98.3724C128.084 98.5618 127.801 98.7206 127.644 98.8888C127.571 98.9668 127.529 99.0425 127.509 99.1229C127.488 99.205 127.484 99.311 127.514 99.4549L127.516 99.4651L127.518 99.4755C127.538 99.6173 127.647 99.7792 127.859 99.8964C128.068 100.011 128.352 100.067 128.659 100.005L128.666 100.004L128.673 100.003C129.103 99.9368 129.43 99.752 129.637 99.4829C129.841 99.2169 129.953 98.8336 129.888 98.3157L129.788 97.7747C129.394 98.0101 128.96 98.2039 128.539 98.3724Z" fill="#1E1E23"></path>
  <path d="M134.234 85.8358L146.132 83.745L146.816 87.6985L139.67 88.9529L140.012 90.8536L146.132 89.7892L146.778 93.4766L140.62 94.5409L141.646 100.395L136.895 101.231L134.234 85.8358Z" fill="#1E1E23"></path>
  <path fill-rule="evenodd" clip-rule="evenodd" d="M146.393 83.3745L147.186 87.9584L140.042 89.2125L140.27 90.484L146.392 89.4193L147.149 93.7372L140.991 94.8016L142.017 100.655L136.634 101.602L133.864 85.576L146.393 83.3745ZM134.603 86.0957L137.155 100.861L141.276 100.135L140.25 94.2804L146.408 93.216L145.872 90.1591L139.753 91.2233L139.298 88.6934L146.447 87.4386L145.872 84.1156L134.603 86.0957Z" fill="#1E1E23"></path>
  <path d="M152.822 93.6667C153.165 94.9211 154.039 95.7194 155.369 95.4533C156.054 95.3393 156.776 94.9591 157.004 94.3509L160.995 93.6667C160.539 96.2516 158.41 97.7721 155.864 98.2283C152.29 98.8365 149.211 97.2019 148.565 93.4766C147.995 90.2074 149.895 87.1283 153.431 86.5201C157.878 85.7598 160.235 87.8886 160.995 92.2601L152.822 93.6667ZM156.51 90.7396C156.32 89.7132 155.407 88.991 154.305 89.181C153.05 89.4091 152.404 90.2074 152.442 91.4619L156.51 90.7396Z" fill="#1E1E23"></path>
  <path fill-rule="evenodd" clip-rule="evenodd" d="M158.397 87.7163C157.25 86.8067 155.651 86.465 153.485 86.8353C150.136 87.4115 148.338 90.3144 148.88 93.4216C149.189 95.2022 150.072 96.4591 151.284 97.2051C152.502 97.9544 154.082 98.2067 155.809 97.9132C158.114 97.5 159.999 96.2025 160.58 94.0624L157.225 94.6375C157.065 94.9416 156.811 95.1806 156.528 95.3582C156.194 95.5681 155.804 95.7046 155.427 95.768C154.684 95.9154 154.039 95.7682 153.533 95.3854C153.033 95.0078 152.698 94.4245 152.514 93.7508L152.421 93.4111L160.622 91.9998C160.231 90.0176 159.494 88.5862 158.397 87.7163ZM158.795 87.215C160.121 88.2669 160.924 89.98 161.311 92.2053L161.366 92.521L153.242 93.9191C153.404 94.3361 153.635 94.6609 153.918 94.8749C154.266 95.1375 154.722 95.2566 155.307 95.1396L155.312 95.1386L155.317 95.1378C155.623 95.0867 155.933 94.9764 156.188 94.8166C156.442 94.6563 156.622 94.4584 156.705 94.2386L156.769 94.0666L161.39 93.2745L161.311 93.7222C160.824 96.4821 158.55 98.0721 155.92 98.5432L155.917 98.5437C154.071 98.8579 152.326 98.597 150.949 97.75C149.567 96.8994 148.587 95.476 148.25 93.5312C147.652 90.1002 149.655 86.8451 153.377 86.2048C155.658 85.8148 157.461 86.1574 158.795 87.215ZM154.251 88.8658C155.539 88.6436 156.605 89.4966 156.824 90.6813L156.883 90.9982L152.134 91.8415L152.123 91.4715C152.102 90.7871 152.268 90.1927 152.641 89.7345C153.014 89.2765 153.566 88.9903 154.248 88.8663L154.251 88.8658ZM154.361 89.496C153.789 89.6002 153.391 89.827 153.137 90.1386C152.942 90.378 152.815 90.6884 152.775 91.0779L156.108 90.4861C155.843 89.794 155.162 89.3585 154.361 89.496Z" fill="#1E1E23"></path>
  <path d="M165.975 91.3858C166.317 92.6402 167.192 93.4385 168.522 93.1724C169.207 93.0584 169.929 92.6782 170.157 92.07L174.148 91.3858C173.692 93.9707 171.563 95.4913 169.016 95.9474C165.443 96.5556 162.364 94.921 161.718 91.1957C161.148 87.9265 163.048 84.8474 166.584 84.2392C171.031 83.4789 173.388 85.6077 174.148 89.9793L165.975 91.3858ZM169.701 88.4207C169.511 87.3943 168.598 86.6721 167.496 86.8621C166.203 87.0902 165.595 87.8885 165.633 89.143L169.701 88.4207Z" fill="#1E1E23"></path>
  <path fill-rule="evenodd" clip-rule="evenodd" d="M171.55 85.4354C170.403 84.5258 168.804 84.1842 166.637 84.5545C163.289 85.1307 161.491 88.0335 162.033 91.1408C162.342 92.9213 163.225 94.1782 164.437 94.9242C165.655 95.6735 167.235 95.9259 168.961 95.6323C171.266 95.2191 173.152 93.9216 173.732 91.7816L170.378 92.3567C170.218 92.6607 169.963 92.8997 169.681 93.0773C169.347 93.2872 168.956 93.4237 168.58 93.4871C167.836 93.6345 167.192 93.4874 166.685 93.1045C166.185 92.7269 165.85 92.1437 165.667 91.47L165.574 91.1302L173.775 89.719C173.384 87.7368 172.647 86.3053 171.55 85.4354ZM171.947 84.9342C173.274 85.986 174.076 87.6991 174.463 89.9245L174.518 90.2402L166.394 91.6382C166.557 92.0552 166.788 92.38 167.071 92.5941C167.418 92.8566 167.874 92.9758 168.459 92.8588L168.464 92.8577L168.469 92.8569C168.776 92.8059 169.086 92.6956 169.34 92.5358C169.595 92.3754 169.775 92.1775 169.857 91.9577L169.922 91.7858L174.542 90.9937L174.463 91.4414C173.976 94.2012 171.703 95.7912 169.073 96.2623L169.07 96.2628C167.224 96.5771 165.478 96.3162 164.102 95.4691C162.719 94.6185 161.74 93.1952 161.402 91.2504C160.804 87.8194 162.807 84.5642 166.529 83.9239C168.81 83.534 170.614 83.8765 171.947 84.9342ZM167.441 86.5469C168.73 86.3247 169.796 87.1777 170.015 88.3625L170.074 88.6793L165.324 89.5226L165.313 89.1527C165.293 88.4726 165.447 87.8777 165.816 87.4175C166.186 86.9566 166.74 86.6708 167.44 86.5471L167.441 86.5469ZM167.551 87.1773C166.959 87.2818 166.563 87.5091 166.315 87.8179C166.124 88.0562 166.002 88.3668 165.964 88.7593L169.298 88.1672C169.033 87.4749 168.352 87.0394 167.551 87.1773Z" fill="#1E1E23"></path>
  <path d="M178.018 78.1595L173.749 78.9053L176.444 94.3336L180.713 93.5878L178.018 78.1595Z" fill="#1E1E23"></path>
  <path fill-rule="evenodd" clip-rule="evenodd" d="M173.379 78.6452L178.278 77.7893L181.083 93.8479L176.184 94.7038L173.379 78.6452ZM174.119 79.1654L176.704 93.9635L180.343 93.3277L177.758 78.5297L174.119 79.1654Z" fill="#1E1E23"></path>
  <path d="M189.202 87.9265L184.754 88.6488L182.017 74.8498L187.377 73.9755L189.202 87.9265Z" fill="#1E1E23"></path>
  <path d="M190 93.9708L185.971 94.617L184.982 90.2074L189.468 89.4471L190 93.9708Z" fill="#1E1E23"></path>
  <path d="M62.0456 102.866C61.9316 102.866 61.8935 102.714 61.7415 102.714C61.7035 102.866 61.9696 102.98 62.0456 102.866Z" fill="#808080"></path>
  <path d="M51.8959 115.829C51.7819 115.829 51.7438 115.753 51.6678 115.715C51.4397 115.677 51.3257 115.753 51.1356 115.753C50.4514 116.247 49.1969 116.171 48.6267 116.779C48.7788 117.197 48.7788 117.501 48.3986 117.653C48.8928 116.627 47.9045 116.323 47.7524 115.525C47.9425 115.296 47.9045 115.106 48.0945 114.878C48.4747 114.422 49.349 114.346 49.463 113.89C49.6531 113.168 48.8548 112.712 48.3986 112.369C49.273 111.571 48.5127 111.077 47.5623 110.849C47.0682 110.735 46.4979 110.659 45.9277 110.507C45.0534 110.241 43.875 110.127 43.761 109.176C43.6469 109.062 43.761 108.72 43.7229 108.53C43.761 108.302 43.799 108.112 43.761 107.846C43.6469 107.694 43.4188 107.694 43.1147 107.694C42.8106 107.77 42.3544 108.036 42.1264 107.884C42.1264 107.58 42.2784 107.428 42.3544 107.2C42.6586 107.352 43.0387 107.466 43.3808 107.58C43.4568 107.618 43.4949 107.694 43.6089 107.694C43.761 107.732 43.761 107.618 43.913 107.656C44.1411 108.112 44.2931 108.644 44.6353 108.948C45.6997 109.1 45.7377 108.226 46.2699 107.808C46.688 107.922 46.8401 108.34 46.9541 108.758C47.4103 108.948 47.9805 108.948 48.4747 109.1C48.5507 109.29 48.5507 109.556 48.6267 109.746C50.0332 110.127 50.4514 108.682 50.4894 107.39V106.173C50.2993 105.831 50.0712 105.527 49.8432 105.223C50.2233 104.995 50.0712 104.463 49.8432 104.196C50.0332 104.234 50.0712 104.044 50.2993 104.082C50.7175 104.425 50.6034 104.957 50.5274 105.603C50.8695 105.983 51.0596 106.743 50.7175 107.276C50.7175 107.58 50.6414 107.998 50.8695 108.112C51.5538 108.264 51.3637 107.086 51.8199 107.047C52.2 107.009 52.124 107.39 52.276 107.732C51.1736 107.352 50.6795 109.404 51.2117 110.203C51.4397 110.393 51.6298 110.583 51.7819 110.811C52.3901 111.609 52.8843 112.483 53.3404 113.434C53.5685 113.738 53.8346 114.004 54.1387 114.232C54.3288 114.308 54.4428 114.422 54.6329 114.46C54.6329 114.574 54.823 114.498 54.937 114.498C54.937 114.612 55.013 114.688 55.0891 114.726V114.764C55.2411 114.954 55.3171 115.182 55.5452 115.296V115.334C55.5832 115.373 55.5832 115.411 55.6593 115.449C55.6213 115.525 55.5832 115.411 55.5072 115.449C54.975 115.258 54.7469 115.829 54.4428 116.133C54.1767 116.399 53.9486 116.779 53.6065 116.817C53.1504 116.855 52.9603 116.513 52.276 116.513C52.086 116.361 52.0099 116.095 51.8959 115.829ZM44.027 116.931C43.6089 116.893 43.4188 116.627 43.0387 116.551C43.0387 116.361 43.1907 116.285 43.1907 116.057C43.6089 115.829 44.1031 115.905 44.5592 116.057C44.7113 116.095 44.9394 116.057 45.0534 116.171H45.2435C45.2055 116.513 44.4072 116.627 44.027 116.931ZM78.8857 98.9125C78.9237 98.8745 78.9617 98.8745 78.9997 98.8365C78.9617 98.8365 78.9237 98.8365 78.8857 98.8365C78.9237 98.8365 78.9617 98.8365 78.9997 98.8365C78.9237 98.8365 78.9237 98.8745 78.8857 98.9125ZM74.4381 109.366C74.4001 109.328 74.4001 109.29 74.3621 109.252C74.4001 109.29 74.4381 109.328 74.4381 109.366ZM56.6476 115.715C56.6096 115.677 56.8757 115.905 56.7237 115.867C56.7617 115.943 56.7997 116.019 56.8757 116.095C56.7237 115.981 56.5716 115.867 56.3815 115.753C56.5716 115.791 56.5336 115.753 56.6856 115.867C56.4576 115.639 56.1534 115.563 55.6973 115.563C56.1154 115.525 56.4195 115.525 56.6476 115.715ZM52.5421 109.252C52.6182 109.176 52.7702 109.176 52.9223 109.138C52.9983 109.29 53.2264 109.442 53.0743 109.632H53.0363C52.9603 109.746 52.8462 109.899 52.6562 109.861C52.6182 109.67 52.3141 109.48 52.5421 109.252ZM48.6647 100.851C49.1209 101.231 49.349 102.068 49.273 102.828C49.1589 102.828 49.0449 102.828 49.0449 102.942C48.9688 102.676 48.9688 102.41 49.0449 102.22C48.8548 101.764 48.4366 101.383 48.6647 100.851ZM50.6795 102.98C50.6795 103.056 50.6034 103.094 50.6414 103.17C50.4134 103.208 50.3373 103.056 50.1853 103.018C50.2613 102.676 50.4134 102.372 50.6795 102.22C50.8695 102.296 50.7935 102.866 50.6795 102.98ZM70.4846 78.3471C70.0665 78.6132 69.8764 79.1074 69.4203 79.3354C69.3822 79.2214 69.3062 79.1834 69.2682 79.1074C69.6483 78.7652 69.9144 78.2711 69.9525 77.5868C69.7624 77.3587 69.4583 77.2447 69.5723 76.7125C69.8384 76.4844 70.2566 76.4084 70.5607 76.2183C71.2829 76.6745 70.1045 77.4347 70.4846 78.3471ZM79.4559 108.834C79.4559 108.758 79.4559 108.72 79.4939 108.644C79.5699 108.72 79.608 108.758 79.722 108.796C79.722 108.568 79.9121 108.302 79.76 107.96C79.684 107.96 79.646 107.96 79.5699 107.96C79.646 107.466 79.684 107.162 79.684 107.162L76.6049 107.428C76.6049 107.428 76.5288 107.618 76.4148 107.846C75.9586 108.264 75.4264 108.606 74.8942 108.948C74.7422 109.024 75.0843 109.176 74.8942 109.29C74.248 109.404 74.134 108.606 74.21 107.884C74.134 107.846 74.0579 107.808 73.9439 107.77C73.9439 107.732 73.9059 107.694 73.9059 107.694C73.8299 107.694 73.7538 107.694 73.6398 107.732C73.3357 107.694 72.9936 107.732 72.7275 107.846C72.1953 107.884 71.9292 107.96 71.435 107.998C71.397 108.416 72.3473 108.834 72.1573 109.1H72.1192C72.1192 109.29 72.1192 109.404 72.0812 109.556L72.0432 109.861H72.0812C71.9672 109.937 71.6631 110.127 71.6251 110.469C71.435 111.457 71.0549 111.875 70.5227 112.217C70.5987 112.141 70.6367 112.065 70.7127 111.951C70.5987 112.027 70.5227 112.141 70.4466 112.255C70.2946 112.103 70.1805 112.027 70.0665 112.065C70.1045 112.255 70.0665 112.407 69.9905 112.521C69.8764 112.712 69.7244 112.864 69.5723 112.94C69.5343 112.94 69.4963 112.94 69.4583 112.94C69.2682 113.016 68.9261 113.168 68.66 113.168C69.2302 113.168 68.3939 113.434 67.7477 113.434C67.6336 113.548 67.4816 113.51 67.2915 113.548C66.9494 113.662 66.9113 113.89 66.9113 113.89L66.2271 113.814L65.6569 113.738C65.6569 113.358 65.3148 113.472 65.1627 112.864C65.0107 112.179 64.6305 111.989 64.2124 111.647C64.0603 111.495 64.0603 111.267 63.9083 111.267C63.7562 111.267 63.6042 111.609 63.4521 111.837C63.4141 111.875 63.3761 111.913 63.3381 111.951L63.3 111.989L63.3381 111.951C63.3 111.989 63.186 111.913 63.148 111.951C62.9959 112.027 63.0339 112.217 62.8439 112.179C62.6918 111.875 63.0339 111.723 62.9959 111.343V111.115C62.8819 110.013 62.3117 109.556 62.0836 108.378C61.7795 106.857 62.0456 105.375 62.2357 104.272C62.1596 104.196 62.0456 104.12 62.0456 103.968C62.0456 103.968 62.0456 103.968 62.0456 103.93C62.0456 103.93 62.0456 103.93 62.0456 103.892V103.854C62.0456 103.816 62.0836 103.778 62.0836 103.702C62.0456 103.398 61.8175 103.246 61.7035 103.018V102.98C61.7035 102.752 61.5514 102.638 61.5514 102.372C61.9315 102.296 61.8935 102.676 62.1976 102.676H62.3117C62.6538 102.714 62.7298 102.258 62.9579 101.954C63.7182 100.813 64.1744 99.8249 65.5429 99.4447C65.7709 99.4447 65.7329 99.1786 65.923 99.1406C66.4552 99.1026 66.6072 99.4067 66.9874 99.4827C67.2155 99.4827 67.3295 99.5588 67.4816 99.6348C67.6336 99.7869 67.8617 99.9009 68.1278 99.9769C68.1278 99.9009 68.0518 99.9389 68.0138 99.8629H67.9757C67.9377 99.7488 67.8237 99.7488 67.7096 99.7108C67.9757 99.7488 68.2038 99.8249 68.3939 99.9389C68.812 100.205 69.1162 100.509 69.3442 100.851C69.4203 100.965 69.4963 101.117 69.5723 101.269C69.8384 101.802 69.9525 102.41 70.0665 103.056C71.2829 102.942 73.6778 102.714 73.6778 102.714C73.9059 102.752 74.4001 100.319 74.5521 100.433C74.7802 100.319 75.0463 100.243 75.3504 100.167C75.0083 100.471 74.7042 100.813 74.9323 100.965C75.3884 101.269 75.8826 100.699 76.0347 101.003C76.0347 101.802 77.4792 101.726 76.6049 102.03C75.7305 102.334 77.2511 102.334 77.2511 102.334L79.3038 102.068C79.2658 101.459 78.9617 100.509 78.6956 99.7488C78.8477 99.7108 78.9617 99.7108 79.0758 99.6728C79.0377 99.5588 78.9997 99.3687 78.9617 99.1786C79.1518 99.1406 79.3038 99.1026 79.1518 99.2927C79.3419 99.3687 79.1518 99.0646 79.3038 99.1026C80.1401 98.8365 81.2426 98.6845 81.2806 97.7721C81.2806 97.2399 80.9004 97.1639 80.7484 96.7077C80.5963 96.5177 80.4062 96.3656 80.2542 96.1755C79.5699 95.2632 79.3419 94.0848 78.8477 93.0964C78.6956 92.7543 78.3915 92.4882 78.2395 92.1461C78.0114 91.6139 77.8593 90.9677 77.6312 90.3594C77.2131 89.067 76.909 87.8505 76.5669 86.482C76.2627 85.1896 75.7686 83.9731 75.8446 82.6426C75.9586 81.9584 76.0347 80.932 75.8446 80.2858V79.3735C75.8446 79.0693 75.8826 78.6892 75.7305 78.4991C75.5785 78.005 75.5405 77.4728 75.4264 76.9406C75.3504 76.5984 75.1223 76.3704 75.0463 76.0663C75.0083 75.9142 75.0843 75.7241 75.0463 75.5721C75.0083 75.42 74.8182 75.2299 74.7422 75.0399C74.5901 74.6217 74.4381 74.0135 73.9439 74.0895C73.3737 74.1656 73.6398 74.8878 73.6018 75.382C73.5638 75.9142 73.1456 76.0282 72.9936 76.3704C72.8795 76.5224 72.8415 76.8265 72.9936 76.9786C72.9936 77.1306 73.1456 77.1687 73.1076 77.3587C72.7275 77.4347 72.0432 77.3967 71.9292 77.0166C72.1953 76.7885 72.3853 76.7505 72.4233 76.4084C72.4614 76.1043 72.1192 75.8382 72.1192 75.5721C72.1573 75.0399 72.8415 75.0779 72.9175 74.5457C73.1076 74.5837 73.1836 74.5077 73.2597 74.4317C73.4497 74.3176 73.3357 73.9755 73.2597 73.8234C72.9936 73.0632 72.4234 72.493 71.6251 72.493C70.4846 72.4549 70.0665 73.5193 69.1542 73.6714C68.4319 73.9755 68.5459 75.1159 68.1278 75.7241C68.0518 75.7621 68.0518 76.1803 68.1278 76.2183C68.2418 76.3323 68.2418 76.5224 68.2418 76.7505C68.1658 76.9026 68.1278 77.4347 68.2798 77.4728C68.3559 77.6628 68.5079 77.7769 68.5079 78.005C68.1278 78.4231 68.0137 79.2214 68.3179 79.8296C68.8881 79.9817 68.9261 80.6279 69.2682 80.97C69.6483 81.3502 70.1805 81.4262 70.6367 81.8063C70.7888 82.5666 69.3442 82.9848 70.1425 83.783C70.6367 83.745 71.1689 83.745 71.473 84.0111C71.397 84.4293 71.0168 85.1135 71.587 85.4937C71.8531 85.5317 71.9292 85.4176 72.1953 85.4557C72.3093 85.5697 72.4994 85.6077 72.6514 85.6837C72.7275 86.2539 73.1076 86.6341 73.4877 86.9762C73.8679 87.3183 74.286 87.8885 74.5521 88.1546C74.7802 88.3827 74.9703 88.3447 75.0083 88.6108C75.0463 89.4851 74.096 88.6488 73.9819 88.4207C73.4117 88.3447 73.1076 88.4207 72.6894 88.1166C72.6134 88.0406 72.1953 88.0026 72.1953 88.1546C71.8912 88.8009 71.549 89.8272 71.6631 90.5115C72.2713 90.7396 72.4614 90.2074 72.8795 90.1314C72.2713 90.7016 73.0696 92.0701 72.3853 92.6783H72.4233C72.4233 92.9064 72.2333 92.6783 72.1953 92.6783C71.1689 92.2601 70.1805 91.804 68.8881 91.6519H68.66C68.66 91.5379 68.4699 91.6139 68.3559 91.6139C68.2038 91.5379 67.6716 91.5379 67.5196 91.6139C67.4055 91.6519 67.2155 91.5379 67.1774 91.6519H67.0254C66.7973 91.6139 66.7213 91.7279 66.4932 91.6899C65.4668 91.7279 65.3908 92.9824 64.2884 92.7543C63.9843 93.0584 63.6042 93.3245 63.262 93.5906C63.262 95.0731 61.9315 93.8187 62.2357 92.8683C62.0076 92.7923 61.6274 92.5642 61.3993 92.7543C61.0952 92.9064 60.7151 92.9824 60.449 93.1344C59.5367 93.4005 58.8524 93.8947 58.1302 94.3509C57.9021 94.541 57.598 94.655 57.4459 94.8831C57.2178 94.9591 57.1038 95.1492 56.9137 95.2632H56.8757C56.7997 95.3012 56.7617 95.3773 56.6856 95.4153L56.3815 95.3392L56.3435 95.3012C56.1915 94.8831 56.0394 94.4269 55.9634 93.9707C55.6593 93.8187 55.8874 93.2105 55.8113 92.8303C55.8113 92.7543 55.7733 92.7163 55.7733 92.6403C55.6593 92.5262 55.6593 92.2981 55.6593 92.1081C55.6593 91.956 55.5452 91.956 55.5452 91.804C55.4312 91.6899 55.2411 91.6519 55.1651 91.4998C54.1007 90.1314 51.4778 90.3214 50.4894 88.8769C50.6414 88.8769 50.6795 88.7248 50.7175 88.6488C50.8315 88.5348 50.7175 88.3067 50.7175 88.1546C49.8051 87.0522 49.425 85.4176 48.8168 84.0111C48.6267 84.0111 48.5127 83.9351 48.3606 83.8591C48.1325 83.3649 47.9045 82.8707 47.5623 82.4906C47.4483 82.2625 47.2582 82.1104 47.0682 81.9584C46.536 81.7683 46.3839 81.1601 45.7757 81.1601C45.1675 81.1601 44.7113 81.9584 44.2551 82.3005C43.913 82.5666 43.4188 83.0988 43.1147 82.6806C43.4188 82.1865 44.6353 81.7303 44.6353 81.0461C44.6353 80.7419 44.3692 80.6659 44.2931 80.3238C44.8634 79.6395 43.989 79.3354 43.5709 78.9553C42.8866 78.3851 42.3544 77.8529 42.0503 77.0926C41.7842 76.7885 41.5181 76.5224 41.214 76.2563C41.138 76.2563 41.138 76.1803 41.062 76.1423C40.7959 75.8382 40.4918 75.5721 40.1877 75.306C40.0356 75.268 39.9216 75.1919 39.8075 75.1539C39.5414 75.0779 39.0472 74.9639 38.8192 75.1539C38.2109 75.1159 37.6407 75.6101 37.2606 75.496V75.268C37.4887 75.0779 37.7168 74.8498 37.9068 74.6217C38.1349 74.2796 38.401 74.0515 38.5911 73.6714C38.7431 73.5573 38.7431 73.1012 38.5911 72.9871C37.4126 71.0104 35.626 69.6419 32.927 69.1477C32.851 69.0337 32.5469 69.1477 32.3948 69.1097C31.5585 68.8816 30.9123 69.4899 30.6082 70.1361C30.5702 70.3262 30.4941 70.4782 30.4941 70.7823C30.8743 71.4286 30.7602 72.3409 30.9883 73.1772C31.7866 73.4813 31.5965 74.3936 31.9767 74.9639C32.2428 75.344 32.775 75.42 33.2691 75.8002C33.8013 76.2563 33.9914 76.9406 34.7517 76.9786C34.9037 77.0546 35.3599 77.0546 35.4739 76.9786C35.588 77.0166 35.702 76.7885 35.702 76.9406C35.512 77.8529 35.9301 78.5752 36.4243 78.9553C36.6144 79.1834 36.8424 79.4115 37.0705 79.6015C37.7928 80.5899 38.515 81.5782 39.5414 82.3005C39.7315 82.4146 39.8455 82.6046 40.0356 82.7567C40.1496 82.8707 40.1877 83.0608 40.3777 83.0608C40.4157 83.1748 40.6818 83.0608 40.8339 83.0988C40.8339 83.1748 40.8719 83.2128 40.9479 83.2509C41.3281 83.4789 41.4801 84.0111 41.2901 84.5433C41.214 84.5813 41.214 84.9995 41.2901 85.0375C41.7462 85.7978 42.3164 86.406 42.6966 87.2423C42.8486 87.3183 43.0767 87.2803 43.3048 87.2803C43.3048 87.3563 43.2668 87.3944 43.2668 87.4324V87.9266C43.837 88.8389 44.4832 90.0933 46.0798 89.5611C46.1558 89.6752 46.4219 89.6752 46.612 89.6752C46.8401 89.6372 46.9921 89.5231 47.2202 89.4851C47.5243 89.5992 47.7524 89.7892 48.0565 89.8653H48.5887C48.8548 89.7892 49.0069 89.5992 49.387 89.6372C49.349 89.8653 49.273 90.0933 49.2349 90.3214C48.8168 90.7016 48.2846 91.1577 47.7524 91.4998C47.2202 91.842 47.3723 92.9824 47.0682 93.5146C46.9161 93.7807 46.4979 94.0088 46.3839 94.3129C46.3839 94.4649 46.2699 94.731 46.3839 94.8451C46.4599 94.9211 46.4979 95.3392 46.3459 95.3392C46.1938 95.7574 46.3079 96.0995 46.1558 96.4036C45.9658 96.8598 45.1294 97.0119 44.7493 97.544C44.5212 97.8482 44.5973 98.1142 44.2551 98.1903C44.027 98.4564 43.799 98.6845 43.5329 98.9125C43.4568 98.9125 43.4568 98.9886 43.3808 99.0266C43.2288 99.2166 43.0767 99.3687 42.8866 99.5208C42.4305 99.9389 42.1264 100.471 41.8603 101.079V101.688C41.8983 101.764 41.8983 101.878 41.8983 101.992C41.7462 102.334 41.3661 102.41 41.2901 102.828V103.322C41.4421 104.12 41.5181 104.995 42.1264 105.337C41.7462 105.793 41.062 105.907 40.6058 106.325C40.5678 106.667 40.7579 106.781 40.7959 107.009C40.6058 107.314 40.1877 107.39 39.9976 107.694C39.8455 109.1 40.7579 109.442 40.7199 110.735C40.7959 110.849 40.7959 111.305 40.7199 111.419V111.761V112.636C40.9479 112.94 41.1 113.282 40.9099 113.776C40.9859 113.966 41.1 114.08 41.252 114.156C41.176 114.232 41.138 114.308 41.062 114.384C40.8719 114.612 40.6818 114.802 40.4918 114.992C40.3017 115.258 39.9976 115.449 39.9596 115.867V116.513C40.2637 117.197 40.1496 118.148 39.9596 118.87V119.516C40.2257 120.01 40.6818 120.314 41.3281 120.39C41.5181 120.2 41.7462 120.048 42.1264 120.048C42.2404 120.124 42.1264 120.39 42.1644 120.542C42.3544 121.417 43.2668 121.531 43.951 121.873C43.913 121.949 43.837 121.987 43.837 122.101V122.633C44.1031 122.823 44.4072 123.013 44.7873 123.127H45.2815H45.3955C45.3195 123.279 45.2435 123.431 45.3575 123.621H45.3955C45.4716 123.812 45.9658 123.621 46.1178 123.774C46.9161 123.926 46.8021 123.165 46.726 122.785C47.1442 122.975 47.1442 123.431 47.3723 123.774C47.7524 124.306 48.3606 124.534 49.1589 124.724C49.2349 124.8 49.273 124.914 49.463 124.914C49.7291 124.914 49.8051 124.686 49.9952 124.61C50.2613 124.99 50.9075 124.99 50.8695 125.636C51.2117 125.864 51.6678 125.94 52.2 125.94C52.3901 126.13 52.6182 126.282 52.8462 126.435C52.9603 126.739 53.1884 127.043 53.4165 127.233C53.4165 127.233 53.4165 127.233 53.4165 127.271C53.4165 127.955 53.9106 128.753 54.4808 128.335C54.5569 127.917 54.2908 127.841 54.2528 127.499C54.785 127.841 55.3171 128.221 55.9634 128.563C56.4956 128.867 57.0658 129.59 57.636 129.704C57.8261 129.742 58.0161 129.59 58.1682 129.59C58.3202 129.628 58.5103 129.932 58.7004 129.97C58.8904 130.008 59.0805 129.932 59.1945 129.97C59.5367 130.084 59.7267 130.616 60.1449 130.654C60.373 130.692 60.6011 130.464 60.8291 130.502C61.0192 130.54 61.1713 130.768 61.3613 130.806C61.7415 130.882 61.9315 130.73 62.3497 130.692H62.8439C63.3 130.996 64.0983 130.502 64.3264 130.882C64.4024 130.958 64.7826 130.958 64.8586 130.882C65.0487 130.768 65.2387 130.654 65.5429 130.654C65.6569 130.73 66.1131 130.73 66.2271 130.654C66.3411 130.616 66.5312 130.54 66.6072 130.654C66.7593 130.768 67.1014 130.692 67.2155 130.616C67.8997 130.274 68.774 130.16 69.4203 129.666C69.8764 129.324 70.2185 128.563 70.7127 128.259C70.9408 128.107 71.1689 128.107 71.321 127.917C71.511 127.651 71.435 127.195 71.7011 126.929C71.8912 126.777 72.0432 126.625 72.1953 126.435C72.6514 125.94 73.4877 125.788 73.5258 124.876C73.4877 124.648 73.6018 124.268 73.4877 124.078C73.4497 124.002 73.4497 123.888 73.4497 123.774C73.4497 123.241 73.4877 122.709 73.3357 122.291C73.3737 121.759 73.0696 121.417 73.1456 120.923C73.1836 120.466 73.6778 120.01 73.2977 119.592V119.554C73.2977 119.554 73.2977 119.554 73.2977 119.516V119.402C73.5257 119.364 73.7158 119.288 73.8679 119.174H73.9059C75.1223 118.718 76.1867 118.033 76.6049 116.779C76.1487 116.741 76.0727 117.045 75.7305 117.083C75.6165 116.855 76.0727 116.703 75.8446 116.627C75.3504 116.627 74.8182 117.159 74.3621 116.779C74.3621 116.551 74.324 116.285 74.5141 116.247C74.7802 116.285 74.8942 116.209 75.0463 116.133C75.1984 116.019 75.1603 115.753 75.2744 115.639C75.5025 115.905 75.8066 116.057 76.2627 115.867C76.3388 115.867 76.1487 115.563 76.3768 115.563C76.6429 115.677 76.833 115.715 77.2131 115.677C77.4032 115.525 77.5552 115.296 77.8973 115.296C78.2395 114.878 77.5172 114.726 77.9734 114.232C78.2014 113.966 79.0377 113.13 79.1138 112.864C79.2278 112.407 78.9617 112.027 79.1138 111.571C79.2658 111.229 79.646 111.191 79.798 110.773C79.608 110.013 79.684 109.366 79.4559 108.834Z" fill="#808080"></path>
  <path d="M35.2078 114.004C34.9797 113.89 34.8276 113.7 34.5235 113.662C34.4095 113.586 33.9533 113.586 33.8393 113.662C33.5352 113.548 33.3831 113.282 33.041 113.168C32.8889 113.092 32.3567 113.092 32.2047 113.168C31.9006 113.206 31.6345 113.396 31.3304 113.396C30.9502 113.396 30.8362 113.282 30.5321 113.206C30.0379 113.054 29.4297 113.092 28.9735 112.978C28.4033 112.788 27.8711 112.407 27.3389 112.369C27.2249 112.255 26.8827 112.369 26.6547 112.331C25.8944 112.483 25.2481 111.723 24.792 111.761C24.2598 111.799 24.0697 112.407 23.6136 112.712C23.0814 112.141 23.0814 111.343 22.4351 110.887C22.169 110.697 21.6749 110.621 21.2187 110.431C20.8005 110.279 20.4584 110.013 20.0783 109.822C19.0519 109.366 17.5313 109.746 16.0488 109.632C14.6803 109.937 13.806 110.469 13.806 111.989C13.768 113.32 14.2622 113.966 15.1365 114.726C15.6687 115.22 16.3149 115.867 16.8471 116.209C17.5694 116.665 18.8618 116.665 19.5461 117.007C19.6981 117.083 20.1923 117.083 20.3444 117.007C20.9146 116.741 21.3327 116.437 22.055 116.779C22.2831 116.855 22.8153 116.855 23.0433 116.779C23.1954 116.703 23.4235 116.665 23.5755 116.589C23.9177 116.817 24.1838 117.083 24.6399 117.197C24.83 117.349 25.2862 117.159 25.4762 117.311C25.6663 117.311 25.8564 117.311 26.0084 117.311L26.5406 117.425C27.3009 117.653 27.8331 118.071 28.7074 118.148C28.9355 118.224 29.5057 118.224 29.7338 118.148C30.266 117.919 30.6841 117.577 31.2543 117.425C31.2923 117.121 31.4064 116.969 31.6345 116.893C32.0146 116.969 32.0526 117.463 32.3567 117.615C32.6228 117.767 33.003 117.653 33.3071 117.843C33.6492 117.539 34.0293 117.349 34.4475 117.121H35.2458C35.3218 117.235 35.5499 117.159 35.5499 117.349C35.7019 117.539 36.3482 117.463 36.5763 117.387C37.5266 117.349 37.5266 116.361 37.0324 115.867C36.1961 115.449 35.4358 114.992 35.2078 114.004Z" fill="#808080"></path>
  <path d="M15.2886 100.319C16.0869 100.965 17.5695 100.889 18.5198 101.345H19.128C19.2421 101.345 19.3181 101.269 19.4701 101.307C20.0403 102.448 21.713 102.524 22.8914 103.018C23.1195 103.056 23.4996 102.942 23.6897 103.056C24.3739 103.322 24.9061 103.74 25.8184 103.778C26.0085 103.816 26.3126 103.702 26.3506 103.892C26.8828 103.892 26.9589 104.349 27.415 104.425C27.5671 104.311 27.9092 104.082 27.9472 103.702C27.9852 103.398 27.7571 103.018 27.7191 102.638C27.6811 102.258 27.8332 101.84 27.6811 101.65C27.453 101.383 26.9589 101.536 26.6928 101.612C26.6547 101.231 26.4267 100.927 26.2366 100.661C26.0465 100.433 25.8945 100.053 25.6284 99.8629C25.2482 99.5588 24.488 99.6348 24.2599 99.2547C24.0318 99.1026 23.8797 98.8745 23.7277 98.6465C23.3095 98.2663 22.9674 97.6961 22.3212 97.6961C21.0287 97.7341 20.9527 99.7108 19.7743 99.9389V99.9009C19.8123 99.7108 19.6982 99.4067 19.8123 99.2927C19.9263 98.5324 20.4585 98.1903 20.6106 97.468C20.6866 97.392 20.6866 97.0499 20.6106 96.9739C20.2304 96.0615 19.166 95.8334 18.3677 95.3393C17.4934 94.731 16.201 93.5526 14.8325 93.0204C13.464 92.5643 11.1071 93.0204 10.3848 93.8187C9.51053 94.8071 10.3468 96.5557 10.727 97.354C10.879 97.6581 10.9551 98.0002 11.1071 98.3043C11.5253 99.0646 12.7037 99.7869 13.3499 100.167C13.8441 100.395 14.7944 100.129 15.2886 100.319Z" fill="#808080"></path>
  <path d="M33.6874 102.828C33.5353 102.448 33.3452 102.068 32.8511 102.03C32.661 101.878 32.1288 102.068 31.9007 101.916C31.5966 101.878 31.3305 101.612 30.9504 101.764C30.6463 102.03 30.6843 102.372 30.4562 102.79C30.1521 103.36 29.4678 103.664 29.4298 104.272C29.4298 104.539 29.6579 104.843 29.6579 105.109C29.6579 105.337 29.4678 105.489 29.5058 105.641C29.6199 106.211 30.3802 106.325 31.1404 106.439C31.5206 106.515 32.2808 106.515 32.661 106.439C33.0031 106.401 33.0791 106.059 33.3832 105.983C33.8014 106.211 34.1435 106.553 34.6757 106.705C34.7137 106.857 35.0178 106.781 35.1699 106.857C35.3219 106.819 35.588 106.933 35.6641 106.819C35.8922 106.781 36.0822 106.667 36.1963 106.515C36.2723 106.439 36.2723 106.097 36.1963 106.021C36.0822 105.945 36.1963 105.679 36.1583 105.527C35.8922 104.957 35.6641 104.158 35.0939 104.12C34.5237 104.082 34.4856 104.691 33.8014 104.691C33.6493 104.577 33.6113 104.234 33.6493 104.044C33.7634 103.778 33.7634 103.132 33.6874 102.828Z" fill="#808080"></path>
  <path d="M40.8339 97.0499C41.024 96.7838 41.2901 96.6317 41.3661 96.4416C41.8603 95.3012 40.1496 94.693 39.8836 93.9327C39.6935 93.7807 39.5794 93.5906 39.4274 93.4005C39.0853 92.8303 38.249 92.8683 37.5647 92.6022C36.9565 92.3742 36.5383 91.804 35.9301 91.7659C35.664 91.6899 35.0558 91.6899 34.7897 91.7659C34.5616 91.842 34.4096 92.032 34.1435 92.1081C33.9154 92.2221 33.8013 92.0701 33.6873 91.918C33.4212 90.6635 32.2428 90.3214 31.3685 89.6752C31.0644 89.4851 30.6462 89.7132 30.4181 89.4851C29.6198 89.181 29.5438 88.1546 28.3654 88.2687C27.9092 88.0026 27.7572 87.4704 27.225 87.4324C26.6548 87.3563 26.1606 87.9646 25.5524 88.0406C25.3623 89.295 23.8037 89.3711 24.1458 91.0057C24.0318 91.0437 23.9938 91.1577 23.8417 91.1577C23.7657 91.2718 23.6517 91.3858 23.6897 91.6519C23.9558 92.1841 24.9061 92.0701 25.4763 92.3362C25.7424 92.7163 26.0465 93.0204 26.4647 93.2865C28.0613 93.1344 27.6811 94.9971 29.2017 94.9211C29.5818 94.731 30.152 95.0351 30.4941 94.8831C31.4445 94.769 31.5965 93.8567 31.8626 93.0584C32.3188 92.8683 32.6229 92.5262 33.0031 92.2601C32.965 92.6403 32.813 93.2105 32.4709 93.6666C32.2048 94.0088 31.7866 94.1608 31.8626 94.541C31.9007 94.693 32.1668 94.8451 32.3188 94.769C32.5849 94.655 32.6989 94.4649 32.851 94.2749C33.1171 93.8947 33.4972 93.7046 33.8774 93.4386C34.2195 93.9707 33.5733 94.1988 33.2311 94.5029C32.851 94.9211 32.5849 95.5293 32.5849 96.2896C32.6229 96.5177 32.6989 96.7077 32.889 96.8218C33.2692 97.316 33.8013 97.468 34.7137 97.6961C35.2459 97.8482 35.74 98.4564 36.2342 98.5704C36.4243 98.6084 36.6524 98.5704 36.8424 98.6084C37.2606 98.7605 37.5267 99.2547 37.9068 99.2547H38.5911C39.2373 99.1406 39.5414 98.7225 39.7315 98.1903C40.3397 98.0002 40.5298 97.506 40.8339 97.0499Z" fill="#808080"></path>
  <path d="M14.5282 86.1779C15.0224 87.1283 15.4405 87.5084 16.3148 88.1926C17.3412 88.9909 18.4816 89.8272 20.0022 89.9793C20.1922 90.1313 20.6864 89.9033 20.8005 90.1313C21.1426 90.8156 22.7772 91.1957 23.3474 90.4735C23.3854 89.8652 23.4614 89.3331 23.8796 89.105C24.1457 88.9529 23.8036 88.4587 24.0316 88.3827C24.2977 88.1166 24.6018 87.9646 24.6399 87.5084C24.6399 87.1663 24.3738 86.9002 24.1837 86.52C23.8796 85.9118 23.6515 85.4176 23.1953 84.8474C22.8912 84.4293 22.5871 83.9731 22.321 83.669C21.4847 82.8707 19.546 82.4526 18.5196 81.9964C18.0635 81.9204 17.1511 81.8824 16.733 82.0344C15.7826 82.1865 15.1744 82.6426 14.8323 83.4029C14.7183 83.555 14.5662 83.707 14.4522 83.8591C14.3001 84.3913 14.1481 85.0755 14.2241 85.5697C14.1861 85.7217 14.3761 85.9118 14.5282 86.1779Z" fill="#808080"></path>
  <path d="M37.0325 72.9111C36.6524 72.4169 36.0822 72.4169 35.55 72.0748C35.1699 71.8467 34.7897 71.4666 34.4096 71.2005C34.0675 70.9344 33.6113 70.4402 33.3452 70.2501C32.5849 69.832 31.6726 70.0981 31.4445 70.7063C30.9503 71.8467 31.9767 72.8351 32.5089 73.3673C33.2692 74.0895 34.3716 74.8878 35.3219 74.8498C36.2723 74.7738 37.1846 74.0515 37.0325 72.9111Z" fill="#1E1E23"></path>
  <path d="M42.1645 79.2214C41.8603 78.8032 41.8603 78.3851 41.6323 78.157C41.1381 77.6628 40.1117 77.7389 39.4275 77.3587C38.8573 77.0546 38.8192 76.4464 38.211 76.5224C37.9069 76.5604 37.5648 76.7505 37.4127 76.9786C36.8805 77.7769 37.4508 78.4991 37.8689 79.0313C38.4011 79.7536 39.1614 80.6659 39.7696 81.1981C39.9216 81.3122 40.1497 81.4642 40.2258 81.5022C40.7579 81.6923 42.3165 81.3122 42.8867 80.97C43.1148 80.856 43.533 80.3998 43.4569 80.1337C43.3809 79.6776 42.5446 79.7156 42.1645 79.2214Z" fill="#1E1E23"></path>
  <path d="M46.84 84.2392C46.4599 83.4789 46.3838 82.4526 45.3194 82.5666C44.7112 82.6426 43.7989 84.2772 43.6849 84.8854C43.6088 85.4556 43.7609 86.406 44.027 86.7101C44.4831 87.2043 45.4715 87.2423 46.0417 87.7365C46.3458 88.0026 46.3078 88.3067 46.6879 88.6108C47.6763 88.5348 48.1325 87.5464 48.2085 86.7861C48.3986 85.2656 47.1821 84.9235 46.84 84.2392Z" fill="#1E1E23"></path>
  <path d="M16.581 87.2043C16.8091 87.3563 17.7975 87.8505 17.9875 87.8885C18.7478 88.0406 19.3941 87.8125 20.0403 88.0406C20.6105 88.2307 20.8386 89.143 21.5608 89.067C22.2071 89.0289 22.8913 87.8885 22.8533 86.9382C22.7773 85.9498 22.3971 85.7598 21.7129 85.3796C21.3708 85.1896 21.1427 84.9615 20.9146 84.8474C20.0023 84.3913 18.0636 83.783 17.1132 83.8971C16.7711 83.9351 16.353 84.0872 16.0869 84.3533C15.8588 84.5433 15.4786 85.1135 15.4786 85.5697C15.5927 85.9878 16.1629 86.9002 16.581 87.2043Z" fill="#1E1E23"></path>
  <path d="M43.1147 85.6077C43.4188 85.4177 43.4188 84.5813 43.2668 84.2392C42.4305 83.8591 42.1644 85.7598 43.1147 85.6077Z" fill="#1E1E23"></path>
  <path d="M26.9969 92.4882C27.5291 92.6783 27.8712 92.6783 28.4034 92.8683C29.3157 94.0468 30.076 91.4998 30.4181 91.0057V90.9677C30.076 90.6635 29.924 90.0553 29.4678 89.7892C28.9356 89.4851 28.3274 89.7132 27.5671 89.4471C27.339 89.3711 27.225 89.105 26.9209 89.105C26.4267 89.105 26.0846 89.5992 25.7805 89.9413C25.5144 90.2074 24.9822 90.7016 24.9822 91.0817C25.0582 91.4618 26.3507 92.2601 26.9969 92.4882Z" fill="#1E1E23"></path>
  <path d="M31.6345 91.3098C30.8743 91.7279 30.076 92.2601 29.8479 93.2104C30.9123 93.9707 32.4328 92.032 31.6345 91.3098Z" fill="#1E1E23"></path>
  <path d="M36.1962 94.1228C36.0821 94.0848 36.0061 94.0468 36.0441 93.8947C36.2342 93.8187 36.2722 94.0088 36.1962 94.1228ZM38.553 95.3393C38.6671 95.1492 38.9712 95.1492 39.0092 94.8451C38.8191 94.655 38.8191 94.0848 38.6291 93.8947C37.9448 93.3245 36.5383 92.5262 35.664 93.0584H35.3219C34.4856 93.5526 34.5996 95.7194 35.0178 96.5937C35.74 96.4417 35.8541 97.1259 36.5383 96.8978C36.5003 97.0879 36.5763 97.2399 36.6523 97.354C36.9565 97.6201 37.1465 97.392 37.4887 97.506C37.7928 97.6201 37.9828 98.0382 38.363 98.0382C38.553 98.0382 38.9332 97.8102 39.0472 97.5441C39.0852 97.43 39.0472 97.278 39.0852 97.1639C39.1993 96.8598 39.5414 96.5557 39.5414 96.2136C39.5414 95.9095 39.2373 95.6434 39.0852 95.4153C38.8952 95.4153 38.6671 95.4153 38.553 95.3393Z" fill="#1E1E23"></path>
  <path d="M13.0459 94.9211C13.0079 94.731 13.35 94.6169 13.35 94.883C13.274 94.9211 13.1599 94.9211 13.0459 94.9211ZM15.5928 98.9885C16.4291 99.0646 17.0753 99.5587 17.4935 99.4827C18.1397 99.4067 18.938 98.2283 18.862 97.506C18.786 96.5556 17.6455 96.3276 16.8473 95.9854C16.3911 95.7954 15.9729 95.3772 15.5168 95.1491C15.2507 94.9971 14.9086 94.9591 14.6805 94.807C14.1103 94.4649 13.274 94.0467 12.6277 94.0848C10.689 94.1608 11.1072 96.5937 11.9435 97.468C12.1716 97.7341 12.7038 97.9622 13.1219 98.2663C13.464 98.4944 13.9582 98.8745 14.4144 98.9505C14.7565 99.0265 15.1366 98.9505 15.5928 98.9885Z" fill="#1E1E23"></path>
  <path d="M23.4616 99.5588C23.2335 99.4447 22.8914 99.4067 22.6253 99.4447C22.0551 99.5208 20.5345 100.053 20.6105 100.661C20.6486 101.155 22.4732 101.345 22.9674 101.307C23.4236 101.231 24.1458 100.737 24.1458 100.433C24.1458 100.167 23.6897 99.6728 23.4616 99.5588Z" fill="#1E1E23"></path>
  <path d="M24.602 102.258C25.1342 102.144 25.4003 102.03 25.9705 102.22C26.6167 101.84 25.2862 100.661 24.9821 100.661C24.526 100.661 24.4879 101.041 24.1838 101.383C24.2979 101.688 24.2979 102.144 24.602 102.258Z" fill="#1E1E23"></path>
  <path d="M35.2839 106.021C35.5119 105.185 34.2955 105.109 34.3335 105.793C34.4095 106.097 34.9797 106.325 35.2839 106.021Z" fill="#1E1E23"></path>
  <path d="M21.4469 114.65C21.3328 114.536 21.4469 114.498 21.4849 114.422C21.6369 114.422 21.6369 114.688 21.4469 114.65ZM18.1017 114.84C18.1397 114.802 18.1397 114.764 18.1397 114.688C18.2537 114.65 18.2537 114.726 18.3297 114.726C18.3297 114.84 18.2157 114.954 18.1017 114.84ZM21.4849 111.799C21.1808 111.723 20.8767 111.799 20.6106 111.685C20.1164 111.495 19.8123 111.115 19.2801 111.001C18.6719 110.849 17.8736 111.077 17.4174 111.039C17.1513 111.039 16.8472 110.849 16.5431 110.887C15.4787 111.001 14.4143 111.647 15.0606 112.712C16.315 113.244 16.7332 115.335 18.2537 115.449C18.8619 115.487 19.2421 115.068 19.8123 115.411C20.4205 114.954 20.9907 115.449 21.6369 115.296C22.4732 115.144 22.4352 114.346 22.7013 113.586C22.8154 113.32 23.0815 113.054 23.0434 112.788C23.0434 112.369 22.2452 111.989 21.4849 111.799Z" fill="#1E1E23"></path>
  <path d="M26.5407 114.308C26.3126 114.08 26.3506 113.738 26.1986 113.51C26.0465 113.282 25.6664 112.978 25.4003 112.902C24.678 112.75 24.8681 113.434 24.754 114.042C24.64 114.65 24.2979 115.106 24.1838 115.601C24.4879 115.867 25.3623 116.247 25.8184 116.209C26.1225 116.171 26.3126 115.791 26.6167 115.753C26.9208 115.715 27.415 115.943 27.6811 116.057C27.9852 116.171 28.2513 116.437 28.6695 116.513C29.4297 116.057 29.8859 115.106 29.8099 113.928C28.6315 113.13 27.5291 115.335 26.5407 114.308Z" fill="#1E1E23"></path>
  <path d="M33.5732 115.296C33.6492 115.905 34.6756 116.133 35.2078 116.323C35.778 115.791 34.8657 115.22 34.6756 114.688C34.0294 114.46 33.5352 114.802 33.5732 115.296Z" fill="#1E1E23"></path>
  <path d="M80.6344 106.629L76.4148 107.123L76.3388 107.276C76.3388 107.276 76.2628 107.428 76.1487 107.618C76.0347 107.808 75.9207 108.036 75.8066 108.074C75.4645 108.34 75.1604 108.454 74.7802 108.72L74.6282 108.834L74.7042 109.024V109.062C74.6662 109.062 74.6282 109.062 74.5522 109.024C74.4761 108.91 74.4001 108.644 74.3621 108.416C74.2861 108.112 74.2481 107.77 74.058 107.466L73.982 107.314L73.8299 107.352C73.3737 107.39 72.3474 107.542 71.359 107.618H71.1309L71.0929 107.846C71.0929 107.884 71.0929 107.884 71.0929 107.922C71.1309 108.302 71.397 108.454 71.5491 108.644C71.6251 108.72 71.7011 108.758 71.7391 108.834V108.986C71.7391 109.024 71.7391 109.062 71.7391 109.062C71.7391 109.176 71.7391 109.252 71.7011 109.328V109.366L71.6631 109.67V109.708C71.6251 109.784 71.6251 109.86 71.6251 109.937C71.6251 109.975 71.283 110.051 71.283 110.127C71.283 110.165 71.283 110.241 71.283 110.317C71.1309 111.077 70.9028 111.419 70.5607 111.723L70.4847 111.647C70.4467 111.685 70.3706 111.723 70.3326 111.799C70.2566 111.761 70.1806 111.723 70.0665 111.723C70.0285 111.723 69.9525 111.723 69.8765 111.761L69.6864 111.837L69.7244 112.027C69.7244 112.065 69.7244 112.103 69.7244 112.103C69.7244 112.141 69.7244 112.217 69.6864 112.255L69.4583 112.369L69.5343 112.445C69.4963 112.483 69.4203 112.559 69.3823 112.597H69.3443H69.3063L69.2682 112.635C69.1162 112.712 68.7741 112.826 68.584 112.826V112.94C68.4319 112.978 68.0138 113.092 67.6717 113.092H67.5576L67.4816 113.168C67.4436 113.168 67.3295 113.168 67.1775 113.206C66.9494 113.282 66.7974 113.396 66.7213 113.51L66.2271 113.472L65.847 113.434C65.847 113.396 65.809 113.358 65.771 113.32C65.5429 113.054 65.4669 113.13 65.3528 112.75C65.1628 111.989 64.6686 111.685 64.3265 111.381C64.2884 111.343 64.2504 111.305 64.2124 111.229C64.1744 111.191 64.1744 111.153 64.1364 111.077C64.0984 111.001 63.9843 110.925 63.8703 110.925C63.7182 110.925 63.6422 111.001 63.5662 111.039C63.4141 111.191 63.3001 111.419 63.186 111.571C63.2241 111.495 63.2241 111.419 63.2241 111.343C63.2241 111.305 63.2241 111.267 63.2241 111.229V111.001C63.148 110.431 62.958 109.975 62.7679 109.594C62.5778 109.176 62.3878 108.834 62.3117 108.264C62.1217 107.238 62.3878 106.287 62.3878 105.413C62.3878 104.995 62.4258 104.577 62.4638 104.234V104.12L62.3878 104.044C62.3117 103.968 62.2737 103.93 62.2357 103.892V103.778C62.2357 103.74 62.2357 103.702 62.2357 103.664V103.588L62.1977 103.512C62.0456 103.208 61.8936 103.056 61.8175 102.904V102.79C61.8556 102.79 61.8556 102.828 61.8556 102.828L61.9316 102.904H62.0456H62.1217H62.1597C62.4638 102.904 62.6538 102.676 62.7299 102.524C62.8439 102.334 62.8819 102.182 62.996 102.03C63.7562 100.889 64.1364 100.015 65.3908 99.6348C65.5049 99.6348 65.5809 99.5968 65.6569 99.5207C65.733 99.4447 65.771 99.3687 65.809 99.3307C65.847 99.3307 65.847 99.3307 65.847 99.3307C65.9991 99.3307 66.1131 99.3687 66.2271 99.4447C66.3412 99.5207 66.5313 99.6348 66.7593 99.6728H66.7973H66.8354C66.8354 99.6728 66.8354 99.6728 66.8734 99.6728C66.9874 99.6728 67.0254 99.7108 67.2155 99.7868C67.3295 99.8248 67.4436 99.9389 67.7097 100.015L68.2039 100.205L68.1658 100.091C68.508 100.319 68.7741 100.585 68.9641 100.851C69.0022 100.927 69.0782 101.117 69.1922 101.269C69.4203 101.764 69.5343 102.334 69.6484 102.942L69.6864 103.208L69.9525 103.17C71.1689 103.056 73.5638 102.828 73.5638 102.828C73.6778 102.828 73.7539 102.752 73.7919 102.714C73.9059 102.562 73.982 102.41 74.058 102.144C74.172 101.802 74.2861 101.345 74.4001 100.965C74.4381 100.889 74.4381 100.813 74.4761 100.737C74.5142 100.851 74.5902 100.927 74.6662 100.965C74.8183 101.079 74.9703 101.117 75.1224 101.079C75.3124 101.079 75.4265 101.041 75.5405 101.003C75.5785 101.003 75.6165 100.965 75.6546 100.965C75.7306 101.307 75.9967 101.497 76.1868 101.611C76.1487 101.611 76.1487 101.65 76.1107 101.65C76.0727 101.688 76.0347 101.688 75.9967 101.726C75.9587 101.764 75.9207 101.84 75.9207 101.954C75.9207 102.144 76.0347 102.22 76.1107 102.22C76.2248 102.258 76.3008 102.296 76.3768 102.296C76.6429 102.334 77.0231 102.334 77.0991 102.334H77.1371L79.4559 102.03L79.4179 101.764C79.3799 101.155 79.1138 100.395 78.8857 99.6728C78.9237 99.6728 78.9618 99.6728 78.9998 99.6348L79.2279 99.5587L79.1898 99.3307C79.1518 99.2166 79.1138 99.0265 79.0758 98.7985L79.7981 98.3803L78.9998 98.3423C78.8477 97.544 78.6196 96.5937 78.5436 96.2515V96.2135L78.5056 96.1755C78.4296 96.0615 78.2775 96.0235 78.2395 96.0235C78.0874 96.0235 78.0494 96.0615 77.9354 96.1375C77.7453 96.2515 77.4792 96.4036 77.2511 96.5557C77.1371 96.4036 77.0231 96.2135 76.871 96.0235C76.2628 95.1491 75.5785 94.5789 74.6662 93.8567H74.6282L72.4614 92.6782C72.4614 92.5262 72.3474 92.4502 72.2713 92.4122V92.3741L72.1193 92.2981C71.1309 91.88 70.0665 91.4238 68.7361 91.2337H68.622C68.546 91.1957 68.47 91.1957 68.4319 91.1957C68.3559 91.1957 68.3179 91.1957 68.2799 91.1957H68.2419H67.4056H67.3676H67.3295C67.2915 91.1957 67.2535 91.1957 67.1395 91.1957C67.1015 91.1957 67.0254 91.1957 66.9494 91.2337H66.9114H66.8734C66.6453 91.2337 66.5693 91.3098 66.4932 91.3098H66.4552H66.3792L66.3032 91.3478C65.5809 91.7659 65.0107 92.3361 64.4405 92.7923H64.4025C64.2504 92.8303 64.1744 92.8683 64.0223 92.8683C63.9843 92.8683 63.9463 92.8683 63.9083 92.8683H63.8703H63.8323C63.6042 92.9063 63.4141 93.0204 63.3001 93.2104C63.148 93.4385 63.11 93.7046 63.072 93.8947C63.034 93.9707 63.034 94.0467 62.996 94.0848C62.958 94.1228 62.958 94.1228 62.958 94.1228C62.9199 94.1228 62.8819 94.1228 62.8439 94.1228C62.6919 94.1228 62.5778 94.0467 62.4638 93.8187C62.3497 93.5906 62.2737 93.2865 62.2737 92.9824V92.9443L62.2357 92.9063C62.1217 92.6782 61.8936 92.6022 61.7415 92.5642C61.5895 92.5262 61.4754 92.4882 61.4754 92.4882L61.3234 92.3741L61.1713 92.4502C60.9432 92.5642 60.5631 92.6402 60.259 92.8303C59.3086 93.0964 58.5864 93.6286 57.9021 94.0848C57.7121 94.2368 57.4079 94.3509 57.2179 94.6169C56.9898 94.731 56.8377 94.883 56.7617 94.9591H56.6097L56.5336 95.1111C56.5336 95.1111 56.4956 95.1491 56.4196 95.2252C56.3436 95.2632 56.2675 95.3392 56.1535 95.4533C56.1155 95.4913 56.0775 95.4913 56.0775 95.5293L56.0394 95.5673C55.8494 95.7193 55.7353 95.8714 55.6973 96.0995C55.6973 96.1375 55.6973 96.1755 55.7353 96.2135C55.2412 96.8598 53.7966 98.4183 52.7703 101.269L52.8083 101.726L53.4545 101.65C53.5305 101.688 53.6066 101.726 53.7206 101.802C53.7966 101.84 53.8727 101.878 53.9487 101.916C53.9867 101.916 53.9867 101.954 54.0247 101.954C54.0627 101.992 54.0627 101.992 54.0627 102.03C54.0627 102.068 54.0627 102.03 54.0627 102.068C54.0627 102.068 54.0627 102.068 54.0627 102.106V102.182L54.1007 102.258C54.2148 102.448 54.2148 102.866 54.4809 103.208C54.5189 103.246 54.5189 103.246 54.5189 103.322C54.5189 103.398 54.4809 103.55 54.4809 103.702V103.74C54.4809 103.778 54.4429 103.816 54.4049 103.854C54.4049 103.892 54.2908 103.93 54.1007 104.082C53.9867 104.12 53.9487 104.196 53.9107 104.234H53.8727C53.4545 104.501 53.3405 104.957 53.3405 105.375C53.3405 105.565 53.3785 105.755 53.3785 105.945L53.4165 106.173H53.6446H53.6826C53.7206 106.173 53.7586 106.249 53.8347 106.325C53.9107 106.439 53.9487 106.553 53.9487 106.629C53.9487 106.705 53.9107 106.743 53.9107 106.743L53.7966 106.819V106.971C53.7966 107.2 53.8727 107.314 53.8347 107.428C53.8347 107.466 53.8347 107.466 53.8347 107.504V107.58L53.8727 107.656C53.9487 107.77 53.9487 107.884 53.9487 107.998C53.9487 108.188 53.8346 108.454 53.7206 108.72C53.6066 108.986 53.4545 109.328 53.4545 109.708V109.746V109.784C53.4545 109.822 53.4545 109.898 53.4545 109.975C53.4545 110.013 53.4545 110.089 53.4925 110.165C53.5305 110.203 53.5686 110.279 53.6446 110.317C53.7586 110.773 53.9487 111.115 54.1007 111.457C54.2908 111.875 54.4429 112.293 54.4809 112.864V112.978L54.5569 113.054C54.671 113.168 54.747 113.32 54.899 113.472C54.937 113.586 55.0131 113.662 55.0131 113.7V113.814L55.1271 113.89C55.1271 113.89 55.1651 113.89 55.1651 113.928C55.1651 113.928 55.1651 113.928 55.1651 113.966C55.1271 114.042 55.0131 114.156 54.899 114.232L54.4429 114.574L54.823 114.688V114.764L54.937 114.84C55.0511 114.916 55.1271 115.068 55.2792 115.258V115.563L55.4692 115.525L55.5073 115.563L55.5833 115.639H55.6973C55.8114 115.639 55.8874 115.639 55.9634 115.639C56.1915 115.639 56.3436 115.639 56.4196 115.677L56.4956 115.829C56.9138 116.475 57.9401 117.463 59.3086 118.376C60.6391 119.288 62.2737 120.124 63.8703 120.39C64.3645 120.466 64.7446 120.504 65.0107 120.504C65.2768 120.504 65.4289 120.466 65.5809 120.428C65.6569 120.504 65.771 120.58 65.885 120.694L65.923 120.732H65.961C66.1891 120.846 66.4172 120.846 66.6453 120.846C66.9874 120.846 67.3295 120.77 67.5956 120.732H67.6337H67.6717C68.2799 120.466 69.1922 120.542 69.9145 120.276C70.0665 120.2 70.1046 120.2 70.1426 120.2H70.2186L70.2946 120.162C70.9409 119.896 71.5871 119.63 72.2713 119.402H72.3093C72.4614 119.402 72.6135 119.364 72.7275 119.364C72.8035 119.364 72.8415 119.364 72.8796 119.364C72.9176 119.364 72.9176 119.364 72.9176 119.364L73.3737 119.934V119.402C73.5638 119.364 73.7159 119.25 73.8299 119.25H73.8679H73.9439L73.982 119.212C75.0844 118.718 75.9207 117.919 76.4529 116.893L76.5289 116.741L76.4148 116.589C76.3388 116.513 76.2248 116.475 76.1487 116.475C75.9967 116.475 75.9207 116.551 75.8446 116.589C75.8446 116.551 75.8066 116.475 75.7686 116.437L75.6166 116.285L75.4265 116.399C75.2744 116.513 74.8183 116.703 74.5902 116.665C74.4761 116.665 74.4001 116.627 74.4001 116.627C74.3621 116.589 74.3241 116.551 74.3241 116.399C74.3241 116.361 74.3241 116.361 74.3241 116.323C74.4381 116.247 74.6282 116.171 74.8183 116.057C74.9703 115.981 75.1604 115.905 75.3124 115.753C75.3505 115.791 75.4265 115.867 75.5405 115.867C75.5785 115.867 75.6546 115.905 75.6926 115.905C75.9207 115.905 76.0727 115.791 76.1487 115.715C76.2628 115.639 76.3008 115.601 76.3388 115.563C76.3768 115.563 76.4148 115.563 76.4909 115.563C76.5669 115.563 76.6429 115.563 76.719 115.563C76.795 115.563 76.909 115.563 76.985 115.525C78.4676 115.144 79.3419 113.624 79.684 112.94C80.2162 111.723 80.4063 111.343 80.6724 110.241C80.9765 108.568 80.6344 106.781 80.6344 106.781V106.629Z" fill="#1E1E23"></path>
  <path d="M61.5133 111.001C61.4753 110.735 61.2472 110.621 61.0572 110.355C60.9431 110.165 60.9051 109.899 60.7531 109.823C60.601 109.708 60.3729 109.823 60.0688 109.708C59.5366 109.556 59.3085 109.176 58.9284 109.252C58.0541 109.48 59.0804 110.469 59.1185 110.773C59.1945 111.495 58.5483 112.179 59.0804 112.94C59.2705 113.206 59.5366 113.168 59.6887 113.282C60.0688 113.624 60.0688 114.156 60.563 114.232C61.8555 114.384 60.8671 112.75 61.0191 111.989C61.0572 111.647 61.5513 111.533 61.5133 111.001Z" fill="#808080"></path>
  <path d="M76.1867 98.3043C75.9586 98.3424 75.8446 98.2283 75.5785 98.2663C75.3124 98.4564 74.8942 98.8745 75.1223 99.2547" fill="#808080"></path>
  <path d="M69.9144 99.4447C69.9144 99.4447 68.9261 99.7869 68.9261 99.1406C68.9261 98.4564 68.2038 97.8481 68.66 97.8862C69.1162 97.9242 69.1922 97.468 69.6483 97.9622C70.1045 98.4564 70.5987 98.6845 70.4466 98.9886C70.3326 99.2927 69.9144 99.4447 69.9144 99.4447Z" fill="#808080"></path>
  <path d="M70.7887 100.091C70.7887 100.091 70.1045 100.319 70.5606 100.699C71.0168 101.079 71.511 101.612 71.511 101.193C71.511 100.775 71.9671 100.395 71.625 100.319C71.2449 100.281 70.9788 99.8629 70.7887 100.091Z" fill="#808080"></path>
  <path fill-rule="evenodd" clip-rule="evenodd" d="M31.0644 105.337C30.6843 104.615 31.3685 103.322 32.1668 103.322C32.8511 103.322 32.9271 104.767 32.3569 105.109C32.0148 105.299 31.4826 105.261 31.0644 105.337Z" fill="#1E1E23"></path>
</svg>
