<?xml version="1.0" encoding="UTF-8"?>
<svg xmlns="http://www.w3.org/2000/svg" width="200" height="200" viewBox="0 0 200 200" fill="none">
  <path d="M31.648 89.0619L21.324 95.6479L31.648 102.234L21.324 108.82L11 102.198L21.324 95.6123L11 89.0619L21.324 82.4759L31.648 89.0619ZM21.2706 110.938L31.5946 104.352L41.9186 110.938L31.5946 117.524L21.2706 110.938ZM31.648 102.198L41.972 95.6123L31.648 89.0619L41.9186 82.4759L52.2426 89.0619L41.9186 95.6479L52.2426 102.234L41.9186 108.82L31.648 102.198Z" fill="#1E1E23"></path>
  <path d="M60.3416 89.0618H68.6898C74.012 89.0618 78.4086 92.1412 78.4086 99.1722V100.65C78.4086 107.734 74.2968 110.92 68.85 110.92H60.3416V89.0618ZM65.0052 93.0312V106.933H68.583C71.609 106.933 73.6382 104.957 73.6382 100.561V99.4036C73.6382 95.007 71.5022 93.0312 68.4228 93.0312H65.0052V93.0312ZM80.8828 93.2448H84.6208L85.226 97.3566C85.938 94.562 87.7536 93.0668 91.0466 93.0668H92.2036V97.7838H90.2812C86.4898 97.7838 85.5642 99.101 85.5642 102.839V110.974H80.954V93.2448H80.8828ZM93.1292 102.465V101.967C93.1292 96.0394 96.9206 92.7998 102.083 92.7998C107.351 92.7998 111.036 96.0394 111.036 101.967V102.465C111.036 108.286 107.458 111.419 102.083 111.419C96.3688 111.365 93.1292 108.304 93.1292 102.465ZM106.319 102.412V101.967C106.319 98.6738 104.664 96.698 102.029 96.698C99.4482 96.698 97.7394 98.5136 97.7394 101.967V102.412C97.7394 105.598 99.3948 107.414 102.029 107.414C104.664 107.36 106.319 105.598 106.319 102.412ZM113.457 93.2448H117.302L117.747 96.5912C118.672 94.3484 120.648 92.7998 123.567 92.7998C128.071 92.7998 131.043 96.0394 131.043 102.038V102.536C131.043 108.357 127.75 111.436 123.567 111.436C120.773 111.436 118.85 110.173 117.907 108.143V117.097H113.403L113.457 93.2448ZM126.362 102.412V102.02C126.362 98.4958 124.546 96.7514 122.125 96.7514C119.544 96.7514 117.836 98.7272 117.836 102.02V102.358C117.836 105.491 119.491 107.467 122.072 107.467C124.724 107.414 126.362 105.723 126.362 102.412ZM137.861 107.698L137.469 110.938H133.517V87.3174H138.021V96.3776C139.018 94.0636 140.993 92.7998 143.788 92.7998C148.024 92.8532 151.157 95.7724 151.157 101.646V102.198C151.157 108.072 148.185 111.436 143.681 111.436C140.709 111.365 138.786 109.995 137.861 107.698ZM146.422 102.198V101.753C146.422 98.5136 144.66 96.698 142.186 96.698C139.658 96.698 137.896 98.7272 137.896 101.807V102.198C137.896 105.491 139.605 107.414 142.133 107.414C144.838 107.414 146.422 105.723 146.422 102.198ZM153.133 102.465V101.967C153.133 96.0394 156.924 92.7998 162.086 92.7998C167.355 92.7998 171.04 96.0394 171.04 101.967V102.465C171.04 108.286 167.409 111.419 162.086 111.419C156.373 111.365 153.133 108.304 153.133 102.465ZM166.358 102.412V101.967C166.358 98.6738 164.703 96.698 162.069 96.698C159.488 96.698 157.779 98.5136 157.779 101.967V102.412C157.779 105.598 159.434 107.414 162.069 107.414C164.721 107.36 166.358 105.598 166.358 102.412ZM177.074 101.753L170.862 93.2448H176.184L179.762 98.567L183.393 93.2448H188.662L182.361 101.7L189 110.938H183.785L179.726 105.064L175.775 110.938H170.328L177.074 101.753Z" fill="#1E1E23"></path>
</svg>
