<?xml version="1.0" encoding="UTF-8"?>
<svg xmlns="http://www.w3.org/2000/svg" width="200" height="200" viewBox="0 0 200 200" fill="none">
  <path d="M160.194 100C160.194 93.9519 164.802 89.6894 170.907 89.6894C177.013 89.6894 181.621 93.9519 181.621 100C181.621 106.048 177.013 110.311 170.907 110.311C164.802 110.311 160.194 105.991 160.194 100ZM175.573 100C175.573 97.1776 173.788 95.1039 170.965 95.1039C168.143 95.1039 166.357 97.1776 166.357 100C166.357 102.823 168.143 104.896 170.965 104.896C173.788 104.896 175.573 102.88 175.573 100ZM156.161 95.2191C156.565 96.0255 156.737 96.8896 156.737 97.8112C156.737 100 155.585 102.016 153.742 103.571C156.277 104.781 157.774 107.719 157.774 110.484C157.774 115.668 153.569 119.124 147.176 119.124C140.782 119.124 136.577 115.725 136.577 110.484C136.519 107.603 138.075 104.954 140.609 103.571C138.708 102.016 137.614 100 137.614 97.8112C137.614 93.2607 141.185 89.9198 146.83 89.9198C150.171 89.9198 151.15 90.4958 153.051 90.4958C154.318 90.5534 155.643 90.2078 156.737 89.5166C157.141 89.2862 157.544 89.1134 158.005 89.1134C158.754 89.1134 159.157 89.8622 159.157 90.7838C159.33 92.7999 158.062 94.5855 156.161 95.2191V95.2191ZM151.841 110.311C151.841 108.007 150.056 106.394 147.233 106.394C144.411 106.394 142.625 107.949 142.625 110.311C142.625 112.5 144.584 114.228 147.233 114.228C149.883 114.228 151.841 112.5 151.841 110.311ZM143.489 98.1568C143.547 100.173 145.275 101.786 147.348 101.728C149.307 101.67 150.805 100.115 150.92 98.1568C150.92 96.0831 149.422 94.6431 147.233 94.6431C145.044 94.6431 143.489 96.0255 143.489 98.1568V98.1568ZM133.812 100.403V107.603C133.812 108.986 133.294 109.562 131.796 109.562H129.78C128.282 109.562 127.764 108.986 127.764 107.603V100.576C127.764 98.7904 127.476 97.5232 126.842 96.7168C126.093 95.7951 124.941 95.3343 123.789 95.3919C122.58 95.3343 121.428 95.8527 120.621 96.7168C119.93 97.5232 119.469 98.7904 119.469 100.518V107.546C119.469 108.986 118.836 109.504 117.453 109.504H115.437C114.055 109.504 113.421 108.986 113.421 107.546V91.4174C113.421 90.4958 113.882 90.0926 114.573 90.0926C115.61 90.0926 117.05 90.9566 118.144 92.627C119.815 90.7838 122.177 89.747 124.653 89.747C127.591 89.747 129.953 90.7838 131.508 92.5118C133.063 94.2399 133.812 96.6016 133.812 100.403ZM102.362 84.1596C102.362 82.3164 103.917 80.8763 105.703 80.8763H105.818C107.603 80.9915 108.986 82.5468 108.871 84.3324C108.755 86.1181 107.2 87.5005 105.415 87.3853C103.686 87.3277 102.362 85.8877 102.362 84.1596V84.1596ZM102.765 107.603V92.4542C102.765 91.0718 103.283 90.4382 104.781 90.4382H106.797C108.295 90.4382 108.813 91.0142 108.813 92.4542V107.603C108.813 108.986 108.295 109.562 106.797 109.562H104.781C103.283 109.562 102.765 108.986 102.765 107.603ZM92.1086 107.603V88.5949C92.1086 83.814 94.7583 81.1067 97.0047 81.1067C97.6959 81.1067 98.1568 81.5676 98.1568 82.4316V107.603C98.1568 109.043 97.5807 109.562 96.1407 109.562H94.1247C92.7422 109.562 92.1086 109.043 92.1086 107.603V107.603ZM67.2247 100C67.2247 93.9519 71.8329 89.6894 77.9386 89.6894C84.0444 89.6894 88.6525 93.9519 88.6525 100C88.6525 106.048 84.0444 110.311 77.9386 110.311C71.8329 110.311 67.2247 105.991 67.2247 100ZM82.5467 100C82.5467 97.1776 80.7611 95.1039 77.9386 95.1039C75.1161 95.1039 73.3305 97.1776 73.3305 100C73.3305 102.823 75.1161 104.896 77.9386 104.896C80.7611 104.896 82.5467 102.88 82.5467 100ZM64.1143 92.4542V108.583C64.1143 109.504 63.6535 109.908 62.9622 109.908C61.9254 109.908 60.4854 109.043 59.4485 107.431C57.8357 109.274 55.5316 110.311 53.0548 110.253C50.7507 110.311 48.5619 109.504 46.8338 107.949C45.0482 106.221 44.0689 103.571 44.0689 99.7696V92.4542C44.0689 91.0718 44.5874 90.4382 46.085 90.4382H48.101C49.5987 90.4382 50.1171 91.0142 50.1171 92.4542V99.2512C50.1171 101.555 50.5203 102.765 51.2691 103.571C51.9603 104.263 52.9972 104.666 53.9764 104.608C55.0708 104.608 56.1077 104.205 56.8565 103.399C57.6053 102.592 58.0085 101.325 58.0085 99.3664V92.4542C58.0085 91.0142 58.6421 90.4382 60.0246 90.4382H62.0406C63.4806 90.4382 64.1143 91.0142 64.1143 92.4542V92.4542ZM39.9216 82.4316V108.583C39.9216 109.504 39.4608 109.908 38.7696 109.908C37.7328 109.908 36.2927 109.043 35.2559 107.488C33.9887 108.986 31.3966 110.311 28.4013 110.311C22.4108 110.311 18.3787 105.933 18.3787 100C18.3787 94.0671 22.526 89.6894 28.4013 89.6894C30.3598 89.6894 32.2606 90.2654 33.9311 91.3598V88.5949C33.9311 83.814 36.6383 81.1067 38.8272 81.1067C39.5184 81.1067 39.9216 81.5676 39.9216 82.4316V82.4316ZM33.9311 100C33.9311 97.0624 31.8574 95.1039 29.2653 95.1039C26.6733 95.1039 24.542 97.0624 24.542 100C24.542 102.938 26.6157 104.896 29.2653 104.896C31.915 104.896 33.9311 102.995 33.9311 100V100Z" fill="#1E1E23"></path>
</svg>
