<?xml version="1.0" encoding="UTF-8"?>
<svg xmlns="http://www.w3.org/2000/svg" width="200" height="200" viewBox="0 0 200 200" fill="none">
  <path d="M36 77.0391V112.88L40.6118 112.895V95.8266H51.731V91.3151H40.6118V81.5483H55.093V77.0369L36 77.0391Z" fill="black"></path>
  <path d="M63.3938 84.3147C65.0549 84.3147 66.4014 82.9681 66.4014 81.3071C66.4014 79.646 65.0549 78.2994 63.3938 78.2994C61.7328 78.2994 60.3861 79.646 60.3861 81.3071C60.3861 82.9681 61.7328 84.3147 63.3938 84.3147Z" fill="black"></path>
  <path d="M61.0478 88.8262V112.888H65.6596V88.8262H61.0478Z" fill="black"></path>
  <path fill-rule="evenodd" clip-rule="evenodd" d="M82.7644 88.1244C76.6404 88.1244 72.3666 93.3038 72.3666 99.4532C72.3666 105.603 76.6404 110.782 82.7644 110.782C85.5682 110.782 87.8788 109.697 89.5604 107.93V111.133C89.5604 115.12 86.429 118.452 82.342 118.452C80.8731 118.452 79.4135 117.882 78.2507 117.081L75.9399 121.083C77.7854 122.273 79.9831 122.963 82.342 122.963C88.8757 122.963 94.1721 117.667 94.1721 111.133V88.8262H89.5604V90.9769C87.8788 89.2099 85.5682 88.1244 82.7644 88.1244ZM76.9783 99.4532C76.9783 95.6362 79.8981 92.6359 83.2658 92.6359C86.6336 92.6359 89.5532 95.6362 89.5532 99.4532C89.5532 103.27 86.6336 106.271 83.2658 106.271C79.8981 106.271 76.9783 103.27 76.9783 99.4532Z" fill="black"></path>
  <path d="M110.79 92.6359C108.063 92.6359 105.852 94.9467 105.852 97.6737V112.888H101.24V88.8262H105.852V91.0304C107.203 89.2836 109.194 88.1244 111.792 88.1244C115.023 88.1244 117.504 89.7295 118.94 92.1858C120.537 89.8132 123.143 88.1244 126.279 88.1244C131.528 88.1244 134.795 92.3592 134.826 97.5985C134.826 97.6143 134.826 97.6301 134.826 97.6461V97.647V97.6477V97.6486C134.826 97.657 134.826 97.6653 134.826 97.6737V112.888H130.214V97.6737C130.214 94.9467 128.003 92.6359 125.276 92.6359C122.549 92.6359 120.339 94.9467 120.339 97.6737V112.888H115.727V97.6737C115.727 94.9467 113.516 92.6359 110.79 92.6359Z" fill="black"></path>
  <path fill-rule="evenodd" clip-rule="evenodd" d="M159.388 91.5538C157.337 89.4353 154.527 88.1244 151.268 88.1244C144.407 88.1244 139.538 93.9333 139.538 100.857C139.538 107.78 144.407 113.589 151.268 113.589C154.527 113.589 157.337 112.278 159.388 110.16V112.888H164V88.8262H159.388V91.5538ZM144.15 100.857C144.15 96.2635 147.666 92.6359 151.769 92.6359C155.871 92.6359 159.388 96.2635 159.388 100.857C159.388 105.45 155.871 109.078 151.769 109.078C147.666 109.078 144.15 105.45 144.15 100.857Z" fill="black"></path>
</svg>
