<?xml version="1.0" encoding="UTF-8"?>
<svg xmlns="http://www.w3.org/2000/svg" width="200" height="200" viewBox="0 0 200 200" fill="none">
  <path d="M90.1539 101.181C90.1539 107.652 85.0915 112.42 78.8787 112.42C72.6659 112.42 67.6035 107.652 67.6035 101.181C67.6035 94.6639 72.6659 89.941 78.8787 89.941C85.0915 89.941 90.1539 94.6639 90.1539 101.181ZM85.2181 101.181C85.2181 97.1369 82.2841 94.37 78.8787 94.37C75.4733 94.37 72.5393 97.1369 72.5393 101.181C72.5393 105.184 75.4733 107.991 78.8787 107.991C82.2841 107.991 85.2181 105.179 85.2181 101.181Z" fill="#1E1E23"></path>
  <path d="M114.478 101.181C114.478 107.652 109.415 112.42 103.203 112.42C96.9899 112.42 91.9275 107.652 91.9275 101.181C91.9275 94.669 96.9899 89.941 103.203 89.941C109.415 89.941 114.478 94.6639 114.478 101.181ZM109.542 101.181C109.542 97.1369 106.608 94.37 103.203 94.37C99.7973 94.37 96.8632 97.1369 96.8632 101.181C96.8632 105.184 99.7973 107.991 103.203 107.991C106.608 107.991 109.542 105.179 109.542 101.181Z" fill="#1E1E23"></path>
  <path d="M137.788 90.6201V110.799C137.788 119.099 132.893 122.49 127.106 122.49C121.658 122.49 118.38 118.846 117.143 115.866L121.441 114.078C122.206 115.907 124.081 118.066 127.101 118.066C130.805 118.066 133.101 115.78 133.101 111.478V109.861H132.929C131.824 111.225 129.696 112.415 127.01 112.415C121.39 112.415 116.241 107.52 116.241 101.221C116.241 94.8768 121.39 89.941 127.01 89.941C129.69 89.941 131.819 91.1319 132.929 92.4545H133.101V90.6251H137.788V90.6201ZM133.451 101.221C133.451 97.2636 130.81 94.37 127.451 94.37C124.045 94.37 121.192 97.2636 121.192 101.221C121.192 105.138 124.045 107.991 127.451 107.991C130.81 107.991 133.451 105.138 133.451 101.221Z" fill="#1E1E23"></path>
  <path d="M145.516 78.7925V111.731H140.702V78.7925H145.516Z" fill="#1E1E23"></path>
  <path d="M164.276 104.88L168.107 107.434C166.871 109.263 163.891 112.415 158.742 112.415C152.357 112.415 147.589 107.48 147.589 101.176C147.589 94.4916 152.398 89.9359 158.19 89.9359C164.023 89.9359 166.876 94.5778 167.808 97.0862L168.32 98.3632L153.295 104.586C154.445 106.841 156.234 107.991 158.742 107.991C161.256 107.991 162.999 106.755 164.276 104.88ZM152.484 100.836L162.528 96.6656C161.975 95.2619 160.313 94.2839 158.357 94.2839C155.849 94.2839 152.357 96.4984 152.484 100.836V100.836Z" fill="#1E1E23"></path>
  <path d="M49.3808 98.2568V93.4883H65.4498C65.6069 94.3193 65.688 95.3024 65.688 96.3666C65.688 99.9443 64.7099 104.368 61.558 107.52C58.4921 110.713 54.5749 112.415 49.3858 112.415C39.7677 112.415 31.68 104.581 31.68 94.9629C31.68 85.3448 39.7677 77.5104 49.3858 77.5104C54.7067 77.5104 58.4972 79.5983 61.3451 82.3195L57.9803 85.6843C55.9381 83.7688 53.1713 82.279 49.3808 82.279C42.3572 82.279 36.864 87.9394 36.864 94.9629C36.864 101.986 42.3572 107.647 49.3808 107.647C53.9364 107.647 56.531 105.817 58.1931 104.155C59.5411 102.807 60.4279 100.882 60.7776 98.2517L49.3808 98.2568V98.2568Z" fill="#1E1E23"></path>
</svg>
