<?xml version="1.0" encoding="UTF-8"?>
<svg xmlns="http://www.w3.org/2000/svg" width="200" height="200" viewBox="0 0 200 200" fill="none">
  <path d="M36.6848 121.862H61.3059V125.386H36.6848V121.862Z" fill="#1E1E23"></path>
  <path d="M36.6848 115.101H61.3059V118.638H36.6848V115.101Z" fill="#1E1E23"></path>
  <path d="M43.7087 108.353H54.2696V111.89H43.7087V108.353Z" fill="#1E1E23"></path>
  <path d="M43.7087 101.606H54.2696V105.143H43.7087V101.606Z" fill="#1E1E23"></path>
  <path d="M43.7087 94.8574H54.2696V98.3945H43.7087V94.8574Z" fill="#1E1E23"></path>
  <path d="M43.7087 88.0971H54.2696V91.6341H43.7087V88.0971Z" fill="#1E1E23"></path>
  <path d="M61.3059 81.3491H36.6848V84.8861H61.3059V81.3491Z" fill="#1E1E23"></path>
  <path d="M61.3059 74.6012H36.6848V78.1382H61.3059V74.6012Z" fill="#1E1E23"></path>
  <path d="M64.8179 118.638H102.684C103.324 117.547 103.8 116.356 104.089 115.101H64.8179V118.638Z" fill="#1E1E23"></path>
  <path d="M99.7366 101.606H71.8544V105.143H102.684C101.881 103.788 100.89 102.596 99.7366 101.606Z" fill="#1E1E23"></path>
  <path d="M71.8544 94.8574V98.3945H99.7366C100.916 97.4036 101.906 96.212 102.684 94.8574H71.8544Z" fill="#1E1E23"></path>
  <path d="M102.684 81.3491H64.8179V84.8861H104.089C103.763 83.6318 103.286 82.4404 102.684 81.3491Z" fill="#1E1E23"></path>
  <path d="M91.0445 74.6012H64.8179V78.1382H100.088C97.7297 75.9558 94.5314 74.6012 91.0445 74.6012Z" fill="#1E1E23"></path>
  <path d="M82.4027 88.0971H71.8544V91.6341H82.4027V88.0971Z" fill="#1E1E23"></path>
  <path d="M92.9635 91.6341H104.001C104.315 90.5054 104.478 89.3138 104.478 88.0971H92.9635V91.6341Z" fill="#1E1E23"></path>
  <path d="M71.8544 108.353H82.4027V111.89H71.8544V108.353Z" fill="#1E1E23"></path>
  <path d="M92.9635 108.353V111.89H104.478C104.478 110.674 104.315 109.482 104.001 108.353H92.9635Z" fill="#1E1E23"></path>
  <path d="M64.8179 125.361L91.0445 125.399C94.5565 125.399 97.7297 124.044 100.1 121.862H64.8179V125.361Z" fill="#1E1E23"></path>
  <path d="M107.036 121.862H124.621V125.386H107.036V121.862Z" fill="#1E1E23"></path>
  <path d="M107.036 115.101H124.621V118.638H107.036V115.101Z" fill="#1E1E23"></path>
  <path d="M114.06 108.353H124.621V111.89H114.06V108.353Z" fill="#1E1E23"></path>
  <path d="M114.06 101.606H124.621V105.143H114.06V101.606Z" fill="#1E1E23"></path>
  <path d="M129.513 81.3491H107.036V84.8861H130.729L129.513 81.3491Z" fill="#1E1E23"></path>
  <path d="M127.18 74.6012H107.036V78.1382H128.397L127.18 74.6012Z" fill="#1E1E23"></path>
  <path d="M145.718 121.862H163.315V125.386H145.718V121.862Z" fill="#1E1E23"></path>
  <path d="M145.718 115.101H163.315V118.638H145.718V115.101Z" fill="#1E1E23"></path>
  <path d="M145.718 108.353H156.279V111.89H145.718V108.353Z" fill="#1E1E23"></path>
  <path d="M145.718 101.606H156.279V105.143H145.718V101.606Z" fill="#1E1E23"></path>
  <path d="M145.718 98.3945H156.279V94.8574H145.718H136.16L135.17 97.7172L134.179 94.8574H124.621H114.06V98.3945H124.621V95.1459L125.738 98.3945H144.602L145.718 95.1459V98.3945Z" fill="#1E1E23"></path>
  <path d="M156.279 88.0971H138.493L137.277 91.6341H156.279V88.0971Z" fill="#1E1E23"></path>
  <path d="M143.172 74.6012L141.955 78.1382H163.315V74.6012H143.172Z" fill="#1E1E23"></path>
  <path d="M135.17 125.361L136.386 121.862H133.953L135.17 125.361Z" fill="#1E1E23"></path>
  <path d="M132.837 118.638H137.503L138.757 115.101H131.595L132.837 118.638Z" fill="#1E1E23"></path>
  <path d="M130.466 111.89H139.873L141.115 108.353H129.224L130.466 111.89Z" fill="#1E1E23"></path>
  <path d="M128.108 105.143H142.244L143.448 101.606H126.891L128.108 105.143Z" fill="#1E1E23"></path>
  <path d="M114.06 91.6341H133.062L131.846 88.0971H114.06V91.6341Z" fill="#1E1E23"></path>
  <path d="M139.622 84.8861H163.315V81.3491H140.826L139.622 84.8861Z" fill="#1E1E23"></path>
</svg>
