<?xml version="1.0" encoding="UTF-8"?>
<svg xmlns="http://www.w3.org/2000/svg" width="200" height="200" viewBox="0 0 200 200" fill="none">
  <path fill-rule="evenodd" clip-rule="evenodd" d="M117.986 113.883V113.888C117.986 113.888 117.986 113.888 117.986 113.883ZM94.8069 68.8771C86.492 69.6443 83.0453 70.1013 83.0453 70.1013V71.2123C83.0453 71.2123 83.0704 71.2123 83.1208 71.2123C83.6113 71.2123 86.2991 71.401 86.2656 75.5809C86.3033 87.0347 86.4165 98.4467 86.3033 109.901C86.2656 113.846 82.9321 114.114 82.9321 114.114V115.036L98.6771 115.074V113.925C98.6771 113.925 94.6517 113.925 94.7314 110.286C94.8069 108.408 94.8446 104.501 94.7314 102.354C95.2303 102.01 95.8425 101.511 96.6476 100.899C96.916 101.243 97.1424 101.629 97.373 101.973C100.208 106.073 106.413 115.074 106.413 115.074H118.062L117.986 113.888C117.982 113.9 117.948 113.904 117.886 113.904C117.491 113.904 115.999 113.661 115.152 112.584C113.504 110.63 105.457 99.3313 102.891 95.6922C104.233 94.5393 105.457 93.4325 106.761 92.3969C112.913 87.3659 115.609 87.0263 116.233 87.0263C116.33 87.0263 116.376 87.0347 116.376 87.0347V85.9614H104.195V87.0347C104.195 87.0347 106.912 87.9151 105.57 90.0198C105.076 90.787 104.308 91.5542 103.658 92.1286C100.82 94.5812 94.8823 99.4067 94.614 99.5199C94.614 89.2148 94.8069 78.9139 94.8069 68.8771V68.8771Z" fill="black"></path>
  <path fill-rule="evenodd" clip-rule="evenodd" d="M77.1079 85.6555L59.4467 87.1102V88.4896C59.4467 88.4896 59.4509 88.4896 59.4635 88.4896C59.7193 88.4896 63.0863 88.5608 63.124 92.2796C63.2372 99.52 63.2792 106.723 63.2372 113.925C63.2372 116.261 63.0863 118.596 62.8557 120.973C62.319 128.75 56.0377 129.899 56.0377 129.899L56 131.123C56 131.123 56.0713 131.123 56.2138 131.123C57.9624 131.123 69.9545 130.863 74.8856 123.769C76.8396 121.162 77.1834 118.021 77.1834 114.919C77.2211 105.498 77.1079 85.6555 77.1079 85.6555V85.6555Z" fill="black"></path>
  <path fill-rule="evenodd" clip-rule="evenodd" d="M135.714 85.014C134.524 85.014 133.429 85.5087 132.389 86.4981C131.928 86.8796 131.509 87.2234 131.127 87.6091C130.36 88.2967 128.788 89.7515 128.788 89.7515C128.788 89.7515 128.75 86.5736 128.75 85.1943C126.108 85.4248 120.934 86.0747 120.934 86.0747V87.0725C120.934 87.0725 121.018 87.0641 121.156 87.0641C121.861 87.0641 123.986 87.3031 123.924 90.2127C123.961 96.9164 123.961 103.62 123.961 110.324C123.999 113.963 120.477 114.114 120.477 114.114V115.112L132.695 115.074L132.771 114.152C132.771 114.152 128.943 113.657 128.825 111.666C128.788 111.091 128.788 92.0909 128.788 92.0909C128.788 92.0909 129.71 90.787 131.433 89.5251C132.05 89.0178 132.809 88.6992 133.58 88.6992C133.861 88.6992 134.142 88.7411 134.419 88.8333C135.492 89.1771 136.452 89.6006 137.484 89.9443C138.1 90.1582 138.696 90.2672 139.27 90.2672C140.448 90.2672 141.526 89.8018 142.428 88.7956C142.964 88.1835 144 86.7664 144 86.7664L143.463 86.3053C143.463 86.3053 142.998 86.5862 142.008 86.5862C141.367 86.5862 140.503 86.4688 139.4 86.0747C138.788 85.8064 138.138 85.5758 137.484 85.3494C136.868 85.1272 136.281 85.014 135.714 85.014V85.014Z" fill="black"></path>
  <path fill-rule="evenodd" clip-rule="evenodd" d="M69.791 68.9525C69.4052 69.028 69.0237 69.028 68.6421 69.0699C65.9585 69.4892 63.9668 70.8685 63.124 73.5517C62.4364 75.8114 63.0108 77.8028 64.579 79.4882C65.8244 80.8508 67.6525 81.5425 69.5855 81.5425C70.747 81.5425 71.9504 81.291 73.0868 80.7879C76.4161 79.3708 77.7578 75.388 75.9213 72.2478C74.5795 69.9126 72.3949 69.0699 69.791 68.9525V68.9525Z" fill="black"></path>
</svg>
