<?xml version="1.0" encoding="UTF-8"?>
<svg xmlns="http://www.w3.org/2000/svg" width="200" height="200" viewBox="0 0 200 200" fill="none">
  <path d="M52.0446 83.4811H44.7573C44.7573 89.4613 42.0123 94.9185 37.2413 98.5132L34.3656 100.67L45.5416 115.898H54.7242L44.4305 101.879C49.2996 97.0426 52.0446 90.507 52.0446 83.4811Z" fill="#1E1E23"></path>
  <path d="M33.4507 83.4811H26V115.898H33.4507V83.4811Z" fill="#1E1E23"></path>
  <path d="M63.9068 83.4811H56.881V115.898H63.9068V83.4811Z" fill="#1E1E23"></path>
  <path d="M125.538 92.8598C122.859 92.8598 120.31 93.6768 118.61 95.9969V93.4807H111.944V115.898H118.708V104.134C118.708 100.735 120.996 99.0687 123.741 99.0687C126.682 99.0687 128.381 100.833 128.381 104.101V115.931H135.08V101.65C135.08 96.4217 130.93 92.8598 125.538 92.8598Z" fill="#1E1E23"></path>
  <path d="M85.1477 93.4807V94.9185C83.2523 93.6114 80.9648 92.8598 78.4813 92.8598C71.9456 92.8598 66.6517 98.1537 66.6517 104.689C66.6517 111.225 71.9456 116.519 78.4813 116.519C80.9648 116.519 83.2523 115.767 85.1477 114.46V115.898H91.8467V93.4807H85.1477ZM79.0368 110.441C75.6709 110.441 72.9586 107.859 72.9586 104.689C72.9586 101.52 75.6709 98.938 79.0368 98.938C82.4027 98.938 85.115 101.52 85.115 104.689C85.115 107.859 82.4027 110.441 79.0368 110.441Z" fill="#1E1E23"></path>
  <path d="M102.238 96.3891V93.4808H95.376V115.898H102.271V105.441C102.271 101.912 106.094 100.016 108.741 100.016C108.774 100.016 108.807 100.016 108.807 100.016V93.4808C106.094 93.4808 103.578 94.6572 102.238 96.3891Z" fill="#1E1E23"></path>
  <path d="M155.929 93.4807V94.9185C154.034 93.6114 151.746 92.8598 149.263 92.8598C142.727 92.8598 137.433 98.1537 137.433 104.689C137.433 111.225 142.727 116.519 149.263 116.519C151.746 116.519 154.034 115.767 155.929 114.46V115.898H162.628V93.4807H155.929ZM149.818 110.441C146.452 110.441 143.74 107.859 143.74 104.689C143.74 101.52 146.452 98.938 149.818 98.938C153.184 98.938 155.896 101.52 155.896 104.689C155.929 107.859 153.184 110.441 149.818 110.441Z" fill="#1E1E23"></path>
  <path d="M167.824 94.1343C167.824 93.8075 167.595 93.6115 167.236 93.6115H166.615V95.3107H166.909V94.6898H167.236L167.497 95.3107H167.824L167.53 94.6245C167.726 94.5264 167.824 94.3631 167.824 94.1343ZM167.236 94.3957H166.909V93.8729H167.236C167.432 93.8729 167.53 93.9709 167.53 94.1343C167.53 94.2977 167.464 94.3957 167.236 94.3957Z" fill="#1E1E23"></path>
  <path d="M167.138 92.8926C166.255 92.8926 165.536 93.6115 165.536 94.4938C165.569 95.3761 166.255 96.0951 167.138 96.0951C168.02 96.0951 168.739 95.3761 168.739 94.4938C168.739 93.6115 168.02 92.8926 167.138 92.8926ZM167.138 95.8009C166.419 95.8009 165.863 95.2127 165.863 94.4938C165.863 93.7749 166.451 93.1867 167.138 93.1867C167.857 93.1867 168.412 93.7749 168.412 94.4938C168.412 95.2127 167.824 95.8009 167.138 95.8009Z" fill="#1E1E23"></path>
  <path d="M169.784 107.957C167.464 107.957 165.569 109.852 165.569 112.173C165.569 114.493 167.464 116.388 169.784 116.388C172.105 116.388 174 114.493 174 112.173C174 109.82 172.105 107.957 169.784 107.957Z" fill="#1E1E23"></path>
</svg>
