<?xml version="1.0" encoding="UTF-8"?>
<svg xmlns="http://www.w3.org/2000/svg" width="200" height="200" viewBox="0 0 200 200" fill="none">
  <path d="M81.0363 94.6483C78.8665 94.6483 77.7932 96.3557 77.3007 97.4571C77.0256 98.0721 76.9486 98.5583 76.7254 98.5583C76.411 98.5583 76.6362 98.1357 76.3789 97.1985C76.0403 95.9654 75.0199 94.6483 72.8516 94.6483C70.5721 94.6483 69.5961 96.5743 69.1333 97.6326C68.8168 98.3561 68.8165 98.5583 68.5731 98.5583C68.2204 98.5583 68.5126 97.9836 68.6712 97.3079C68.9838 95.9777 68.7461 94.9611 68.7461 94.9611H65.1326V108.549H70.0649C70.0649 108.549 70.0649 102.87 70.0649 101.788C70.0649 100.455 70.6227 98.7629 71.5789 98.7629C72.6836 98.7629 72.9047 99.6112 72.9047 101.182C72.9047 102.607 72.9047 108.552 72.9047 108.552H77.8568C77.8568 108.552 77.8568 102.839 77.8568 101.788C77.8568 100.601 78.3412 98.7629 79.378 98.7629C80.4981 98.7629 80.6964 99.9548 80.6964 101.182C80.6964 102.41 80.6964 108.549 80.6964 108.549H85.5595C85.5595 108.549 85.5595 103.165 85.5595 100.558C85.5595 97.0124 84.3095 94.6483 81.0363 94.6483" fill="#1E1E23"></path>
  <path d="M164.755 94.6483C162.585 94.6483 161.512 96.3557 161.019 97.4571C160.744 98.0721 160.667 98.5583 160.444 98.5583C160.129 98.5583 160.34 98.0214 160.097 97.1985C159.736 95.9719 158.837 94.6483 156.57 94.6483C154.291 94.6483 153.315 96.5743 152.852 97.6326C152.535 98.3561 152.535 98.5583 152.292 98.5583C151.939 98.5583 152.231 97.9836 152.39 97.3079C152.702 95.9777 152.465 94.9611 152.465 94.9611H148.851V108.549H153.784C153.784 108.549 153.784 102.87 153.784 101.788C153.784 100.455 154.341 98.7629 155.297 98.7629C156.402 98.7629 156.623 99.6112 156.623 101.182C156.623 102.607 156.623 108.552 156.623 108.552H161.575C161.575 108.552 161.575 102.839 161.575 101.788C161.575 100.601 162.06 98.7629 163.097 98.7629C164.217 98.7629 164.415 99.9548 164.415 101.182C164.415 102.41 164.415 108.549 164.415 108.549H169.278C169.278 108.549 169.278 103.165 169.278 100.558C169.278 97.0124 168.028 94.6483 164.755 94.6483" fill="#1E1E23"></path>
  <path d="M92.7805 105.373C91.601 105.645 90.9896 105.282 90.9896 104.5C90.9896 103.43 92.0973 103.001 93.6784 103.001C94.3753 103.001 95.0307 103.061 95.0307 103.061C95.0307 103.519 94.0356 105.083 92.7805 105.373ZM93.9813 94.6512C90.2031 94.6512 87.492 96.0403 87.492 96.0403V100.123C87.492 100.123 90.486 98.402 92.9146 98.402C94.8532 98.402 95.0914 99.4476 95.0031 100.315C95.0031 100.315 94.4441 100.167 92.7378 100.167C88.7179 100.167 86.6884 101.994 86.6884 104.924C86.6884 107.703 88.9692 108.865 90.8907 108.865C93.6947 108.865 94.9272 106.981 95.306 106.087C95.5689 105.466 95.6167 105.048 95.8529 105.048C96.1219 105.048 96.0314 105.348 96.0184 105.965C95.9955 107.046 96.0464 107.863 96.2178 108.552H99.9354V101.865C99.9354 97.6897 98.4582 94.6512 93.9813 94.6512" fill="#1E1E23"></path>
  <path d="M108.06 108.552H112.992V90.8477H108.06V108.552Z" fill="#1E1E23"></path>
  <path d="M118.422 101.758C118.422 100.536 119.556 99.4246 121.64 99.4246C123.911 99.4246 125.737 100.518 126.146 100.766V96.0403C126.146 96.0403 124.704 94.6512 121.158 94.6512C117.42 94.6512 114.307 96.8386 114.307 101.546C114.307 106.254 117.132 108.865 121.148 108.865C124.285 108.865 126.154 107.141 126.154 107.141V102.653C125.563 102.984 123.914 104.128 121.663 104.128C119.279 104.128 118.422 103.031 118.422 101.758" fill="#1E1E23"></path>
  <path d="M136.138 94.6513C133.283 94.6513 132.197 97.3571 131.977 97.827C131.758 98.2967 131.65 98.567 131.47 98.5612C131.158 98.551 131.376 97.9845 131.497 97.6175C131.727 96.9245 132.213 95.1059 132.213 92.8709C132.213 91.355 132.008 90.8476 132.008 90.8476H127.75V108.552H132.683C132.683 108.552 132.683 102.892 132.683 101.791C132.683 100.69 133.122 98.7658 134.365 98.7658C135.394 98.7658 135.716 99.5285 135.716 101.064C135.716 102.6 135.716 108.552 135.716 108.552H140.649C140.649 108.552 140.649 104.411 140.649 101.36C140.649 97.8717 140.071 94.6513 136.138 94.6513" fill="#1E1E23"></path>
  <path d="M142.252 94.9796V108.552H147.184V94.9796C147.184 94.9796 146.355 95.4645 144.723 95.4645C143.091 95.4645 142.252 94.9796 142.252 94.9796" fill="#1E1E23"></path>
  <path d="M144.703 90.7101C143.036 90.7101 141.684 91.5924 141.684 92.6808C141.684 93.769 143.036 94.6513 144.703 94.6513C146.371 94.6513 147.723 93.769 147.723 92.6808C147.723 91.5924 146.371 90.7101 144.703 90.7101Z" fill="#1E1E23"></path>
  <path d="M101.532 94.9796V108.552H106.464V94.9796C106.464 94.9796 105.635 95.4645 104.003 95.4645C102.371 95.4645 101.532 94.9796 101.532 94.9796" fill="#1E1E23"></path>
  <path d="M103.983 90.7101C102.316 90.7101 100.964 91.5924 100.964 92.6808C100.964 93.769 102.316 94.6513 103.983 94.6513C105.651 94.6513 107.002 93.769 107.002 92.6808C107.002 91.5924 105.651 90.7101 103.983 90.7101Z" fill="#1E1E23"></path>
  <path d="M177.724 105.632C176.593 105.632 175.76 104.197 175.76 102.199C175.76 100.257 176.615 98.7659 177.685 98.7659C179.058 98.7659 179.642 100.025 179.642 102.199C179.642 104.46 179.103 105.632 177.724 105.632ZM179.078 94.6483C176.542 94.6483 175.38 96.5496 174.875 97.6326C174.541 98.3483 174.558 98.5583 174.315 98.5583C173.962 98.5583 174.254 97.9836 174.413 97.3079C174.726 95.9777 174.488 94.9611 174.488 94.9611H170.874V112.301H175.807C175.807 112.301 175.807 109.464 175.807 106.804C176.39 107.794 177.471 108.852 179.138 108.852C182.705 108.852 184.5 105.834 184.5 101.757C184.5 97.1356 182.351 94.6483 179.078 94.6483" fill="#1E1E23"></path>
  <path d="M47.7074 98.7525C48.0391 98.713 48.3569 98.7111 48.6488 98.7525C48.8178 98.3649 48.847 97.6967 48.6948 96.9692C48.4689 95.8877 48.1632 95.2332 47.5312 95.335C46.8993 95.4369 46.8759 96.2205 47.1019 97.302C47.229 97.9103 47.4553 98.4302 47.7074 98.7525" fill="#1E1E23"></path>
  <path d="M42.2822 99.6083C42.7343 99.8068 43.0122 99.9383 43.1209 99.8233C43.1908 99.7517 43.17 99.615 43.0621 99.4385C42.8389 99.0742 42.3798 98.7049 41.8928 98.4973C40.8968 98.0686 39.709 98.2112 38.7926 98.8696C38.4902 99.0913 38.2034 99.3983 38.2444 99.5847C38.2578 99.645 38.303 99.6905 38.4091 99.7053C38.6587 99.7339 39.5302 99.2931 40.5341 99.2317C41.2428 99.1883 41.8299 99.41 42.2822 99.6083" fill="#1E1E23"></path>
  <path d="M41.3726 100.127C40.7836 100.22 40.4588 100.414 40.2503 100.595C40.0724 100.75 39.9624 100.922 39.9633 101.043C39.9637 101.101 39.9887 101.134 40.0084 101.151C40.0353 101.174 40.067 101.187 40.1052 101.187C40.2382 101.187 40.5362 101.068 40.5362 101.068C41.3557 100.774 41.8963 100.81 42.4321 100.871C42.7281 100.904 42.868 100.923 42.9329 100.821C42.9522 100.792 42.9754 100.729 42.9162 100.633C42.7782 100.409 42.1836 100.031 41.3726 100.127" fill="#1E1E23"></path>
  <path d="M45.8755 102.032C46.2753 102.229 46.7155 102.152 46.8589 101.86C47.0021 101.569 46.7941 101.173 46.3942 100.976C45.9944 100.78 45.5542 100.857 45.4108 101.149C45.2676 101.44 45.4755 101.836 45.8755 102.032Z" fill="#1E1E23"></path>
  <path d="M48.4461 99.7861C48.1212 99.7805 47.8519 100.137 47.8443 100.583C47.8367 101.028 48.094 101.394 48.4188 101.399C48.7436 101.405 49.0132 101.048 49.0206 100.603C49.0282 100.157 48.7709 99.7915 48.4461 99.7861Z" fill="#1E1E23"></path>
  <path d="M26.627 107.818C26.5462 107.717 26.4135 107.748 26.2849 107.778C26.1951 107.799 26.0934 107.822 25.9819 107.821C25.743 107.816 25.5406 107.714 25.427 107.539C25.279 107.312 25.2876 106.973 25.451 106.586C25.473 106.533 25.499 106.475 25.5272 106.412C25.7877 105.827 26.2238 104.849 25.7342 103.917C25.3657 103.215 24.7648 102.778 24.0422 102.686C23.3486 102.598 22.6345 102.856 22.1789 103.358C21.4603 104.151 21.348 105.23 21.487 105.611C21.5379 105.751 21.6176 105.789 21.6755 105.797C21.7977 105.813 21.9785 105.725 22.0918 105.42C22.0999 105.398 22.1107 105.364 22.1242 105.321C22.1747 105.16 22.2687 104.86 22.4226 104.619C22.6082 104.329 22.8972 104.13 23.2365 104.057C23.5822 103.983 23.9354 104.049 24.2311 104.243C24.7346 104.572 24.9285 105.189 24.7135 105.777C24.6025 106.082 24.4219 106.664 24.4618 107.142C24.5422 108.11 25.1376 108.499 25.6725 108.54C26.1926 108.56 26.5561 108.268 26.648 108.054C26.7023 107.928 26.6565 107.851 26.6271 107.818" fill="#1E1E23"></path>
  <path d="M31.5712 90.0403C33.2675 88.0802 35.3557 86.3762 37.2262 85.4193C37.2909 85.3861 37.3595 85.4564 37.3245 85.5198C37.1759 85.7888 36.89 86.3648 36.7993 86.8017C36.7852 86.8698 36.8592 86.921 36.9167 86.8818C38.0804 86.0886 40.1049 85.2386 41.8806 85.1294C41.9568 85.1246 41.9937 85.2225 41.9331 85.269C41.6629 85.4763 41.3676 85.7629 41.1519 86.0528C41.1151 86.1021 41.1498 86.1732 41.2112 86.1736C42.458 86.1825 44.2157 86.6188 45.3614 87.2614C45.439 87.3048 45.3837 87.4549 45.2971 87.435C43.5637 87.0379 40.7263 86.7364 37.779 87.4553C35.1477 88.0971 33.1394 89.0879 31.6743 90.1535C31.6003 90.2075 31.5114 90.1097 31.5712 90.0403L31.5712 90.0403ZM40.0194 109.032C40.0196 109.032 40.0197 109.033 40.0199 109.033C40.0203 109.033 40.0204 109.034 40.0209 109.035C40.0204 109.034 40.0199 109.033 40.0194 109.032V109.032ZM47.0145 109.857C47.0648 109.836 47.0995 109.779 47.0935 109.722C47.0865 109.652 47.024 109.601 46.9539 109.608C46.9539 109.608 43.3338 110.144 39.9142 108.892C40.2867 107.681 41.2771 108.118 42.7742 108.239C45.4726 108.4 47.8909 108.006 49.6782 107.493C51.227 107.048 53.2611 106.172 54.8411 104.925C55.3741 106.096 55.5622 107.384 55.5622 107.384C55.5622 107.384 55.9748 107.31 56.3194 107.522C56.6452 107.723 56.8841 108.139 56.7209 109.217C56.3886 111.23 55.5331 112.863 54.0952 114.366C53.2198 115.309 52.1572 116.128 50.9414 116.723C50.2956 117.063 49.6081 117.356 48.8818 117.593C43.4609 119.364 37.9122 117.417 36.1235 113.237C35.9809 112.923 35.8601 112.594 35.7649 112.25C35.0027 109.496 35.6497 106.191 37.6725 104.111C37.6727 104.111 37.6723 104.11 37.6725 104.11C37.7972 103.977 37.9244 103.821 37.9244 103.625C37.9244 103.461 37.8202 103.288 37.7296 103.165C37.0219 102.138 34.5706 100.389 35.0626 97.0044C35.416 94.5725 37.5426 92.8599 39.5255 92.9614C39.6931 92.9701 39.8609 92.9803 40.0281 92.9902C40.8874 93.0412 41.637 93.1514 42.3443 93.1809C43.5283 93.2321 44.5929 93.0599 45.8538 92.0094C46.2792 91.6549 46.6201 91.3477 47.1972 91.2499C47.2579 91.2395 47.4087 91.1853 47.7104 91.1996C48.0181 91.2159 48.3112 91.3006 48.5745 91.4759C49.5855 92.1485 49.7287 93.7776 49.7812 94.9695C49.8111 95.6498 49.8934 97.2958 49.9214 97.7683C49.9858 98.8487 50.2698 99.001 50.8443 99.1902C51.1675 99.2967 51.4675 99.3759 51.9095 99.5C53.2476 99.8757 54.041 100.257 54.541 100.746C54.8393 101.052 54.978 101.378 55.0209 101.688C55.1786 102.839 54.1271 104.261 51.3437 105.553C48.301 106.965 44.6098 107.322 42.0594 107.038C41.8639 107.017 41.1682 106.938 41.1658 106.937C39.1258 106.663 37.9621 109.299 39.1864 111.105C39.9756 112.269 42.1249 113.027 44.2753 113.028C49.2059 113.028 52.9957 110.923 54.4054 109.104C54.4476 109.05 54.4517 109.044 54.5182 108.943C54.5875 108.839 54.5304 108.781 54.4439 108.84C53.2921 109.628 48.1764 112.757 42.7042 111.816C42.7042 111.816 42.0394 111.707 41.4324 111.471C40.9501 111.283 39.9405 110.818 39.8179 109.783C44.2339 111.148 47.0145 109.857 47.0145 109.857V109.857ZM22.7589 99.3625C21.2231 99.6612 19.8694 100.532 19.0417 101.734C18.547 101.321 17.6253 100.522 17.4625 100.211C16.141 97.702 18.9047 92.8233 20.8354 90.0681C25.6067 83.2592 33.0797 78.1054 36.539 79.0406C37.1015 79.1998 38.964 81.3593 38.964 81.3593C38.964 81.3593 35.5061 83.278 32.2992 85.9524C27.9782 89.2795 24.7142 94.1152 22.7589 99.3625ZM25.3396 110.877C25.1071 110.917 24.8701 110.932 24.6309 110.927C22.3201 110.865 19.824 108.784 19.576 106.317C19.3018 103.59 20.6952 101.492 23.1622 100.994C23.4571 100.934 23.8136 100.9 24.1979 100.92C25.5802 100.996 27.6172 102.057 28.0825 105.069C28.4947 107.735 27.8401 110.451 25.3396 110.877V110.877ZM56.6428 106.048C56.623 105.978 56.494 105.507 56.3168 104.939C56.1397 104.371 55.9562 103.971 55.9562 103.971C56.6669 102.907 56.6795 101.955 56.5851 101.416C56.4842 100.748 56.2061 100.179 55.6455 99.5905C55.0849 99.002 53.9384 98.3993 52.3271 97.9469C52.1429 97.8951 51.5352 97.7283 51.4817 97.7122C51.4775 97.6773 51.4372 95.7191 51.4007 94.8786C51.374 94.2708 51.3218 93.3221 51.0274 92.3877C50.6766 91.1229 50.0654 90.0162 49.3026 89.3081C51.4079 87.1258 52.7222 84.7216 52.7191 82.6591C52.713 78.6928 47.8419 77.4927 41.839 79.9783C41.8327 79.9809 40.5763 80.5137 40.5672 80.5182C40.5614 80.5128 38.2678 78.2622 38.2333 78.2321C31.3892 72.2625 9.99053 96.0476 16.8321 101.824L18.3272 103.091C17.9394 104.096 17.787 105.247 17.9115 106.485C18.0713 108.074 18.8914 109.599 20.2206 110.776C21.4824 111.894 23.1414 112.601 24.7513 112.6C27.4137 118.736 33.4968 122.499 40.6293 122.711C48.2802 122.938 54.7027 119.348 57.3939 112.899C57.5699 112.447 58.317 110.407 58.317 108.607C58.317 106.798 57.2941 106.048 56.6428 106.048" fill="#1E1E23"></path>
</svg>
