<?xml version="1.0" encoding="UTF-8"?>
<svg xmlns="http://www.w3.org/2000/svg" width="200" height="200" viewBox="0 0 200 200" fill="none">
  <path d="M79.9495 85.7814H85.6651L95.3838 103.362L105.102 85.7814H110.694V114.669H106.031V92.5289L97.5091 107.86H93.1347L84.6127 92.5289V114.669H79.9495V85.7814Z" fill="#1E1E23"></path>
  <path d="M125.736 115.185C123.576 115.185 121.678 114.707 120.041 113.751C118.404 112.795 117.128 111.471 116.214 109.779C115.299 108.087 114.841 106.147 114.841 103.96C114.841 101.746 115.289 99.7853 116.183 98.0795C117.077 96.374 118.318 95.0396 119.907 94.0763C121.496 93.1137 123.322 92.6322 125.385 92.632C127.435 92.632 129.199 93.1168 130.678 94.0866C132.157 95.0566 133.295 96.4151 134.093 98.162C134.891 99.9091 135.29 101.959 135.29 104.311V105.59H119.463C119.752 107.351 120.464 108.737 121.599 109.748C122.734 110.759 124.168 111.265 125.901 111.265C127.291 111.265 128.487 111.058 129.492 110.646C130.496 110.233 131.438 109.607 132.319 108.768L134.795 111.801C132.332 114.057 129.313 115.185 125.736 115.185ZM129.141 98.0484C128.164 97.0512 126.885 96.5525 125.303 96.5524C123.762 96.5524 122.473 97.0614 121.434 98.0795C120.395 99.0974 119.738 100.466 119.463 102.186H130.812C130.675 100.425 130.117 99.0457 129.141 98.0484Z" fill="#1E1E23"></path>
  <path d="M140.944 96.9653H136.652V93.1479H140.944V86.8339H145.442V93.1479H151.962V96.9653H145.442V106.643C145.442 108.252 145.717 109.401 146.267 110.088C146.817 110.776 147.76 111.12 149.094 111.12C149.686 111.12 150.188 111.096 150.601 111.048C151.013 111 151.467 110.935 151.962 110.852V114.628C151.397 114.791 150.822 114.915 150.24 114.999C149.573 115.097 148.901 115.146 148.228 115.144C143.372 115.144 140.944 112.489 140.944 107.179V96.9653Z" fill="#1E1E23"></path>
  <path d="M175.403 114.669H170.988V111.657C170.204 112.785 169.206 113.655 167.996 114.267C166.785 114.879 165.41 115.185 163.869 115.185C161.971 115.185 160.289 114.7 158.824 113.73C157.359 112.761 156.207 111.426 155.368 109.727C154.529 108.028 154.109 106.085 154.109 103.898C154.109 101.697 154.535 99.7508 155.388 98.0587C156.241 96.3669 157.421 95.0394 158.927 94.0763C160.433 93.1137 162.163 92.6322 164.117 92.632C165.588 92.632 166.909 92.9174 168.078 93.4884C169.232 94.0464 170.231 94.8789 170.988 95.9128V93.1479H175.403V114.669ZM170.905 100.679C170.424 99.4551 169.663 98.4886 168.625 97.7801C167.586 97.0718 166.386 96.7176 165.024 96.7176C163.098 96.7176 161.565 97.3641 160.423 98.6571C159.281 99.9502 158.71 101.697 158.711 103.898C158.711 106.113 159.261 107.867 160.361 109.16C161.462 110.453 162.954 111.1 164.839 111.1C166.228 111.1 167.466 110.742 168.553 110.026C169.639 109.312 170.424 108.349 170.905 107.138V100.679Z" fill="#1E1E23"></path>
  <path d="M57.4178 84.8049C53.6679 84.8049 50.7366 87.6293 48.083 91.217C44.4366 86.5741 41.387 84.8049 37.7376 84.8049C30.2972 84.8049 24.5964 94.4879 24.5964 104.737C24.5964 111.15 27.6991 115.195 32.8961 115.195C36.6365 115.195 39.3266 113.432 44.109 105.072C44.109 105.072 46.1025 101.552 47.474 99.1265C47.9545 99.9024 48.4607 100.739 48.9924 101.635L51.235 105.407C55.6035 112.718 58.0374 115.195 62.4479 115.195C67.5108 115.195 70.3284 111.095 70.3284 104.548C70.3284 93.8172 64.4991 84.8049 57.4178 84.8049ZM40.4622 102.808C36.5848 108.886 35.2435 110.249 33.0847 110.249C30.8631 110.249 29.5427 108.298 29.5427 104.821C29.5427 97.3802 33.2524 89.7721 37.6747 89.7721C40.0695 89.7721 42.0707 91.1552 45.1361 95.5436C42.2254 100.008 40.4622 102.808 40.4622 102.808ZM55.0959 102.043L52.4146 97.5715C51.689 96.3913 50.9916 95.3051 50.3226 94.3127C52.7392 90.5828 54.7326 88.7242 57.1034 88.7242C62.0287 88.7242 65.969 95.9759 65.969 104.883C65.969 108.279 64.8569 110.249 62.5527 110.249C60.3442 110.249 59.2892 108.79 55.0959 102.043Z" fill="#1E1E23"></path>
</svg>
