<?xml version="1.0" encoding="UTF-8"?>
<svg xmlns="http://www.w3.org/2000/svg" width="200" height="200" viewBox="0 0 200 200" fill="none">
  <path d="M120.801 92.4745C125.061 92.4745 128.611 95.7403 128.611 100.142C128.611 104.26 125.061 107.525 120.801 107.525C116.4 107.525 112.992 104.118 112.992 99.858C112.992 95.5983 116.684 92.4745 120.801 92.4745ZM139.97 92.9005C142.526 92.9005 144.088 94.4624 144.088 97.0182C144.088 98.9379 143.207 100.297 141.687 100.853C142.73 101.62 143.496 102.901 144.372 104.402C144.94 105.396 145.65 106.248 146.644 107.099H143.946L141.958 104.26C140.112 101.42 139.26 101.136 138.124 101.136H134.716V107.099H132.587V92.9005H139.97ZM181.573 107.099H179.443V92.9005H186.827C189.382 92.9005 190.944 94.4624 190.944 97.0182C190.944 98.9379 190.064 100.297 188.543 100.853C189.587 101.62 190.352 102.901 191.228 104.402C191.796 105.396 192.506 106.248 193.5 107.099H190.802L188.814 104.26C186.968 101.42 186.117 101.136 184.981 101.136H181.573V107.099V107.099ZM105.751 92.9005C108.306 92.9005 110.01 94.4624 110.01 97.0182C110.01 99.574 108.448 101.136 105.893 101.136H99.645V107.099H97.5152V92.9005H105.751ZM159.991 92.9005V95.0304H155.021V107.099H152.891V95.0304H147.921V92.9005H159.991ZM50.3747 92.9005V95.0304H45.4051V107.099H43.4172V95.0304H38.3056V92.9005H50.3747ZM8.48785 92.9005L17.0072 103.692V92.9005H19.1371V107.099H17.0072L8.62984 96.3083H8.48785V107.099H6.5V92.9005H8.48785ZM74.0869 92.9005L80.3345 107.099H78.0626L76.3588 102.982H69.5433L67.5554 107.099H65.2836L71.8151 92.9005H74.0869ZM34.7559 92.9005V95.0304H26.6625V99.0061H33.62V100.994H26.6625V105.112H34.7559V107.099H24.5327V92.9005H34.7559V92.9005ZM174.189 92.9005V95.0304H166.096V99.0061H173.054V100.994H166.096V105.112H174.189V107.099H163.966V92.9005H174.189ZM120.801 94.7464C117.536 94.7464 114.98 97.0182 114.98 100.142C114.98 103.124 117.678 105.396 120.801 105.396C123.925 105.396 126.481 102.982 126.623 100.142C126.623 97.0182 123.925 94.7464 120.801 94.7464V94.7464ZM92.2616 99.0061V101.136H83.6002V99.0061H92.2616ZM62.1598 99.0061V101.136H53.4985V99.0061H62.1598ZM72.951 95.4563L70.3952 100.994H75.3648L72.951 95.4563V95.4563ZM105.751 95.0304H99.645V99.0061H105.751C107.17 99.0061 107.88 98.2961 107.88 97.0182C107.88 95.5983 107.17 95.0304 105.751 95.0304V95.0304ZM139.97 95.0304H134.716V99.0061H139.97C141.248 99.0061 142.1 98.2961 142.1 97.0182C142.1 95.5983 141.39 95.0304 139.97 95.0304V95.0304ZM186.827 95.0304H181.573V99.0061H186.827C188.104 99.0061 188.956 98.2961 188.956 97.0182C188.956 95.5983 188.246 95.0304 186.827 95.0304V95.0304Z" fill="#1E1E23"></path>
</svg>
