<?xml version="1.0" encoding="UTF-8"?>
<svg xmlns="http://www.w3.org/2000/svg" width="200" height="200" viewBox="0 0 200 200" fill="none">
  <path d="M49.9754 116.244C47.8995 116.608 45.787 116.718 43.6018 117.009L36.9366 97.487V117.846C34.8606 118.065 32.9668 118.356 31 118.648V81.3523H36.5362L44.1116 102.513V81.3523H49.9754V116.244ZM61.4481 95.0103C63.7064 95.0103 67.1664 94.901 69.2423 94.901V100.728C66.6563 100.728 63.6335 100.728 61.4481 100.838V109.506C64.8719 109.287 68.2954 108.996 71.7553 108.887V114.495L55.6206 115.77V81.3523H71.7553V87.1797H61.4481V95.0103V95.0103ZM93.4259 87.1799H87.38V113.986C85.4132 113.986 83.4465 113.986 81.5529 114.058V87.1799H75.507V81.3523H93.4261L93.4259 87.1799V87.1799ZM102.895 94.6098H110.872V100.437H102.895V113.658H97.1768V81.3523H113.458V87.1797H102.895V94.6098V94.6098ZM122.927 108.559C126.241 108.632 129.592 108.887 132.834 109.069V114.823C127.625 114.495 122.417 114.168 117.1 114.058V81.3523H122.927V108.559ZM137.75 115.224C139.608 115.333 141.575 115.443 143.469 115.661V81.3523H137.75V115.224V115.224ZM169 81.3523L161.606 99.0895L169 118.648C166.815 118.356 164.629 117.956 162.444 117.591L158.256 106.811L153.995 116.718C151.882 116.353 149.842 116.244 147.73 115.952L155.233 98.8708L148.459 81.3523H154.723L158.547 91.1497L162.626 81.3523H169V81.3523Z" fill="#1E1E23"></path>
</svg>
