<?xml version="1.0" encoding="UTF-8"?>
<svg xmlns="http://www.w3.org/2000/svg" width="200" height="200" viewBox="0 0 200 200" fill="none">
  <path fill-rule="evenodd" clip-rule="evenodd" d="M61.0019 93.6114C61.0019 103.109 56.1771 110.619 48.9133 110.619C41.8131 110.619 36.719 103.429 36.719 93.502C36.719 84.0041 41.5419 76.4939 48.8057 76.4939C55.9068 76.4939 61.0019 83.6842 61.0019 93.6114ZM68.9699 93.3439C68.9699 82.6656 60.7298 74.1864 48.9133 74.1864C38.0189 74.1864 28.75 81.9135 28.75 93.7686C28.75 104.447 36.9893 112.925 48.8057 112.925C59.7001 112.925 68.9699 105.203 68.9699 93.343V93.3439ZM86.5296 97.2042C86.5296 100.961 84.7957 104.18 82.0855 104.18C79.4837 104.18 77.4243 101.336 77.4243 96.99C77.4243 93.2878 79.1582 90.014 81.9227 90.014C84.4703 90.014 86.5296 92.8575 86.5296 97.2042ZM104.965 82.4504C104.965 79.7668 102.525 77.7819 98.0252 77.7819C91.8462 77.7819 87.0766 81.7536 87.0766 87.8167C87.0766 88.2994 87.1309 88.6754 87.1309 89.0514C85.53 88.4018 83.8168 88.0737 82.0891 88.0861C77.212 88.0861 71.3575 91.0372 71.3575 97.423C71.3903 98.9432 71.8364 100.426 72.6481 101.711C73.4597 102.997 74.6062 104.037 75.9644 104.721C71.6278 105.31 69.1354 107.619 69.1354 111.213C69.1354 114.862 72.0627 117.492 77.5365 116.848L85.4503 115.883C89.4081 115.4 90.7081 116.794 90.7081 118.834C90.7081 122.375 87.3478 125.22 81.9816 125.22C77.6992 125.22 76.1271 123.717 76.1271 121.57C76.1271 121.248 76.1823 120.819 76.1823 120.497C76.2013 120.208 76.1607 119.918 76.063 119.645C75.9653 119.372 75.8125 119.123 75.6143 118.911C75.416 118.7 75.1764 118.532 74.9104 118.417C74.6443 118.302 74.3575 118.243 74.0678 118.244C73.7282 118.233 73.3904 118.296 73.077 118.427C72.7636 118.558 72.4819 118.755 72.2508 119.004C72.0197 119.253 71.8445 119.548 71.7371 119.87C71.6296 120.193 71.5924 120.534 71.6278 120.872C71.6278 124.414 75.0432 127.583 82.0358 127.583C89.8954 127.583 94.882 122.539 94.882 116.744C94.882 112.129 91.142 109.607 85.9927 110.251L76.9398 111.377C73.9593 111.753 73.0381 110.787 73.0381 109.285C73.0381 107.513 74.9899 106.119 81.7646 106.119H81.8731C86.8054 106.119 92.6056 103.167 92.6056 96.7813C92.6121 94.7605 91.8354 92.8158 90.4387 91.3553C89.9485 90.318 89.7251 89.1746 89.7887 88.0291C89.7887 83.3073 93.0396 80.6246 96.4007 80.6246C97.8101 80.6246 98.2394 80.8388 98.2394 81.805C98.2394 82.0726 98.1852 82.2877 98.1852 82.6095C98.231 83.491 98.6188 84.3199 99.2661 84.9201C99.9134 85.5202 100.769 85.8442 101.652 85.8232C102.534 85.8023 103.374 85.438 103.992 84.8079C104.61 84.1777 104.958 83.3313 104.962 82.4486L104.965 82.4504ZM121.764 110.619L119.108 110.351C118.915 110.329 118.739 110.233 118.618 110.082C118.496 109.932 118.439 109.739 118.458 109.547V72.4166L108.918 74.8317V75.958L111.628 76.8166C111.816 76.8784 111.978 77.0024 112.087 77.1684C112.195 77.3343 112.244 77.5322 112.225 77.7295V109.388C112.219 109.535 112.182 109.679 112.118 109.812C112.053 109.945 111.962 110.062 111.85 110.158C111.737 110.254 111.607 110.325 111.466 110.368C111.324 110.411 111.176 110.424 111.03 110.407L108.611 110.456L106.044 110.407C105.897 110.424 105.749 110.411 105.608 110.368C105.467 110.325 105.336 110.254 105.224 110.158C105.111 110.062 105.02 109.945 104.956 109.812C104.891 109.679 104.855 109.535 104.849 109.388V87.9776L95.3113 90.3927V91.519L98.0206 92.3776C98.209 92.4394 98.3707 92.5634 98.4792 92.7294C98.5876 92.8953 98.6363 93.0932 98.6173 93.2905V109.548C98.6366 109.741 98.5793 109.934 98.4576 110.084C98.3359 110.235 98.1597 110.331 97.9673 110.353L95.7452 110.621V112.339H121.763V110.622L121.764 110.619ZM171.25 90.5527V88.8896H161.98V90.4985L164.148 90.9278C164.907 91.0887 165.124 91.6798 164.636 92.8585L159.65 104.771C159.434 105.254 159.161 105.254 158.999 104.771L154.338 92.8585C153.849 91.6247 154.121 91.0887 154.879 90.9278L157.048 90.4985V88.8896H137.753V90.4985L139.921 90.9278C140.68 91.0887 140.951 91.6798 140.463 92.8585L135.639 105.415C135.422 105.899 135.152 105.899 134.989 105.415L130.11 92.8585C129.677 91.6247 129.893 91.0887 130.652 90.9278L132.82 90.4985V88.8896H120.571V90.5527L121.766 90.8202C122.132 90.8787 122.475 91.034 122.761 91.27C123.047 91.5061 123.264 91.8142 123.391 92.1625L131.685 112.339H135.425L143.718 92.1625C144.151 91.0887 144.637 90.6594 145.506 90.6594H145.831C146.215 90.6509 146.591 90.7739 146.897 91.0078C147.202 91.2418 147.419 91.5729 147.51 91.9464L156.184 112.874L153.852 118.347C152.335 121.996 151.197 122.64 149.788 122.64C149.192 122.64 148.54 122.532 147.89 122.532C147.548 122.508 147.205 122.554 146.881 122.666C146.557 122.778 146.26 122.955 146.006 123.186C145.753 123.417 145.549 123.697 145.407 124.009C145.265 124.321 145.188 124.658 145.18 125.001C145.18 126.45 146.375 127.469 148.27 127.469C150.98 127.469 153.636 125.323 155.858 120.172L167.675 92.7518C167.85 92.2332 168.166 91.7733 168.587 91.423C169.008 91.0727 169.518 90.8456 170.059 90.7669L171.25 90.5527Z" fill="#1E1E23"></path>
</svg>
