<?xml version="1.0" encoding="UTF-8"?>
<svg xmlns="http://www.w3.org/2000/svg" width="200" height="200" viewBox="0 0 200 200" fill="none">
  <path fill-rule="evenodd" clip-rule="evenodd" d="M53.5936 103.974C53.5936 97.6967 57.7121 93.3387 64.1501 93.3387C70.628 93.3387 74.7466 97.6967 74.7466 103.974C74.7466 110.333 70.628 114.691 64.1501 114.691C57.7121 114.691 53.5936 110.333 53.5936 103.974ZM175.276 114.612C179.795 114.612 183.153 112.052 184.273 107.774H180.634C179.674 110.653 177.435 111.812 175.196 111.812C171.717 111.812 169.318 109.053 169.078 105.014V104.855H184.434V104.175C184.434 98.1772 181.154 93.7386 175.356 93.7386C169.558 93.7386 165.639 98.1365 165.639 104.295C165.639 110.213 169.278 114.612 175.276 114.612ZM120.065 114.612C124.583 114.612 127.942 112.052 129.062 107.774H125.423C124.463 110.653 122.225 111.812 119.985 111.812C116.507 111.812 114.106 109.053 113.867 105.014V104.855H129.221V104.175C129.221 98.1772 125.943 93.7386 120.145 93.7386C114.347 93.7386 110.428 98.1365 110.428 104.295C110.428 110.213 114.067 114.612 120.065 114.612ZM86.7829 114.612C92.1808 114.612 95.4605 111.292 95.9801 106.774H92.7004C92.2208 109.653 90.3419 111.812 86.7829 111.812C82.6643 111.812 80.2643 108.573 80.2643 104.175C80.2643 99.7759 82.6643 96.5378 86.7829 96.5378C90.1416 96.5378 91.9406 98.4973 92.5009 101.096H95.8596C95.1796 96.857 91.9406 93.7386 86.7829 93.7386C80.7839 93.7386 77.0661 98.1772 77.0661 104.175C77.0661 110.173 80.7839 114.612 86.7829 114.612ZM157.59 94.1784V87.7803H154.311V90.4989C154.311 93.2988 153.311 94.1784 150.152 94.1784H150.112V96.9768H154.311V107.573C154.311 111.812 157.15 114.452 161.628 114.452C162.603 114.452 163.502 114.308 164.297 114.045V111.135C163.323 111.467 162.413 111.573 161.628 111.573C158.989 111.573 157.59 110.173 157.59 107.573V96.9768H164.909V94.1784H157.59ZM145.344 101.136V102.016H142.585C134.547 102.016 131.708 104.855 131.708 108.654C131.708 112.172 134.308 114.371 138.226 114.371C141.865 114.371 144.304 112.532 145.264 111.013H145.344V114.172H148.543V101.136C148.543 96.5777 145.504 93.7386 140.626 93.7386C135.787 93.7386 132.708 96.3366 132.588 100.496H135.868C136.027 98.0575 137.866 96.5378 140.626 96.5378C143.544 96.5378 145.344 98.2961 145.344 101.136ZM45.5832 98.977V93.8591H39.945V114.172H45.5832V106.534C45.5832 101.606 47.4661 99.2563 52.7506 99.3992V93.7354C49.1582 94.0682 46.7389 95.6159 45.5832 98.977ZM102.356 99.0528V94.1784H99.077V114.172H102.356V105.575C102.356 100.089 104.875 97.6169 109.922 97.6592V94.0962C106.426 94.4202 103.75 95.8858 102.356 99.0528ZM37.9671 94.8983C37.9671 89.8603 34.1279 86.1808 28.2103 86.1808H16V114.172H22.2783V103.736H28.2103C34.1279 103.736 37.9671 99.9356 37.9671 94.8983ZM59.1112 103.974C59.1112 107.573 60.9511 110.173 64.1501 110.173C67.3891 110.173 69.2288 107.573 69.2288 103.974C69.2288 100.456 67.3891 97.8571 64.1501 97.8571C60.9511 97.8571 59.1112 100.456 59.1112 103.974ZM175.316 96.5378C178.955 96.5378 181.034 99.0169 181.114 102.376H169.158C169.758 98.7766 171.878 96.5378 175.316 96.5378ZM120.105 96.5378C123.744 96.5378 125.824 99.0169 125.903 102.376H113.948C114.547 98.7766 116.666 96.5378 120.105 96.5378ZM31.8093 94.8983C31.8093 97.1373 30.1291 99.0169 27.2501 99.0169H22.2783V90.8995H27.2501C30.1291 90.8995 31.8093 92.7385 31.8093 94.8983ZM186.108 95.0836C188.247 95.0836 190 93.4425 190 91.1749C190 88.9401 188.247 87.3318 186.14 87.3318C184.001 87.3318 182.248 88.956 182.248 91.2076C182.248 93.4593 184.001 95.0836 186.108 95.0836ZM186.14 88.007C187.844 88.007 189.293 89.3415 189.293 91.1909C189.293 93.057 187.829 94.3915 186.108 94.3915C184.403 94.3915 182.955 93.057 182.955 91.2076C182.955 89.3415 184.419 88.007 186.14 88.007ZM184.548 93.1535H185.272V91.4008H186.333L187.234 93.1535H188.087L187.008 91.3361C187.556 91.1909 187.926 90.7567 187.926 90.2107C187.926 89.5666 187.378 89.1013 186.607 89.1013H184.548V93.1535ZM185.272 89.7278H186.607C186.977 89.7278 187.234 89.937 187.234 90.2259C187.234 90.5484 186.944 90.7727 186.542 90.7727H185.272V89.7278ZM138.946 111.733C142.464 111.733 145.344 109.213 145.344 106.454V104.575H142.585C136.667 104.575 134.907 106.334 134.907 108.573C134.907 110.573 136.467 111.733 138.946 111.733Z" fill="black" style="fill:black;fill:black;fill-opacity:1;"></path>
</svg>
