<?xml version="1.0" encoding="UTF-8"?>
<svg xmlns="http://www.w3.org/2000/svg" width="200" height="200" viewBox="0 0 200 200" fill="none">
  <path d="M173.729 98.4726V101.893H176.132V105.286C176.14 105.59 176.123 105.917 176.071 106.178C175.976 106.811 175.374 107.889 173.668 107.889C171.972 107.889 171.381 106.811 171.279 106.178C171.236 105.917 171.218 105.59 171.218 105.286V94.568C171.218 94.1889 171.243 93.7739 171.324 93.4598C171.44 92.8886 171.946 91.762 173.655 91.762C175.449 91.762 175.897 92.9497 176 93.4598C176.067 93.7977 176.071 94.3645 176.071 94.3645V95.666H181.977V94.8966C181.977 94.8966 182.004 94.0937 181.933 93.3445C181.489 88.9452 177.864 87.5533 173.707 87.5533C169.544 87.5533 165.992 88.9581 165.475 93.3445C165.428 93.7456 165.357 94.4672 165.357 94.8966V104.756C165.357 105.186 165.371 105.518 165.45 106.303C165.836 110.581 169.544 112.098 173.691 112.098C177.864 112.098 181.546 110.581 181.938 106.303C182.008 105.518 182.015 105.186 182.024 104.756V98.4726H173.729ZM133.004 88.1842H127.073V105.534C127.082 105.836 127.073 106.176 127.021 106.425C126.897 107.007 126.403 108.128 124.767 108.128C123.152 108.128 122.645 107.007 122.531 106.425C122.471 106.176 122.464 105.836 122.471 105.534V88.1842H116.542V104.995C116.534 105.429 116.568 106.314 116.594 106.546C117.003 110.927 120.456 112.349 124.767 112.349C129.086 112.349 132.537 110.927 132.954 106.546C132.987 106.314 133.03 105.429 133.004 104.995V88.1842ZM78.5068 88.1842L75.5481 106.516L72.5912 88.1842H63.0237L62.5163 111.636H68.3776L68.5364 89.926L72.5692 111.636H78.5161L82.5526 89.926L82.7119 111.636H88.588L88.0634 88.1842H78.5068ZM43.0834 88.1842L38.7392 111.636H45.0743L48.348 89.926L51.5431 111.636H57.8342L53.508 88.1842H43.0834ZM153.733 107.066L148.21 88.1842H139.507V111.392H145.264L144.93 91.906L150.861 111.392H159.208V88.1842H153.413L153.733 107.066ZM100.48 94.2877C100.376 93.8245 100.406 93.3325 100.46 93.0753C100.627 92.3246 101.132 91.5058 102.585 91.5058C103.94 91.5058 104.734 92.3501 104.734 93.6173V95.0514H110.515V93.4168C110.515 88.3637 105.985 87.5699 102.705 87.5699C98.5741 87.5699 95.2004 88.9316 94.5843 92.7338C94.4214 93.7685 94.381 94.687 94.6403 95.859C95.6449 100.6 103.898 101.975 105.096 104.973C105.308 105.541 105.247 106.265 105.139 106.692C104.96 107.472 104.435 108.257 102.879 108.257C101.42 108.257 100.541 107.418 100.541 106.154L100.539 103.903H94.316V105.692C94.316 110.876 98.3766 112.44 102.75 112.44C106.939 112.44 110.398 111.009 110.953 107.129C111.218 105.124 111.018 103.819 110.912 103.327C109.942 98.4645 101.146 97.0018 100.48 94.2877V94.2877ZM24.2092 94.2302C24.0957 93.7574 24.1222 93.2584 24.1854 92.9982C24.3456 92.2511 24.8531 91.4178 26.332 91.4178C27.7036 91.4178 28.5113 92.2703 28.5113 93.5478V94.9993H34.3609V93.3517C34.3609 88.2501 29.7613 87.4371 26.4455 87.4371C22.2798 87.4371 18.8761 88.8199 18.2533 92.6495C18.0829 93.7008 18.0536 94.6256 18.3 95.8105C19.3154 100.605 27.6503 101.992 28.863 105.026C29.0901 105.59 29.0214 106.314 28.9088 106.757C28.7164 107.546 28.1873 108.342 26.6183 108.342C25.1533 108.342 24.277 107.488 24.277 106.206L24.2689 103.949H17.9756V105.743C17.9756 110.986 22.0937 112.563 26.5012 112.563C30.7385 112.563 34.2182 111.119 34.7858 107.194C35.068 105.171 34.8563 103.855 34.7612 103.355C33.7713 98.4332 24.8769 96.9753 24.2092 94.2302" fill="#1E1E23"></path>
</svg>
