<?xml version="1.0" encoding="UTF-8"?>
<svg xmlns="http://www.w3.org/2000/svg" width="200" height="200" viewBox="0 0 200 200" fill="none">
  <path fill-rule="evenodd" clip-rule="evenodd" d="M83.3401 110.119C82.5148 108.815 81.8393 108.125 80.6386 108.125C79.4379 108.125 78.7625 108.815 77.937 110.119L74.335 115.873C72.9842 118.097 71.8585 119.631 69.232 119.631C66.6055 119.631 65.4048 118.557 64.1291 115.566C62.5531 111.884 60.9022 107.434 59.4013 101.451C57.7504 94.7758 56.9999 90.6334 56.9999 87.2582C56.9999 83.8829 58.0505 81.8884 61.6526 81.198C66.6055 80.2775 73.2843 79.7405 80.6386 79.7405C87.9928 79.7405 94.6718 80.2775 99.6246 81.198C103.227 81.8884 104.277 83.8829 104.277 87.2582C104.277 90.6334 103.527 94.7758 101.876 101.451C100.375 107.434 98.7241 111.884 97.1482 115.566C95.8723 118.557 94.6718 119.631 92.0451 119.631C89.4186 119.631 88.293 118.097 86.9422 115.873L83.3401 110.119ZM140.448 115.503C137.897 118.265 133.094 120.26 126.79 120.26C114.108 120.26 106.604 111.438 106.604 99.8544C106.604 87.4272 115.234 80.063 126.415 80.063C136.396 80.063 143 85.356 143 92.4902C143 99.2407 137.372 103.613 130.993 103.613C127.541 103.613 124.989 102.923 123.263 101.542C122.588 101.005 122.213 101.082 122.213 101.696C122.213 104.227 123.113 106.375 124.764 108.062C126.115 109.443 128.667 110.364 131.068 110.364C133.544 110.364 135.721 109.827 137.672 108.83C139.623 107.832 141.274 108.139 142.249 109.75C143.375 111.591 141.799 113.969 140.448 115.503V115.503Z" fill="#1E1E23"></path>
</svg>
