<?xml version="1.0" encoding="UTF-8"?>
<svg xmlns="http://www.w3.org/2000/svg" width="200" height="200" viewBox="0 0 200 200" fill="none">
  <path d="M174 97.8935C174 89.2955 168.01 83.2483 159.613 83.2483C148.923 83.2483 141.758 91.0151 141.758 102.107C141.758 110.762 147.805 116.752 156.345 116.752C164.112 116.752 169.902 112.997 172.28 107.007H163.654C162.507 108.87 160.071 110.045 157.091 110.045C152.505 110.045 149.639 107.007 149.381 102.708H173.513C173.828 101.075 174 99.6704 174 97.8935ZM150.04 96.8904C150.814 92.9353 154.655 89.7828 159.297 89.7828C163.31 89.7828 166.348 92.7061 166.348 96.8904H150.04Z" fill="#1E1E23"></path>
  <path d="M118.572 115.978L120.119 107.724C124.848 108.67 125.565 106.004 126.797 99.5844L127.399 96.4032C129.119 87.4326 132.586 82.9617 142.503 84.1654L140.955 92.4195C136.226 91.4737 135.395 95.0562 134.335 100.616L133.733 103.797C132.013 112.883 128.431 117.182 118.572 115.978Z" fill="#1E1E23"></path>
  <path d="M106.993 116.007L112.84 84.0222H120.549L114.731 116.007H106.993Z" fill="#1E1E23"></path>
  <path d="M62.828 84.0222H70.3082L72.7443 107.151L82.546 84.0222H89.969L92.577 107.38L102.035 84.0222H109.486L95.9302 116.007H87.4469L84.6955 93.9958L75.3237 116.007H67.127L62.828 84.0222Z" fill="#1E1E23"></path>
  <path d="M34.8846 92.5055L26 100.989H41.1038L42.6801 97.2917H35.0279L39.8141 92.5055L37.0341 87.7193H50.017L38.0372 116.007H42.5368L56.0929 84.0222H29.8978L34.8846 92.5055Z" fill="#1E1E23"></path>
</svg>
