<?xml version="1.0" encoding="UTF-8"?>
<svg xmlns="http://www.w3.org/2000/svg" width="200" height="200" viewBox="0 0 200 200" fill="none">
  <path d="M135.564 128.781C142.385 128.781 146.523 125.37 146.523 120.338C146.523 109.181 130.83 115.24 130.83 109.644C130.83 107.856 132.419 106.83 135.266 106.83C138.047 106.83 139.703 108.121 139.869 110.273H146.225C146.225 104.843 141.756 101.566 135.366 101.566C128.91 101.566 124.937 104.711 124.937 109.81C124.937 120.867 140.564 115.074 140.564 120.437C140.564 122.291 138.809 123.516 135.697 123.516C132.486 123.516 130.664 121.927 130.598 119.279H124.142C124.142 125.238 128.843 128.781 135.564 128.781V128.781ZM95.776 128.251H101.471V111.465L114.317 128.251H120.177V102.096H114.449V118.98L101.636 102.096H95.776V128.251V128.251ZM85.2562 128.251H90.951V102.096H85.2562V128.251V128.251ZM62.5728 128.251H82.4044V123.251H68.2673V102.096H62.5728V128.251V128.251ZM45.4681 123.218C40.833 123.218 37.7207 119.775 37.7207 114.875C37.7207 110.339 40.833 107.128 45.4681 107.128C49.9708 107.128 53.0168 110.339 53.0168 114.875C53.0168 119.775 49.9708 123.218 45.4681 123.218V123.218ZM45.4681 128.781C53.4141 128.781 58.9098 123.086 58.9098 115.041C58.9098 107.161 53.4141 101.566 45.4681 101.566C37.3897 101.566 31.8277 107.161 31.8277 115.041C31.8277 123.086 37.3897 128.781 45.4681 128.781V128.781ZM148.771 97.9044H154.466V87.1112H167.841V81.8472H154.466V76.881H169V71.7492H148.771V97.9044V97.9044ZM125.167 97.9044H130.861V87.1112H144.237V81.8472H130.861V76.881H145.396V71.7492H125.167V97.9044V97.9044ZM102.484 97.9044H122.315V92.9051H108.178V71.7492H102.484V97.9044V97.9044ZM85.3786 92.872C80.7435 92.872 77.6315 89.4287 77.6315 84.5288C77.6315 79.993 80.7435 76.7816 85.3786 76.7816C89.8813 76.7816 92.9273 79.993 92.9273 84.5288C92.9273 89.4287 89.8813 92.872 85.3786 92.872V92.872ZM85.3786 98.4342C93.3246 98.4342 98.8205 92.7397 98.8205 84.6944C98.8205 76.8147 93.3246 71.2194 85.3786 71.2194C77.3002 71.2194 71.7382 76.8147 71.7382 84.6944C71.7382 92.7397 77.3002 98.4342 85.3786 98.4342V98.4342ZM39.3761 97.9044H45.5675L51.2951 80.258L57.089 97.9044H63.2802L71.6565 71.7492H65.3328L60.0356 90.1904L54.7384 71.7492H47.8187L42.6209 90.1904L37.2903 71.7492H31L39.3761 97.9044V97.9044Z" fill="#1E1E23"></path>
</svg>
